<?xml version="1.0" encoding="utf-8"?>
<!-- Generator: Adobe Illustrator 26.1.0, SVG Export Plug-In . SVG Version: 6.00 Build 0)  -->
<svg version="1.1" id="图层_1" xmlns="http://www.w3.org/2000/svg" xmlns:xlink="http://www.w3.org/1999/xlink" x="0px" y="0px"
	 viewBox="0 0 32 32" style="enable-background:new 0 0 32 32;" xml:space="preserve">
<g>
	<path d="M15.87,0.47c-8.56,0-15.5,6.94-15.5,15.5c0,8.56,6.94,15.5,15.5,15.5s15.5-6.94,15.5-15.5
		C31.37,7.41,24.43,0.47,15.87,0.47z M15.87,29.64c-7.55,0-13.67-6.12-13.67-13.67S8.32,2.3,15.87,2.3s13.67,6.12,13.67,13.67
		S23.42,29.64,15.87,29.64z" fill="param(fill)" fill-opacity="param(fill-opacity)" stroke="param(outline)" stroke-opacity="param(outline-opacity)" stroke-width="param(outline-width)"/>
</g>
<g>
	<path d="M23.59,12.17c0,1.91-0.56,3.42-1.67,4.53c-1.11,1.11-2.66,1.67-4.65,1.67h-3.46v7.99h-2.74V5.97h6.2
		c1.99,0,3.54,0.56,4.65,1.67C23.03,8.76,23.59,10.27,23.59,12.17z M20.85,12.17c0-1.51-0.36-2.54-1.07-3.1
		c-0.71-0.56-1.79-0.83-3.22-0.83h-2.74v7.87h2.74c1.43,0,2.5-0.28,3.22-0.83C20.49,14.72,20.85,13.68,20.85,12.17z" fill="param(fill)" fill-opacity="param(fill-opacity)" stroke="param(outline)" stroke-opacity="param(outline-opacity)" stroke-width="param(outline-width)"/>
</g>
</svg>
