<?xml version="1.0" standalone="no"?><!DOCTYPE svg PUBLIC "-//W3C//DTD SVG 1.1//EN" "http://www.w3.org/Graphics/SVG/1.1/DTD/svg11.dtd"><svg t="1647576745008" class="icon" viewBox="0 0 1024 1024" version="1.1" xmlns="http://www.w3.org/2000/svg" p-id="2912" xmlns:xlink="http://www.w3.org/1999/xlink" width="200" height="200"><defs><style type="text/css"></style></defs><path d="M820.8 64.1H205.2c-24.8 0-44.9 20.2-44.9 44.9v461.7c0 24.8 20.2 44.9 44.9 44.9h271.5V964h70.4V615.8h273.7c24.8 0 44.9-20.2 44.9-44.9V109.1c0.1-24.8-20.1-45-44.9-45z m-615.6 37.2h615.6c4.3 0 7.8 3.5 7.8 7.8v156.1H197.3V109.1c0-4.3 3.6-7.8 7.9-7.8z m615.6 477.4H205.2c-4.3 0-7.8-3.5-7.8-7.8V335.6h631.3v235.3c-0.1 4.2-3.6 7.8-7.9 7.8z" fill="param(fill)" fill-opacity="param(fill-opacity)" stroke="param(outline)" stroke-opacity="param(outline-opacity)" stroke-width="param(outline-width)" p-id="2913"></path><path d="M263.4 160.3h152.1v44H263.4zM267.6 378.2h37.1v148h-37.1zM418.5 378.9h37.1v147.4h-37.1zM568.1 378.9h37.1v147.4h-37.1zM718.8 378.9h37.1v147.4h-37.1z" fill="param(fill)" fill-opacity="param(fill-opacity)" stroke="param(outline)" stroke-opacity="param(outline-opacity)" stroke-width="param(outline-width)" p-id="2914"></path></svg>