<?xml version="1.0" encoding="utf-8"?>
<!-- Generator: Adobe Illustrator 26.1.0, SVG Export Plug-In . SVG Version: 6.00 Build 0)  -->
<svg version="1.1" id="图层_1" xmlns="http://www.w3.org/2000/svg" xmlns:xlink="http://www.w3.org/1999/xlink" x="0px" y="0px"
	 viewBox="0 0 32 32" style="enable-background:new 0 0 32 32;" xml:space="preserve">
<style type="text/css">
	.st0{fill:#231815;}
</style>
<g>
	<path class="st0" d="M16,0.5c-4.84,0-9.16,2.22-12,5.69C3.09,7.3,2.33,8.55,1.75,9.88C1.31,10.91,0.98,12,0.76,13.13
		C0.59,14.06,0.5,15.02,0.5,16c0,1.23,0.14,2.42,0.41,3.56C2.52,26.41,8.67,31.5,16,31.5c8.56,0,15.5-6.94,15.5-15.5
		S24.56,0.5,16,0.5z M5.5,7.25c0.13,0.07,0.23,0.23,0.29,0.44l0.14,0.49C6.05,8.6,5.94,9.12,5.68,9.31l-2.5,1.94
		C3.72,9.79,4.51,8.43,5.5,7.25z M16,29.67c-6.76,0-12.37-4.91-13.47-11.35l7.7-5.98c0.45-0.35,0.71-1.08,0.72-1.85l1.92-1.53
		l4.96,3.14l0.26,0.2c0.02,0,0.04,0.01,0.06,0.01c0.2,0,0.36-0.27,0.36-0.61c0-0.25-0.09-0.46-0.22-0.55l-4.82-4.72l-0.28-0.29
		c-0.1-0.06-0.21-0.1-0.32-0.1c-0.13,0-0.24,0.04-0.35,0.12l-2.29,1.24L9.66,5.34L7.14,5.59C9.53,3.56,12.62,2.33,16,2.33
		c7.55,0,13.67,6.12,13.67,13.67S23.55,29.67,16,29.67z" fill="param(fill)" fill-opacity="param(fill-opacity)" stroke="param(outline)" stroke-opacity="param(outline-opacity)" stroke-width="param(outline-width)" />
</g>
<path class="st0" d="M21.06,19.99c0-0.02-0.01-0.04-0.02-0.05l-2.63-6.99l-2.63,6.99c-0.01,0.01-0.02,0.03-0.02,0.05
	c-0.16,0.35-0.25,0.75-0.25,1.16c0,1.61,1.3,2.91,2.9,2.91c1.6,0,2.9-1.3,2.9-2.91C21.31,20.74,21.22,20.34,21.06,19.99z
	 M19.78,21.98c-0.47,0-0.85-0.38-0.85-0.85c0-0.48,0.38-0.86,0.85-0.86c0.48,0,0.86,0.38,0.86,0.86
	C20.64,21.6,20.26,21.98,19.78,21.98z" fill="param(fill)" fill-opacity="param(fill-opacity)" stroke="param(outline)" stroke-opacity="param(outline-opacity)" stroke-width="param(outline-width)"/>
</svg>
