<?xml version="1.0" encoding="utf-8"?>
<!-- Generator: Adobe Illustrator 26.1.0, SVG Export Plug-In . SVG Version: 6.00 Build 0)  -->
<svg version="1.1" id="图层_1" xmlns="http://www.w3.org/2000/svg" xmlns:xlink="http://www.w3.org/1999/xlink" x="0px" y="0px"
	 viewBox="0 0 32 32" style="enable-background:new 0 0 32 32;" xml:space="preserve">
<g>
	<path d="M15.75,0.88c-8.56,0-15.5,6.94-15.5,15.5s6.94,15.5,15.5,15.5s15.5-6.94,15.5-15.5S24.31,0.88,15.75,0.88z M15.75,30.04
		c-7.55,0-13.67-6.12-13.67-13.67S8.2,2.71,15.75,2.71s13.67,6.12,13.67,13.67S23.3,30.04,15.75,30.04z" fill="param(fill)" fill-opacity="param(fill-opacity)" stroke="param(outline)" stroke-opacity="param(outline-opacity)" stroke-width="param(outline-width)"/>
</g>
<polygon points="23.19,14.06 23.19,18.69 18.19,18.69 18.19,23.7 13.55,23.7 13.55,18.69 8.55,18.69 8.55,14.06 13.55,14.06 
	13.55,9.05 18.19,9.05 18.19,14.06" fill="param(fill)" fill-opacity="param(fill-opacity)" stroke="param(outline)" stroke-opacity="param(outline-opacity)" stroke-width="param(outline-width)"/>
</svg>
