<?xml version="1.0" encoding="utf-8"?>
<!-- Generator: Adobe Illustrator 26.1.0, SVG Export Plug-In . SVG Version: 6.00 Build 0)  -->
<svg version="1.1" id="图层_1" xmlns="http://www.w3.org/2000/svg" xmlns:xlink="http://www.w3.org/1999/xlink" x="0px" y="0px"
	 viewBox="0 0 256 256" style="enable-background:new 0 0 256 256;" xml:space="preserve">
<g id="图层_1_00000147216803056803964780000006307444426220696237_">
	<g>
		<path d="M128,1C57.9,1,1,57.9,1,128c0,25.2,7.3,48.7,20,68.4c5,7.8,10.9,15.1,17.5,21.6c7.6,7.5,16.1,14.1,25.3,19.5
			s19.1,9.7,29.5,12.6c11,3.1,22.6,4.8,34.7,4.8s23.6-1.7,34.7-4.8c10.5-3,20.4-7.2,29.5-12.6c9.3-5.4,17.8-12,25.3-19.5
			c6.6-6.5,12.4-13.8,17.5-21.6c12.7-19.8,20-43.2,20-68.4C255,57.9,198.1,1,128,1z M161.4,234.9c-10.5,3.3-21.8,5.1-33.4,5.1
			s-22.8-1.8-33.4-5.1c-13.6-4.2-26.1-11-36.9-19.7c-4.6-3.7-8.8-7.7-12.8-12c-5.2-5.7-9.8-12-13.7-18.7c-3.6-6.1-6.6-12.6-9-19.3
			C18.2,153.5,16,141,16,128C16,66.1,66.1,16,128,16s112,50.1,112,112c0,13-2.2,25.5-6.3,37.1c-2.4,6.8-5.4,13.2-9,19.3
			c-3.9,6.7-8.5,13-13.7,18.7c-3.9,4.3-8.2,8.4-12.8,12C187.5,223.9,175,230.7,161.4,234.9z" fill="param(fill)" fill-opacity="param(fill-opacity)" stroke="param(outline)" stroke-opacity="param(outline-opacity)" stroke-width="param(outline-width)"/>
	</g>
</g>
<g>
	<path d="M111.9,81.3c-3.5-3.6-8.4-5.6-13.5-5.5H68.9c-5.2,0-9.9,1.8-13.8,5.5c-4,3.6-6,7.9-6,12.6v42.8c0,3.5,3.1,6.3,6.9,6.3h7.8
		v77.7c0,3.5,3.1,6.3,6.8,6.3h25.8c3.8,0,6.8-2.8,6.8-6.3v-77.6h7.8c3.8,0,6.9-2.8,6.9-6.3V93.9C117.9,89.1,115.9,84.9,111.9,81.3z" fill="param(fill)" fill-opacity="param(fill-opacity)" stroke="param(outline)" stroke-opacity="param(outline-opacity)" stroke-width="param(outline-width)"/>
	<path d="M173.3,66.1c5.5,0,10.2-1.9,14.1-5.7c3.8-3.8,5.7-8.5,5.7-14.1s-1.9-10.2-5.7-13.8c-3.8-3.7-8.5-5.5-14.1-5.5
		c-5.5,0-10.2,1.8-14.1,5.5c-3.8,3.7-5.7,8.3-5.7,13.8s1.9,10.2,5.7,14.1C163,64.2,167.8,66.1,173.3,66.1z" fill="param(fill)" fill-opacity="param(fill-opacity)" stroke="param(outline)" stroke-opacity="param(outline-opacity)" stroke-width="param(outline-width)"/>
	<path d="M97.8,32.5C94,28.8,89.3,27,83.7,27c-5.5,0-10.2,1.8-14.1,5.5c-3.8,3.7-5.7,8.2-5.7,13.8c0,5.5,1.9,10.2,5.7,14.1
		c3.8,3.8,8.5,5.7,14.1,5.7c5.5,0,10.2-1.9,14.1-5.7c3.8-3.8,5.7-8.5,5.7-14.1S101.6,36.1,97.8,32.5z" fill="param(fill)" fill-opacity="param(fill-opacity)" stroke="param(outline)" stroke-opacity="param(outline-opacity)" stroke-width="param(outline-width)"/>
	<path d="M214.6,148.5l-22-60.1c-3.4-8.4-9.6-12.6-18.9-12.6h-0.9c-9.2,0-15.5,4.2-18.9,12.6l-22,60.1c-1.4,3.9,1.8,7.9,6.3,7.9
		h20.3v64.2c0,3.5,3.1,6.3,6.9,6.3H181c3.8,0,6.9-2.8,6.9-6.3v-64.2h20.3C212.9,156.4,216.1,152.4,214.6,148.5z" fill="param(fill)" fill-opacity="param(fill-opacity)" stroke="param(outline)" stroke-opacity="param(outline-opacity)" stroke-width="param(outline-width)"/>
</g>
</svg>
