<?xml version="1.0" encoding="UTF-8"?>
<!DOCTYPE svg PUBLIC "-//W3C//DTD SVG 1.1//EN" "http://www.w3.org/Graphics/SVG/1.1/DTD/svg11.dtd">
<!-- Creator: CorelDRAW X8 -->
<svg xmlns="http://www.w3.org/2000/svg" xml:space="preserve" width="30mm" height="8mm" version="1.1" style="shape-rendering:geometricPrecision; text-rendering:geometricPrecision; image-rendering:optimizeQuality; fill-rule:evenodd; clip-rule:evenodd"
viewBox="0 0 3000 800"
 xmlns:xlink="http://www.w3.org/1999/xlink">
 <defs>
  <style type="text/css">
   <![CDATA[
    .fil4 {fill:#FEFEFE}
    .fil3 {fill:#FEFEFE;fill-rule:nonzero}
    .fil2 {fill:#332C2B;fill-rule:nonzero}
    .fil0 {fill:#232222;fill-rule:nonzero}
    .fil1 {fill:#0085CB;fill-rule:nonzero}
   ]]>
  </style>
 </defs>
 <g id="图层_x0020_1">
  <metadata id="CorelCorpID_0Corel-Layer"/>
  <g id="_1846572206656">
   <path class="fil0" d="M871 248l0 51c0,60 -11,105 -34,135 0,-1 -10,-10 -29,-26 19,-22 28,-60 27,-113l0 -80 92 0c-1,-1 -2,-4 -3,-7 -3,-8 -5,-12 -6,-15l40 -10c1,4 4,9 6,16 3,7 4,12 6,16l86 0 0 33 -185 0z"/>
   <path class="fil0" d="M1097 251l28 7c-6,30 -12,56 -18,76l-29 -10c8,-22 14,-47 19,-73zm62 10l0 0 28 -8c6,21 12,45 18,72l-29 7c-2,-8 -5,-19 -8,-33 -4,-18 -7,-30 -9,-37l0 34c2,62 -13,107 -42,137 -8,-7 -17,-15 -30,-24 27,-23 41,-62 39,-116l0 -103 33 0 0 71zm46 164l0 0 0 -234 33 0 0 68 25 -8c4,11 10,30 18,59 1,3 2,6 3,7l0 -130 33 0 0 242 -33 0 0 -108 -27 9c-5,-21 -11,-43 -19,-66l0 161 -33 0z"/>
   <path class="fil0" d="M1503 201l0 -17 33 0 0 17 68 0 0 29 -68 0 0 11 -33 0 0 -11 -47 0 0 11 -33 0 0 -11 -70 0 0 -29 70 0 0 -17 33 0 0 17 47 0zm-150 223l0 0 0 -26 23 0 0 -65 205 0 0 65 23 0 0 26 -251 0zm48 -100l0 0 -32 0 0 -75 32 0 0 75zm9 74l0 0 24 0 0 -37 -24 0 0 37zm47 -74l0 0 -33 0 0 -78 33 0 0 78zm61 -26l0 0 15 -15 -23 0c-6,17 -14,32 -23,46 -4,-4 -13,-9 -27,-17 13,-21 23,-44 31,-71l31 6c0,1 0,2 -1,4 0,2 0,3 -1,4l79 0 0 28 -54 0c1,1 3,2 5,3 10,7 20,15 28,24l-21 22c-10,-11 -24,-22 -39,-34zm-51 100l0 0 23 0 0 -37 -23 0 0 37zm80 -37l0 0 -24 0 0 37 24 0 0 -37z"/>
   <path class="fil0" d="M1628 315l0 -35 99 0c3,-14 5,-29 5,-47l-90 0 0 -34 218 0 0 34 -91 0c-1,15 -2,31 -3,47l107 0 0 35 -97 0c19,43 53,71 100,85 -4,3 -12,12 -23,26 -3,3 -5,6 -6,8 -44,-18 -77,-50 -98,-97 -15,39 -47,70 -95,95 -6,-8 -16,-18 -29,-30 54,-24 86,-53 95,-87l-92 0z"/>
   <path class="fil0" d="M1982 336l8 -13c14,10 31,24 51,41l-22 26c-6,-7 -14,-15 -26,-26 -5,-5 -8,-9 -11,-12l0 46c0,21 -9,31 -26,31 -11,1 -24,2 -39,2 -2,-11 -5,-21 -8,-32 7,1 17,1 28,1 9,0 13,-4 13,-14l0 -33c-14,12 -28,26 -43,41l-10 -33c14,-11 29,-23 44,-36l9 15 0 -83 -50 0 0 -31 50 0 0 -41 32 0 0 41 22 0c-7,-11 -14,-20 -21,-28l21 -14c1,3 5,8 12,14 5,6 9,10 11,14l-19 14 22 0 0 31 -48 0 0 49c8,-11 18,-25 28,-42l15 10c12,-25 22,-55 30,-90l33 9c-2,10 -5,21 -8,33l68 0 0 32 -15 0c-5,40 -15,75 -30,104 12,16 27,28 46,38 -6,5 -13,16 -22,32 -17,-11 -32,-25 -43,-40 -15,16 -32,31 -51,43 -7,-8 -15,-18 -26,-29 24,-12 43,-27 58,-46 -9,-17 -15,-36 -18,-58 -5,7 -8,12 -11,17 -2,-2 -6,-7 -13,-16 -1,-2 -2,-3 -3,-4 -5,7 -11,15 -17,24l-21 -16 0 29zm-84 -57l0 0 22 -14c8,11 18,25 29,42l-25 14c-5,-9 -13,-22 -23,-38 -2,-2 -3,-3 -3,-4zm170 -21l0 0 -1 3c2,25 8,48 17,68 9,-21 15,-45 18,-71l-34 0z"/>
   <path class="fil0" d="M2303 328l102 0 0 23c-9,16 -20,29 -33,41 15,5 32,8 50,9 -5,7 -10,17 -17,30 -23,-3 -44,-10 -62,-20 -19,10 -40,18 -63,23 -4,-10 -9,-19 -16,-27 -5,5 -10,11 -15,16 -4,-7 -10,-13 -16,-20 -2,-2 -4,-4 -4,-5l0 3c0,18 -8,27 -23,28 -9,1 -19,2 -30,2 -2,-11 -4,-21 -6,-31l19 0c4,0 7,-3 7,-9l0 -47c-9,2 -17,4 -24,6l-3 -37c1,0 3,0 5,-1 6,-2 13,-3 22,-4l0 -45 -26 0 0 -31 26 0 0 -47 33 0 0 47 20 0 0 31 -20 0 0 37c2,-1 5,-1 8,-2 4,-1 8,-2 10,-3l0 34c-7,2 -13,4 -18,5l0 63c22,-21 37,-49 45,-82l-22 0 0 -25 27 0c0,-2 0,-4 1,-7l0 -6 -25 0 0 -26 14 0c-1,-2 -2,-5 -4,-8 -2,-4 -3,-6 -5,-8l29 -9c4,6 7,15 11,25l21 0c-2,-8 -5,-15 -8,-22l29 -8c2,6 4,14 7,23 1,3 1,6 2,7l9 0c3,-3 6,-9 10,-16 4,-7 6,-12 9,-16l29 11c-2,3 -5,8 -9,14 -2,3 -4,6 -6,7l22 0 0 26 -103 0c0,4 -1,8 -2,13l108 0 0 25 -112 0c-1,4 -2,9 -3,13zm-53 -130l0 0c47,-2 100,-6 158,-11l6 29c-67,5 -119,9 -157,11 0,-6 -3,-16 -7,-29zm16 206l0 0c17,-2 33,-6 48,-11 -9,-8 -17,-17 -25,-26 -8,17 -16,30 -23,37zm77 -26l0 0c13,-10 22,-18 26,-25l-54 0c8,10 18,18 28,25z"/>
   <path class="fil0" d="M2444 283l0 -31 21 0 0 -66 33 0 0 66 20 0 0 31 -20 0 0 148 -33 0 0 -148 -21 0zm61 60l0 0c9,-22 17,-44 24,-66l27 7c-6,23 -14,46 -22,69 -1,0 -2,-1 -4,-2 -10,-4 -18,-7 -25,-8zm159 41l0 0c0,29 -13,43 -40,44 -8,1 -20,1 -35,1 -2,-12 -5,-23 -8,-33 13,1 22,1 27,1 14,0 21,-6 22,-18 1,-28 2,-67 2,-117l-30 0c-2,76 -24,134 -67,172 -8,-8 -17,-17 -28,-27 39,-29 59,-78 61,-145l-41 0 0 -33 42 0 0 -44 34 0 0 44 64 0c-1,21 -1,41 -1,58 6,5 15,12 25,22 2,1 3,2 4,3l-8 40c-3,-3 -7,-7 -12,-12 -4,-5 -8,-9 -10,-11 0,9 -1,21 -1,36l0 19z"/>
   <path class="fil0" d="M2824 184l44 0 -7 9c22,32 57,60 106,82 -5,5 -11,13 -19,24 -2,2 -4,4 -4,5 -13,-6 -25,-13 -35,-21l0 17 -137 0 0 -18c-3,3 -9,7 -18,12 -7,4 -13,8 -17,10 -3,-4 -9,-12 -19,-24 8,9 6,7 -4,-6 55,-29 92,-59 110,-90zm-100 169l0 0 0 -32 232 0 0 32 -62 0c5,7 14,18 26,33 12,14 20,24 26,31l-31 18c-1,-1 -3,-4 -5,-7 -3,-4 -5,-7 -7,-9l-13 0c-23,1 -59,3 -107,6l-3 0c-5,0 -13,2 -24,4l-16 -29c16,-10 32,-26 47,-47l-63 0zm116 -133l0 0c-13,17 -30,34 -51,49l100 0c-19,-15 -35,-31 -49,-49zm23 147l0 0 21 -14 -53 0c-9,12 -20,25 -33,39 10,0 29,-1 58,-1 10,-1 18,-1 24,-1 -5,-8 -11,-16 -17,-23z"/>
   <path class="fil0" d="M877 602c-5,1 -16,5 -28,5 -14,0 -25,-4 -34,-12 -8,-8 -13,-20 -13,-34 0,-28 19,-48 50,-48 10,0 18,3 22,5l-2 9c-5,-2 -11,-4 -21,-4 -22,0 -36,14 -36,37 0,23 14,37 35,37 8,0 13,-1 16,-3l0 -27 -19 0 0 -9 30 0 0 44z"/>
   <path class="fil0" d="M947 588c0,7 0,12 0,18l-10 0 -1 -11 0 0c-3,5 -10,12 -22,12 -10,0 -22,-6 -22,-29l0 -38 11 0 0 36c0,13 4,21 15,21 8,0 14,-5 16,-11 0,-1 1,-4 1,-6l0 -40 12 0 0 48z"/>
   <path class="fil0" d="M1010 590c0,6 0,11 1,16l-11 0 -1 -9 0 0c-4,6 -11,10 -20,10 -13,0 -20,-9 -20,-19 0,-15 14,-24 39,-24l0 -1c0,-6 -1,-16 -15,-16 -6,0 -12,2 -17,5l-2 -8c5,-3 13,-5 21,-5 20,0 25,13 25,26l0 25zm-12 -18l0 0c-13,0 -27,2 -27,15 0,8 5,11 11,11 8,0 14,-5 16,-11 0,-1 0,-2 0,-3l0 -12z"/>
   <path class="fil0" d="M1026 558c0,-7 0,-12 0,-18l10 0 1 11 0 0c4,-6 11,-12 22,-12 9,0 23,5 23,28l0 39 -12 0 0 -38c0,-11 -4,-20 -15,-20 -8,0 -14,6 -16,13 0,1 -1,3 -1,5l0 40 -12 0 0 -48z"/>
   <path class="fil0" d="M1155 596c0,15 -3,24 -10,30 -6,6 -15,8 -23,8 -8,0 -17,-2 -22,-6l3 -9c4,3 11,6 19,6 12,0 21,-7 21,-23l0 -8 0 0c-4,6 -11,11 -21,11 -16,0 -28,-13 -28,-32 0,-22 15,-34 30,-34 11,0 17,6 20,11l0 0 1 -10 10 0c0,5 0,10 0,18l0 38zm-12 -30l0 0c0,-2 0,-4 -1,-5 -2,-7 -8,-13 -16,-13 -12,0 -20,10 -20,25 0,13 7,23 20,23 7,0 13,-4 16,-12 1,-2 1,-4 1,-6l0 -12z"/>
   <path class="fil0" d="M1164 599l30 -39c3,-3 6,-7 9,-10l0 0 -36 0 0 -10 50 0 0 8 -29 38c-3,3 -6,6 -9,10l0 0 39 0 0 10 -54 0 0 -7z"/>
   <path class="fil0" d="M1227 510l12 0 0 40 0 0c2,-3 5,-6 9,-8 3,-2 8,-3 12,-3 9,0 23,5 23,28l0 39 -12 0 0 -38c0,-11 -4,-20 -15,-20 -8,0 -14,6 -16,12 -1,2 -1,4 -1,6l0 40 -12 0 0 -96z"/>
   <path class="fil0" d="M1359 572c0,25 -17,35 -33,35 -18,0 -31,-13 -31,-34 0,-22 14,-34 32,-34 19,0 32,13 32,33zm-52 1l0 0c0,14 8,25 20,25 11,0 20,-10 20,-25 0,-11 -6,-25 -20,-25 -14,0 -20,13 -20,25z"/>
   <path class="fil0" d="M1426 588c0,7 0,12 1,18l-11 0 -1 -11 0 0c-3,5 -10,12 -22,12 -10,0 -22,-6 -22,-29l0 -38 12 0 0 36c0,13 3,21 14,21 8,0 14,-5 16,-11 1,-1 1,-4 1,-6l0 -40 12 0 0 48z"/>
   <path class="fil0" d="M1469 516c6,-1 14,-2 22,-2 12,0 19,2 25,6 5,4 8,9 8,16 0,9 -6,17 -16,21l0 0c9,2 19,9 19,23 0,8 -3,13 -8,18 -6,6 -16,8 -31,8 -8,0 -15,0 -19,-1l0 -89zm12 37l0 0 11 0c12,0 20,-7 20,-15 0,-11 -8,-15 -20,-15 -6,0 -9,0 -11,1l0 29zm0 44l0 0c3,0 6,0 10,0 12,0 24,-4 24,-17 0,-13 -11,-18 -24,-18l-10 0 0 35z"/>
   <polygon class="fil0" points="1540,510 1552,510 1552,606 1540,606 "/>
   <path class="fil0" d="M1624 588c0,7 0,12 0,18l-10 0 -1 -11 0 0c-3,5 -10,12 -22,12 -10,0 -22,-6 -22,-29l0 -38 11 0 0 36c0,13 4,21 15,21 8,0 14,-5 16,-11 1,-1 1,-4 1,-6l0 -40 12 0 0 48z"/>
   <path class="fil0" d="M1648 575c0,16 10,23 22,23 9,0 14,-2 18,-4l2 9c-4,2 -11,4 -22,4 -20,0 -32,-13 -32,-33 0,-20 12,-35 31,-35 21,0 27,18 27,30 0,3 0,5 0,6l-46 0zm34 -9l0 0c1,-7 -3,-19 -16,-19 -12,0 -17,11 -18,19l34 0z"/>
   <path class="fil0" d="M1731 591c5,4 13,6 21,6 12,0 19,-6 19,-15 0,-9 -5,-14 -17,-18 -15,-6 -24,-13 -24,-26 0,-15 11,-25 29,-25 10,0 16,2 20,4l-3 10c-3,-2 -9,-4 -17,-4 -13,0 -17,7 -17,13 0,9 5,13 18,18 15,6 23,13 23,27 0,14 -10,26 -32,26 -9,0 -18,-3 -23,-6l3 -10z"/>
   <path class="fil0" d="M1808 570l0 0c2,-2 4,-5 6,-7l19 -23 15 0 -26 27 29 39 -14 0 -23 -32 -6 7 0 25 -12 0 0 -96 12 0 0 60z"/>
   <path class="fil0" d="M1861 540l15 39c1,4 3,9 4,13l0 0c1,-4 3,-9 4,-13l13 -39 13 0 -18 47c-9,22 -14,34 -23,41 -5,5 -11,7 -14,8l-3 -10c3,-1 7,-3 10,-6 4,-3 8,-7 10,-14 1,-1 1,-2 1,-2 0,-1 0,-2 -1,-4l-24 -60 13 0z"/>
   <path class="fil0" d="M1944 516c6,-2 15,-2 23,-2 13,0 21,2 26,7 5,4 7,10 7,17 0,13 -7,21 -17,24l0 0c7,3 12,9 14,19 3,12 5,21 7,25l-12 0c-2,-3 -4,-11 -7,-22 -2,-13 -7,-17 -18,-18l-11 0 0 40 -12 0 0 -90zm12 41l0 0 12 0c13,0 21,-7 21,-17 0,-12 -9,-17 -21,-17 -6,0 -10,0 -12,1l0 33z"/>
   <path class="fil0" d="M2021 575c0,16 10,23 22,23 9,0 14,-2 18,-4l2 9c-4,2 -11,4 -21,4 -21,0 -33,-13 -33,-33 0,-20 12,-35 31,-35 21,0 27,18 27,30 0,3 0,5 0,6l-46 0zm35 -9l0 0c0,-7 -3,-19 -17,-19 -12,0 -17,11 -18,19l35 0z"/>
   <path class="fil0" d="M2078 593c3,3 9,5 15,5 9,0 13,-4 13,-10 0,-5 -3,-8 -12,-12 -12,-4 -18,-10 -18,-18 0,-11 9,-19 23,-19 7,0 13,2 16,4l-3 8c-2,-1 -7,-3 -13,-3 -7,0 -11,4 -11,9 0,5 4,7 12,11 12,4 18,10 18,19 0,12 -9,20 -25,20 -7,0 -14,-2 -18,-4l3 -10z"/>
   <path class="fil0" d="M2177 603c-3,2 -10,4 -19,4 -20,0 -33,-13 -33,-33 0,-21 14,-35 36,-35 7,0 13,2 16,3l-3 9c-2,-1 -7,-3 -13,-3 -16,0 -24,11 -24,25 0,15 10,25 23,25 7,0 11,-2 15,-4l2 9z"/>
   <path class="fil0" d="M2243 588c0,7 0,12 0,18l-10 0 -1 -11 0 0c-3,5 -10,12 -22,12 -10,0 -22,-6 -22,-29l0 -38 12 0 0 36c0,13 3,21 14,21 8,0 14,-5 16,-11 1,-1 1,-4 1,-6l0 -40 12 0 0 48z"/>
   <path class="fil0" d="M2267 575c0,16 10,23 22,23 9,0 14,-2 18,-4l2 9c-4,2 -11,4 -22,4 -20,0 -32,-13 -32,-33 0,-20 12,-35 31,-35 21,0 27,18 27,30 0,3 0,5 0,6l-46 0zm35 -9l0 0c0,-7 -4,-19 -17,-19 -12,0 -17,11 -18,19l35 0z"/>
   <path class="fil0" d="M2366 577l-9 29 -12 0 31 -92 14 0 31 92 -13 0 -9 -29 -33 0zm30 -9l0 0 -9 -27c-2,-5 -3,-11 -5,-16l0 0c-1,5 -3,11 -4,16l-9 27 27 0z"/>
   <path class="fil0" d="M2430 593c3,3 9,5 15,5 9,0 13,-4 13,-10 0,-5 -3,-8 -12,-12 -12,-4 -17,-10 -17,-18 0,-11 8,-19 22,-19 7,0 13,2 16,4l-3 8c-2,-1 -7,-3 -13,-3 -7,0 -11,4 -11,9 0,5 4,7 12,11 12,4 18,10 18,19 0,12 -9,20 -25,20 -7,0 -14,-2 -18,-4l3 -10z"/>
   <path class="fil0" d="M2481 593c3,3 9,5 15,5 9,0 13,-4 13,-10 0,-5 -3,-8 -12,-12 -12,-4 -18,-10 -18,-18 0,-11 9,-19 23,-19 7,0 12,2 16,4l-3 8c-2,-1 -7,-3 -13,-3 -7,0 -11,4 -11,9 0,5 4,7 12,11 12,4 17,10 17,19 0,12 -8,20 -24,20 -7,0 -14,-2 -18,-4l3 -10z"/>
   <path class="fil0" d="M2592 572c0,25 -16,35 -32,35 -18,0 -32,-13 -32,-34 0,-22 15,-34 33,-34 19,0 31,13 31,33zm-52 1l0 0c0,14 9,25 20,25 12,0 20,-10 20,-25 0,-11 -5,-25 -19,-25 -15,0 -21,13 -21,25z"/>
   <path class="fil0" d="M2651 603c-3,2 -10,4 -18,4 -20,0 -33,-13 -33,-33 0,-21 14,-35 35,-35 7,0 13,2 17,3l-3 9c-3,-1 -7,-3 -14,-3 -15,0 -23,11 -23,25 0,15 10,25 23,25 6,0 11,-2 14,-4l2 9z"/>
   <path class="fil0" d="M2676 522c0,4 -3,7 -8,7 -4,0 -7,-3 -7,-7 0,-5 3,-8 8,-8 4,0 7,3 7,8zm-13 18l0 0 12 0 0 66 -12 0 0 -66z"/>
   <path class="fil0" d="M2738 590c0,6 0,11 1,16l-11 0 -1 -9 0 0c-4,6 -11,10 -20,10 -14,0 -21,-9 -21,-19 0,-15 15,-24 40,-24l0 -1c0,-6 -2,-16 -15,-16 -6,0 -13,2 -17,5l-3 -8c6,-3 13,-5 22,-5 20,0 25,13 25,26l0 25zm-12 -18l0 0c-13,0 -28,2 -28,15 0,8 6,11 12,11 8,0 14,-5 15,-11 1,-1 1,-2 1,-3l0 -12z"/>
   <path class="fil0" d="M2769 524l0 16 17 0 0 9 -17 0 0 36c0,8 2,12 8,12 4,0 6,0 7,-1l1 9c-2,1 -6,2 -11,2 -5,0 -10,-2 -13,-5 -3,-4 -4,-9 -4,-17l0 -36 -10 0 0 -9 10 0 0 -12 12 -4z"/>
   <path class="fil0" d="M2810 522c0,4 -3,7 -8,7 -4,0 -7,-3 -7,-7 0,-5 3,-8 7,-8 5,0 8,3 8,8zm-14 18l0 0 12 0 0 66 -12 0 0 -66z"/>
   <path class="fil0" d="M2885 572c0,25 -17,35 -33,35 -18,0 -31,-13 -31,-34 0,-22 14,-34 32,-34 19,0 32,13 32,33zm-52 1l0 0c0,14 8,25 19,25 12,0 20,-10 20,-25 0,-11 -5,-25 -19,-25 -14,0 -20,13 -20,25z"/>
   <path class="fil0" d="M2897 558c0,-7 0,-12 -1,-18l11 0 1 11 0 0c3,-6 11,-12 22,-12 9,0 23,5 23,28l0 39 -12 0 0 -38c0,-11 -4,-20 -15,-20 -8,0 -14,6 -16,13 -1,1 -1,3 -1,5l0 40 -12 0 0 -48z"/>
  </g>
  <g id="_1846572194976">
   <g>
    <path class="fil1" d="M335 768c-166,-66 -234,-154 -261,-216 -29,-67 -18,-119 -18,-120l0 0 16 -114c3,-26 0,-52 -11,-76l-20 -46c-3,-7 -2,-16 3,-23l82 -114c4,-5 11,-9 19,-9l381 0c7,0 14,4 18,9l83 114c5,7 6,16 3,23l-20 46c-11,24 -15,50 -11,76l16 114 0 0c0,1 10,54 -19,121 -39,89 -129,163 -261,215z"/>
    <path class="fil2" d="M526 61c4,0 8,2 10,5l83 113c2,4 3,9 1,13l-20 45c-11,26 -15,54 -11,82l15 114 1 1 0 0c0,1 9,52 -20,116 -17,38 -43,74 -79,106 -44,39 -101,73 -171,100 -69,-27 -127,-61 -171,-100 -35,-32 -62,-68 -79,-106 -28,-64 -19,-115 -19,-115l0 -1 0 -1 16 -114c4,-28 0,-56 -11,-82l-20 -45c-2,-4 -2,-9 1,-13l83 -113c2,-3 6,-5 10,-5l381 0zm0 -21l0 0 -381 0c-11,0 -21,5 -27,13l-83 113c-7,10 -9,23 -4,35l20 45c10,22 14,46 10,70l-16 114c0,0 -44,219 290,349 335,-130 290,-349 290,-349l-16 -114c-3,-24 0,-48 10,-70l20 -45c5,-12 4,-25 -3,-35l-83 -113c-6,-8 -16,-13 -27,-13z"/>
   </g>
   <g>
    <path class="fil3" d="M242 522c-1,8 1,10 1,10 7,7 34,43 40,51 6,9 13,20 13,20 0,0 3,6 8,9 4,2 19,5 26,6 5,0 17,3 18,3 17,2 18,-5 18,-7 -1,-2 -4,-2 -4,-2 0,0 -33,-10 -33,-10 -4,-2 0,-5 2,-4 9,2 30,9 33,10 3,1 3,1 6,1 4,0 11,-1 11,-10 0,-1 -1,-1 -2,-2 -2,-1 -34,-13 -35,-13 -2,-1 -3,-5 1,-5 2,1 34,13 40,14 6,2 12,-12 12,-12 0,0 1,-5 -1,-5 -3,0 -21,-6 -40,-17 0,-1 -1,-4 3,-5 1,0 25,15 41,17 2,0 4,-2 4,-2 0,0 6,-4 6,-12 0,-3 -2,-5 -2,-5 -1,-1 -5,0 -13,-2 -13,-5 -32,-13 -40,-26 -6,-10 -1,-20 9,-27 4,-2 12,-8 7,-20 0,0 -1,-3 -4,-3 -11,10 -19,12 -29,14 -27,2 -24,9 -34,8 -4,0 -8,0 -15,-5 -5,-5 -9,-12 -18,-14 -9,-1 -25,25 -29,45z"/>
    <path class="fil3" d="M403 547c8,0 10,-1 11,-2 7,-7 43,-33 51,-39 9,-6 20,-12 20,-12 0,0 7,-4 9,-8 3,-4 6,-19 7,-27 1,-4 3,-16 3,-18 2,-16 -4,-17 -6,-17 -2,0 -2,3 -2,3 0,0 -11,33 -11,34 -2,3 -5,-1 -4,-2 2,-9 9,-30 10,-33 1,-3 2,-3 2,-7 0,-4 -1,-10 -10,-11 -1,0 -2,2 -2,3 -1,1 -14,33 -14,35 -1,1 -5,2 -5,-2 1,-2 14,-34 15,-39 2,-7 -13,-13 -13,-13 0,0 -4,-1 -4,1 0,3 -7,21 -18,39 -1,1 -4,2 -4,-2 0,-1 14,-25 17,-41 0,-2 -2,-4 -2,-4 0,0 -4,-6 -12,-6 -3,0 -5,2 -5,2 -1,1 0,5 -3,13 -4,12 -13,31 -26,39 -10,7 -19,1 -26,-9 -3,-4 -8,-12 -20,-7 0,0 -3,1 -4,3 10,12 12,20 14,30 2,27 8,24 8,34 0,5 0,8 -6,15 -4,5 -12,9 -14,18 -1,9 25,25 44,30z"/>
    <path class="fil3" d="M431 385c0,-8 -1,-10 -1,-10 -7,-7 -34,-44 -39,-52 -6,-9 -12,-20 -12,-20 0,0 -4,-7 -8,-9 -4,-3 -19,-6 -26,-7 -5,-1 -17,-4 -18,-4 -17,-2 -18,5 -18,7 1,2 4,2 4,2 0,0 32,10 33,11 3,2 -1,5 -2,4 -9,-3 -30,-10 -33,-11 -3,-1 -3,-1 -7,-2 -4,0 -10,1 -11,10 0,1 2,2 3,3 1,0 33,13 35,14 1,1 2,4 -2,4 -2,0 -34,-14 -39,-15 -7,-2 -13,13 -13,13 0,0 -1,4 1,4 3,1 20,7 39,19 1,0 2,4 -3,4 -1,0 -25,-15 -40,-18 -2,0 -4,2 -4,2 0,0 -6,4 -6,12 0,3 1,5 2,5 0,1 5,0 13,3 12,4 31,13 39,26 6,10 0,20 -10,27 -4,2 -13,8 -8,19 0,0 2,4 4,4 12,-10 19,-12 30,-13 27,-2 24,-8 34,-8 4,0 8,1 15,6 5,5 9,12 17,14 9,1 26,-24 31,-44z"/>
    <path class="fil3" d="M269 358c-8,0 -10,1 -11,1 -7,7 -43,33 -51,39 -10,6 -21,12 -21,12 0,0 -6,3 -9,7 -2,5 -6,20 -7,27 -1,5 -4,16 -4,18 -2,17 5,18 7,17 2,0 2,-3 2,-3 0,0 11,-32 11,-33 2,-3 5,1 4,2 -3,9 -10,30 -11,33 -1,3 -1,3 -1,6 -1,4 0,11 9,12 1,0 2,-2 3,-3 0,-1 13,-33 14,-35 1,-1 5,-2 4,2 0,2 -14,34 -15,39 -2,7 13,13 13,13 0,0 4,1 4,-1 0,-3 7,-21 19,-39 1,-1 4,-2 4,2 0,1 -15,26 -18,41 0,2 2,4 2,4 0,0 4,6 12,6 2,0 5,-1 5,-2 0,0 0,-5 3,-13 4,-12 13,-31 27,-39 9,-6 19,0 26,10 2,4 8,13 19,8 0,0 4,-2 4,-4 -10,-12 -12,-19 -13,-30 -2,-26 -8,-24 -8,-34 1,-4 1,-8 6,-15 5,-5 13,-8 14,-17 2,-9 -24,-26 -43,-31z"/>
   </g>
   <path class="fil4" d="M170 299c17,-13 36,-33 68,-47 -24,0 -60,17 -68,47zm335 0l0 0c-18,-13 -36,-33 -68,-47 23,0 59,17 68,47zm-86 342l0 0c2,0 3,0 5,0 -1,0 -3,0 -5,0 5,-3 8,-6 12,-9 5,-4 8,-9 11,-14 3,-4 5,-7 7,-10 10,-14 24,-21 38,-30l0 0c-3,5 -5,9 -7,14 -3,8 -5,15 -8,22 -3,5 -7,10 -12,14 -4,3 -8,6 -12,7 -1,1 -2,1 -3,2 8,-3 15,-6 19,-8 6,-3 13,-6 20,-8 13,-4 27,-7 38,-8 -5,6 -10,12 -17,18 -16,14 -32,21 -53,17 -8,-1 -26,-3 -33,-7zm65 -31l0 0c1,0 3,-1 5,-2 -2,1 -3,2 -5,2 3,-4 5,-8 7,-11 3,-6 4,-11 5,-17 1,-4 2,-8 3,-11 4,-15 13,-26 23,-38 -2,6 -2,10 -2,15 0,8 1,15 0,22 -1,6 -3,11 -5,16 -3,4 -5,7 -8,10 -1,1 -2,1 -2,2 5,-4 10,-9 13,-12 4,-5 9,-9 15,-14 9,-7 20,-14 29,-18 -2,7 -5,14 -9,22 -9,16 -20,27 -39,31 -7,1 -23,5 -30,3zm43 -49l0 0c1,0 2,-1 3,-2 -1,1 -2,1 -3,2 1,-4 2,-8 3,-11 1,-6 0,-11 0,-16 -1,-3 -1,-7 -1,-10 -1,-14 4,-25 9,-38 1,5 1,9 2,13 2,7 5,12 6,18 2,5 1,10 0,15 -1,4 -2,8 -3,11 -1,1 -1,2 -2,3 4,-6 7,-11 8,-15 2,-5 6,-10 9,-15 6,-9 14,-18 20,-23 0,6 0,12 -1,20 -4,17 -10,29 -26,37 -5,3 -17,11 -24,11zm23 -53l0 0c1,-1 2,-2 2,-3 0,1 -1,2 -2,3 0,-4 0,-8 -1,-11 -1,-5 -2,-10 -4,-14 -1,-3 -3,-6 -4,-9 -4,-12 -3,-23 -2,-36 2,5 3,8 5,11 4,5 8,9 11,15 2,4 4,8 4,13 0,4 0,7 0,10 0,1 0,2 -1,3 2,-6 3,-11 3,-15 1,-5 2,-10 4,-16 3,-9 7,-19 11,-26 2,6 3,11 5,19 1,15 -1,28 -13,39 -4,5 -12,15 -18,17zm6 -55l0 0c0,-1 1,-3 1,-4 0,1 -1,2 -1,3 -1,-4 -2,-7 -3,-10 -2,-4 -5,-8 -7,-12 -2,-3 -4,-5 -5,-8 -7,-10 -8,-22 -10,-34 3,4 5,7 7,9 5,5 10,8 13,12 4,4 6,8 7,12 1,4 2,7 2,10 0,1 0,2 0,3 0,-6 0,-11 0,-15 -1,-5 -1,-10 0,-16 1,-10 3,-20 6,-27 2,5 5,10 7,17 5,14 5,27 -3,40 -3,5 -10,16 -14,20zm-5 -58l0 0c1,-1 1,-2 1,-4 0,2 0,3 -1,4 -1,-3 -3,-6 -5,-8 -3,-4 -6,-7 -9,-9 -2,-2 -4,-4 -6,-5 -9,-8 -13,-17 -18,-27l0 0c4,2 6,4 9,6 5,2 10,4 15,7 3,2 6,5 8,8 2,3 4,6 5,8 0,1 0,2 0,3 -1,-5 -2,-10 -4,-13 -2,-4 -3,-9 -4,-14 -1,-8 -2,-18 -2,-25 4,4 7,7 11,13 8,11 12,22 8,35 -2,5 -4,17 -8,21zm-20 -51l0 0c0,-1 0,-2 0,-3 0,1 0,2 0,3 -2,-3 -4,-5 -7,-7 -3,-3 -6,-5 -10,-7 -3,-1 -5,-2 -7,-4 -10,-5 -16,-14 -23,-23 4,2 7,4 10,4 6,2 11,2 16,4 4,2 7,4 10,7 2,3 4,5 6,7 0,1 0,2 1,3 -2,-5 -5,-10 -6,-12 -3,-4 -5,-8 -7,-13 -3,-8 -6,-17 -7,-24 4,3 8,6 13,10 10,9 16,20 14,34 0,5 0,16 -3,21zm-275 297l0 0c-2,0 -4,0 -6,0 2,0 4,0 5,0 -4,-3 -8,-6 -11,-9 -5,-4 -8,-9 -12,-14 -2,-4 -4,-7 -6,-10 -11,-14 -24,-21 -39,-30l0 0c4,5 6,9 8,14 3,8 4,15 8,22 3,5 7,10 11,14 4,3 8,6 12,7 1,1 2,1 4,2 -8,-3 -15,-6 -19,-8 -6,-3 -13,-6 -21,-8 -12,-4 -27,-7 -38,-8 6,6 11,12 18,18 15,14 32,21 53,17 8,-1 26,-3 33,-7zm-65 -31l0 0c-2,0 -3,-1 -5,-2 2,1 3,2 4,2 -2,-4 -5,-8 -6,-11 -3,-6 -5,-11 -6,-17 0,-4 -1,-8 -2,-11 -4,-15 -14,-26 -23,-38 1,6 2,10 2,15 0,8 -1,15 0,22 0,6 2,11 5,16 3,4 5,7 8,10 0,1 1,1 2,2 -6,-4 -11,-9 -13,-12 -4,-5 -10,-9 -15,-14 -9,-7 -21,-14 -30,-18 3,7 5,14 9,22 9,16 21,27 40,31 7,1 22,5 30,3zm-43 -49l0 0c-1,0 -3,-1 -4,-2 1,1 2,1 4,2 -2,-4 -3,-8 -3,-11 -1,-6 -1,-11 0,-16 0,-3 1,-7 1,-10 0,-14 -5,-25 -9,-38 -1,5 -2,9 -3,13 -2,7 -5,12 -6,18 -1,5 -1,10 0,15 1,4 2,8 4,11 0,1 1,2 1,3 -3,-6 -6,-11 -8,-15 -2,-5 -5,-10 -8,-15 -6,-9 -14,-18 -21,-23 1,6 1,12 2,20 3,17 10,29 25,37 6,3 18,11 25,11zm-23 -53l0 0c-1,-1 -2,-2 -3,-3 1,1 2,2 3,3 0,-4 0,-8 0,-11 1,-5 3,-10 5,-14 1,-3 2,-6 3,-9 5,-12 3,-23 3,-36 -2,5 -4,8 -6,11 -4,5 -8,9 -10,15 -3,4 -4,8 -4,13 -1,4 -1,7 0,10 0,1 0,2 0,3 -1,-6 -2,-11 -3,-15 0,-5 -2,-10 -3,-16 -3,-9 -7,-19 -12,-26 -1,6 -3,11 -4,19 -2,15 1,28 12,39 4,5 13,15 19,17zm-6 -55l0 0c-1,-1 -1,-3 -2,-4 1,1 1,2 2,3 1,-4 2,-7 3,-10 2,-4 4,-8 7,-12 2,-3 4,-5 5,-8 7,-10 8,-22 10,-34 -3,4 -5,7 -8,9 -4,5 -9,8 -13,12 -3,4 -5,8 -6,12 -1,4 -2,7 -2,10 0,1 0,2 0,3 -1,-6 -1,-11 0,-15 0,-5 0,-10 0,-16 -1,-10 -3,-20 -6,-27 -3,5 -5,10 -8,17 -5,14 -5,27 4,40 3,5 9,16 14,20zm4 -58l0 0c0,-1 0,-2 0,-4 0,2 0,3 0,4 2,-3 4,-6 6,-8 2,-4 5,-7 9,-9 2,-2 4,-4 6,-5 8,-8 12,-17 17,-27l0 0c-3,2 -6,4 -8,6 -6,2 -10,4 -15,7 -4,2 -6,5 -9,8 -2,3 -3,6 -4,8 0,1 0,2 -1,3 1,-5 3,-10 4,-13 2,-4 3,-9 4,-14 2,-8 3,-18 3,-25 -4,4 -8,7 -12,13 -7,11 -11,22 -7,35 2,5 4,17 7,21zm20 -51l0 0c0,-1 1,-2 1,-3 0,1 -1,2 -1,3 3,-3 5,-5 7,-7 4,-3 7,-5 11,-7 2,-1 5,-2 7,-4 10,-5 16,-14 22,-23 -4,2 -6,4 -9,4 -6,2 -11,2 -16,4 -4,2 -7,4 -10,7 -3,3 -5,5 -6,7 0,1 -1,2 -1,3 2,-5 4,-10 6,-12 3,-4 5,-8 7,-13 3,-8 6,-17 7,-24 -4,3 -9,6 -13,10 -10,9 -16,20 -15,34 1,5 1,16 3,21z"/>
   <g>
    <path class="fil3" d="M149 119l25 0c-2,-2 -3,-5 -5,-7l4 -3c2,3 4,5 6,8l-4 2 26 0 0 5 -47 0 0 15c0,13 -3,23 -10,31 -1,-1 -2,-3 -4,-4 6,-7 9,-16 9,-28l0 -19z"/>
    <path class="fil3" d="M208 127l5 1c-2,7 -3,12 -5,17 -2,0 -3,-1 -5,-1 2,-5 4,-11 5,-17zm7 -16l0 0 5 0 0 25c0,15 -4,26 -12,34 -1,-1 -2,-3 -3,-4 7,-7 10,-17 10,-32l0 -23zm7 18l0 0 5 -2c2,5 4,10 5,15l-4 2c-2,-5 -4,-10 -6,-15zm13 -17l0 0 5 0 0 56 -5 0 0 -56zm7 17l0 0 4 -2c2,5 4,10 6,15l-4 2c-2,-5 -4,-10 -6,-15zm13 -19l0 0 4 0 0 59 -4 0 0 -59z"/>
    <path class="fil3" d="M267 164l8 0 0 -16 45 0 0 16 7 0 0 4 -60 0 0 -4zm0 -49l0 0 18 0 0 -6 5 0 0 6 15 0 0 -6 4 0 0 6 18 0 0 4 -18 0 0 3 -4 0 0 -3 -15 0 0 3 -5 0 0 -3 -18 0 0 -4zm6 10l0 0 5 0 0 19 -5 0 0 -19zm6 39l0 0 9 0 0 -12 -9 0 0 12zm7 -40l0 0 5 0 0 21 -5 0 0 -21zm7 40l0 0 9 0 0 -12 -9 0 0 12zm0 -22l0 0c4,-5 7,-12 9,-19l4 1c0,2 -1,3 -1,5l21 0 0 4 -23 0c-1,4 -3,8 -6,12 -2,-1 -3,-2 -4,-3zm13 -4l0 0 3 -4c4,3 8,6 11,9l-3 3c-3,-3 -7,-6 -11,-8zm10 14l0 0 -10 0 0 12 10 0 0 -12z"/>
    <path class="fil3" d="M329 165c16,-6 25,-15 27,-27l-26 0 0 -5 27 0c0,-3 0,-8 0,-15l-23 0 0 -4 53 0 0 4 -24 0c0,5 0,10 -1,15l28 0 0 5 -27 0c4,13 13,22 28,26 -2,2 -3,4 -4,5 -14,-5 -23,-14 -27,-26 -3,11 -12,20 -27,27 -1,-1 -2,-3 -4,-5z"/>
    <path class="fil3" d="M394 121l12 0 0 -11 5 0 0 11 13 0 0 4 -13 0 0 22 2 -3c3,3 7,6 11,10l-4 4c-3,-3 -6,-7 -9,-10l0 14c0,5 -2,8 -7,8 -2,0 -5,0 -8,0 0,-2 -1,-4 -1,-6 3,1 5,1 7,1 3,0 4,-2 4,-5l0 -11c-3,3 -7,6 -10,10l-3 -4c4,-4 8,-7 11,-10l2 3 0 -23 -12 0 0 -4zm1 10l0 0 3 -2c3,4 5,7 7,10l-4 3c-2,-4 -4,-7 -6,-11zm24 -2l0 0 4 3c-2,4 -5,7 -7,10l-4 -3c3,-3 5,-7 7,-10zm-6 -15l0 0 3 -3c2,1 5,3 7,5l-3 3c-2,-2 -4,-3 -7,-5zm8 27l0 0c5,-9 8,-19 11,-30l5 1c-1,3 -2,6 -3,10l19 0 0 4 -5 0c-1,12 -3,21 -8,28 3,5 8,9 14,11 -2,2 -3,4 -3,5 -6,-3 -11,-7 -14,-12 -5,5 -10,9 -16,13 -1,-1 -2,-3 -3,-4 6,-4 12,-8 16,-13 -3,-4 -5,-10 -6,-16 -1,1 -2,3 -3,5 -1,-1 -3,-2 -4,-2zm10 -11l0 0c1,8 3,15 6,20 4,-6 6,-14 7,-24l-12 0c0,2 -1,3 -1,4z"/>
    <path class="fil3" d="M456 142c2,-1 5,-2 7,-3l0 -14 -7 0 0 -4 7 0 0 -11 5 0 0 11 7 0 0 4 -7 0 0 12c2,0 4,-1 6,-2 0,0 0,2 0,5 -2,1 -4,2 -6,3l0 20c0,4 -2,6 -5,7 -2,0 -4,0 -6,0 0,-2 0,-4 -1,-5 2,0 4,0 5,0 2,0 2,-1 2,-3l0 -18c-2,1 -4,2 -7,3l0 -5zm20 -5l0 0 9 0c0,-2 0,-4 1,-5l-9 0 0 -4 25 0c2,-3 4,-7 6,-10l4 2c-2,3 -3,5 -5,8l8 0 0 4 -25 0c0,1 0,3 -1,5l27 0 0 4 -28 0c0,1 -1,3 -2,4l24 0 0 4c-2,5 -5,8 -9,12 4,2 10,3 16,4 -1,2 -2,3 -2,5 -8,-1 -14,-3 -19,-6 -4,3 -10,5 -16,6 -1,-1 -2,-2 -3,-4 6,-1 11,-3 15,-5 -3,-3 -6,-6 -8,-10 -2,6 -6,11 -10,16 -1,-1 -2,-2 -4,-3 6,-7 11,-14 13,-23l-7 0 0 -4zm2 -19l0 0c-1,-1 -1,-3 -1,-4 13,0 25,-1 37,-2l1 4c-9,1 -22,2 -37,2zm2 3l0 0 3 -2c2,2 3,4 4,6l-4 2c-1,-2 -2,-4 -3,-6zm25 28l0 0 -17 0c2,4 5,7 8,9 4,-2 7,-5 9,-9zm-13 -30l0 0 4 -1c1,2 2,4 3,7l-4 2c-1,-2 -2,-5 -3,-8z"/>
   </g>
   <g>
    <path class="fil3" d="M153 202l-2 0 -1 -1c0,0 0,0 -1,1 0,0 -1,0 -2,0 -1,0 -2,-1 -4,-2 -1,-1 -1,-3 -1,-6 0,-3 0,-6 1,-7 1,-2 3,-3 5,-3 1,0 2,1 3,2 1,1 2,3 2,4l-3 0c0,-1 0,-2 0,-3 -1,0 -2,-1 -2,-1 -2,0 -2,1 -3,2 0,1 -1,3 -1,6 0,2 1,4 1,5 1,1 2,1 3,1 1,0 1,0 2,-1 0,0 0,-1 0,-3l0 -1 -3 0 0 -2 6 0 0 9z"/>
    <path class="fil3" d="M164 197c0,1 -1,3 -1,4 -1,1 -3,1 -5,1 -1,0 -3,0 -4,-1 0,-1 -1,-3 -1,-4l0 -13 2 0 0 13c0,1 1,2 1,2 1,1 2,1 2,1 1,0 2,0 3,-1 0,0 0,-1 0,-2l0 -13 3 0 0 13z"/>
    <path class="fil3" d="M176 202l-3 0 -1 -5 -5 0 -1 5 -3 0 6 -18 2 0 5 18zm-5 -7l0 0 -1 -7 -1 0 -1 7 3 0z"/>
    <polygon class="fil3" points="186,202 183,202 178,189 178,189 178,202 175,202 175,184 178,184 184,197 184,197 184,184 186,184 "/>
    <path class="fil3" d="M197 202l-2 0 0 -1c0,0 -1,0 -1,1 -1,0 -1,0 -2,0 -2,0 -3,-1 -4,-2 -1,-1 -2,-3 -2,-6 0,-3 1,-6 2,-7 1,-2 2,-3 4,-3 2,0 3,1 4,2 1,1 1,3 1,4l-2 0c0,-1 0,-2 -1,-3 0,0 -1,-1 -2,-1 -1,0 -2,1 -2,2 -1,1 -1,3 -1,6 0,2 0,4 1,5 1,1 1,1 2,1 1,0 2,0 2,-1 1,0 1,-1 1,-3l0 -1 -3 0 0 -2 5 0 0 9z"/>
    <polygon class="fil3" points="208,202 197,202 197,200 206,186 198,186 198,184 208,184 208,186 200,200 208,200 "/>
    <polygon class="fil3" points="219,202 217,202 217,194 211,194 211,202 209,202 209,184 211,184 211,192 217,192 217,184 219,184 "/>
    <path class="fil3" d="M231 193c0,3 -1,6 -2,7 -1,1 -2,2 -4,2 -1,0 -3,-1 -4,-2 -1,-1 -1,-4 -1,-7 0,-3 0,-5 1,-7 1,-1 3,-2 4,-2 2,0 3,1 4,2 1,2 2,4 2,7zm-2 0l0 0c0,-3 -1,-5 -1,-6 -1,0 -2,-1 -3,-1 -1,0 -1,1 -2,1 -1,1 -1,3 -1,6 0,3 0,5 1,6 1,1 1,1 2,1 1,0 2,0 3,-1 0,-1 1,-3 1,-6z"/>
    <path class="fil3" d="M242 197c0,1 -1,3 -1,4 -1,1 -3,1 -5,1 -1,0 -3,0 -4,-1 0,-1 -1,-3 -1,-4l0 -13 2 0 0 13c0,1 1,2 1,2 1,1 2,1 2,1 1,0 2,0 3,-1 0,0 0,-1 0,-2l0 -13 3 0 0 13z"/>
    <path class="fil3" d="M264 197c0,2 0,3 -1,4 -1,1 -3,1 -4,1l-6 0 0 -18 6 0c1,0 3,1 4,2 0,1 1,2 1,3 0,1 0,2 -1,3 -1,0 -1,1 -2,1 1,0 2,0 2,1 1,1 1,2 1,3zm-2 -8l0 0c0,-1 -1,-2 -1,-2 -1,0 -1,-1 -2,-1l-3 0 0 6 3 0c1,0 1,0 2,-1 0,0 1,-1 1,-2zm0 8l0 0c0,-1 0,-2 -1,-3 -1,0 -2,0 -3,0l-2 0 0 6 2 0c1,0 2,0 3,-1 1,0 1,-1 1,-2z"/>
    <polygon class="fil3" points="275,202 265,202 265,184 267,184 267,200 275,200 "/>
    <path class="fil3" d="M286 197c0,1 0,3 -1,4 -1,1 -2,1 -4,1 -2,0 -3,0 -4,-1 -1,-1 -1,-3 -1,-4l0 -13 2 0 0 13c0,1 0,2 1,2 0,1 1,1 2,1 1,0 2,0 2,-1 1,0 1,-1 1,-2l0 -13 2 0 0 13z"/>
    <polygon class="fil3" points="298,202 287,202 287,184 297,184 297,186 290,186 290,192 296,192 296,194 290,194 290,200 298,200 "/>
    <path class="fil3" d="M320 197c0,2 -1,3 -2,4 -1,1 -2,1 -4,1 -1,0 -3,0 -4,-1 -1,-1 -1,-2 -1,-4l0 -1 2 0 0 1c0,1 1,2 1,2 1,1 2,1 2,1 1,0 2,0 3,-1 0,0 1,-1 1,-2 0,0 -1,-1 -1,-2 -1,0 -2,-1 -3,-1 -2,-1 -3,-2 -4,-2 0,-1 -1,-2 -1,-3 0,-1 1,-3 2,-3 1,-1 2,-2 3,-2 2,0 3,1 4,2 1,1 1,2 1,3l-2 0c0,-1 0,-1 -1,-2 0,0 -1,-1 -2,-1 0,0 -1,0 -2,1 0,0 0,1 0,2 0,0 0,1 0,1 1,1 2,1 3,2 2,1 3,1 4,2 0,1 1,2 1,3z"/>
    <polygon class="fil3" points="332,202 329,202 324,193 323,195 323,202 320,202 320,184 323,184 323,192 328,184 331,184 326,191 "/>
    <polygon class="fil3" points="343,184 338,194 338,202 336,202 336,194 331,184 333,184 337,192 337,192 340,184 "/>
    <path class="fil3" d="M364 197c0,2 0,3 -1,4 -1,1 -2,1 -4,1 -2,0 -3,0 -4,-1 -1,-1 -1,-2 -1,-4l0 -1 2 0 0 1c0,1 0,2 1,2 0,1 1,1 2,1 1,0 2,0 2,-1 1,0 1,-1 1,-2 0,0 0,-1 -1,-2 0,0 -1,-1 -2,-1 -2,-1 -3,-2 -4,-2 -1,-1 -1,-2 -1,-3 0,-1 0,-3 1,-3 1,-1 3,-2 4,-2 2,0 3,1 4,2 1,1 1,2 1,3l-2 0c0,-1 -1,-1 -1,-2 0,0 -1,-1 -2,-1 -1,0 -2,0 -2,1 0,0 -1,1 -1,2 0,0 0,1 1,1 0,1 1,1 3,2 1,1 2,1 3,2 1,1 1,2 1,3z"/>
    <polygon class="fil3" points="376,202 365,202 365,184 375,184 375,186 368,186 368,192 374,192 374,194 368,194 368,200 376,200 "/>
    <path class="fil3" d="M387 202l-2 0 -1 -5 -5 0 -1 5 -3 0 5 -18 2 0 5 18zm-4 -7l0 0 -2 -7 0 0 -1 7 3 0z"/>
    <path class="fil3" d="M398 202l-2 0 -4 -8 -3 0 0 8 -2 0 0 -18 5 0c2,0 3,1 4,2 1,0 2,2 2,3 0,2 -1,3 -1,4 -1,0 -2,1 -3,1l4 8zm-3 -13l0 0c0,-1 0,-1 0,-2 -1,0 -2,-1 -3,-1l-3 0 0 6 3 0c1,0 2,0 3,0 0,-1 0,-1 0,-3z"/>
    <path class="fil3" d="M409 195c0,3 0,4 -1,6 -1,1 -3,1 -4,1 -2,0 -3,-1 -4,-2 -1,-1 -2,-3 -2,-6 0,-3 1,-6 2,-7 1,-2 2,-3 4,-3 2,0 3,1 4,2 1,1 1,3 1,5l-2 0c0,-2 0,-3 -1,-4 0,0 -1,-1 -2,-1 -1,0 -2,1 -2,2 -1,1 -1,3 -1,6 0,2 0,4 1,5 0,1 1,1 2,1 1,0 1,0 2,-1 1,-1 1,-2 1,-4l2 0z"/>
    <polygon class="fil3" points="420,202 418,202 418,194 412,194 412,202 409,202 409,184 412,184 412,192 418,192 418,184 420,184 "/>
    <path class="fil3" d="M443 200l-1 2c0,0 -1,-1 -1,-1 0,0 -1,0 -1,-1 0,1 -1,1 -2,2 0,0 -1,0 -2,0 -1,0 -2,0 -3,-1 -1,-1 -2,-2 -2,-4 0,-1 0,-2 1,-3 1,0 1,-1 2,-2 0,0 0,-1 -1,-2 0,-1 0,-1 0,-2 0,-1 0,-2 1,-3 1,0 2,-1 3,-1 1,0 1,0 2,1 1,1 1,1 1,3 0,1 0,2 -1,3 -1,1 -2,1 -3,2 1,1 1,1 2,2 0,1 1,1 2,2 0,0 0,-1 0,-1 0,-1 0,-1 0,-2l2 0c0,1 0,2 0,3 0,0 0,1 -1,2 0,0 1,0 1,0 1,1 1,1 1,1zm-4 -1l0 0c-1,-1 -2,-2 -3,-3 0,0 -1,-1 -1,-2 -1,0 -1,1 -1,1 -1,1 -1,1 -1,2 0,1 1,2 1,3 1,0 2,0 2,0 1,0 1,0 2,0 0,0 0,-1 1,-1zm-1 -11l0 0c0,-1 0,-1 0,-2 -1,0 -1,0 -1,0 -1,0 -1,0 -1,1 -1,0 -1,0 -1,1 0,0 0,1 0,1 0,1 0,2 1,2 0,0 1,-1 1,-1 1,-1 1,-1 1,-2z"/>
    <path class="fil3" d="M465 202l-2 0 -4 -8 -3 0 0 8 -2 0 0 -18 5 0c2,0 3,1 4,2 1,0 2,2 2,3 0,2 -1,3 -1,4 -1,0 -2,1 -3,1l4 8zm-3 -13l0 0c0,-1 0,-1 -1,-2 0,0 -1,-1 -2,-1l-3 0 0 6 3 0c1,0 2,0 2,0 1,-1 1,-1 1,-3z"/>
    <polygon class="fil3" points="476,202 465,202 465,184 475,184 475,186 468,186 468,192 475,192 475,194 468,194 468,200 476,200 "/>
    <path class="fil3" d="M487 197c0,2 0,3 -1,4 -1,1 -3,1 -4,1 -2,0 -4,0 -4,-1 -1,-1 -2,-2 -2,-4l0 -1 2 0 0 1c0,1 1,2 1,2 1,1 2,1 3,1 1,0 1,0 2,-1 0,0 1,-1 1,-2 0,0 -1,-1 -1,-2 -1,0 -2,-1 -3,-1 -2,-1 -3,-2 -3,-2 -1,-1 -2,-2 -2,-3 0,-1 1,-3 2,-3 1,-1 2,-2 4,-2 1,0 3,1 3,2 1,1 2,2 2,3l-3 0c0,-1 0,-1 0,-2 -1,0 -2,-1 -2,-1 -1,0 -2,0 -2,1 -1,0 -1,1 -1,2 0,0 0,1 0,1 1,1 2,1 3,2 2,1 3,1 4,2 1,1 1,2 1,3z"/>
    <path class="fil3" d="M499 195c-1,3 -1,4 -2,6 -1,1 -2,1 -4,1 -1,0 -3,-1 -4,-2 -1,-1 -2,-3 -2,-6 0,-3 1,-6 2,-7 1,-2 3,-3 4,-3 2,0 3,1 4,2 1,1 1,3 1,5l-2 0c0,-2 0,-3 -1,-4 0,0 -1,-1 -2,-1 -1,0 -2,1 -2,2 -1,1 -1,3 -1,6 0,2 0,4 1,5 0,1 1,1 2,1 1,0 2,0 2,-1 1,-1 1,-2 1,-4l3 0z"/>
    <path class="fil3" d="M509 197c0,1 0,3 -1,4 -1,1 -2,1 -4,1 -2,0 -3,0 -4,-1 -1,-1 -1,-3 -1,-4l0 -13 2 0 0 13c0,1 0,2 1,2 0,1 1,1 2,1 1,0 2,0 2,-1 1,0 1,-1 1,-2l0 -13 2 0 0 13z"/>
    <polygon class="fil3" points="520,202 510,202 510,184 520,184 520,186 512,186 512,192 519,192 519,194 512,194 512,200 520,200 "/>
   </g>
  </g>
 </g>
</svg>
