<?xml version="1.0" encoding="utf-8"?>
<!-- Generator: Adobe Illustrator 26.1.0, SVG Export Plug-In . SVG Version: 6.00 Build 0)  -->
<svg version="1.1" xmlns="http://www.w3.org/2000/svg" xmlns:xlink="http://www.w3.org/1999/xlink" x="0px" y="0px"
	 viewBox="0 0 256 256" style="enable-background:new 0 0 256 256;" xml:space="preserve">
<g id="图层_1">
	<g>
		<path d="M128,1C57.9,1,1,57.9,1,128c0,25.2,7.3,48.7,20,68.4c5,7.8,10.9,15.1,17.5,21.6c7.6,7.5,16.1,14.1,25.3,19.5
			c9.2,5.4,19.1,9.7,29.5,12.6c11,3.1,22.6,4.8,34.7,4.8s23.6-1.7,34.7-4.8c10.5-3,20.4-7.2,29.5-12.6c9.3-5.4,17.8-12,25.3-19.5
			c6.6-6.5,12.4-13.8,17.5-21.6c12.7-19.8,20-43.2,20-68.4C255,57.9,198.1,1,128,1z M161.4,234.9c-10.5,3.3-21.8,5.1-33.4,5.1
			s-22.8-1.8-33.4-5.1c-13.6-4.2-26.1-11-36.9-19.7c-4.6-3.7-8.8-7.7-12.8-12c-5.2-5.7-9.8-12-13.7-18.7c-3.6-6.1-6.6-12.6-9-19.3
			C18.2,153.5,16,141,16,128C16,66.1,66.1,16,128,16s112,50.1,112,112c0,13-2.2,25.5-6.3,37.1c-2.4,6.8-5.4,13.2-9,19.3
			c-3.9,6.7-8.5,13-13.7,18.7c-3.9,4.3-8.2,8.4-12.8,12C187.5,223.9,175,230.7,161.4,234.9z" fill="param(fill)" fill-opacity="param(fill-opacity)" stroke="param(outline)" stroke-opacity="param(outline-opacity)" stroke-width="param(outline-width)"/>
	</g>
</g>
<g id="图层_2">
	<path d="M214.5,182.6c1.4,3.4,2,6.7,2,9.8c0,2.8-0.7,5.5-2,7.9c-1.3,2.2-3.1,4-5.5,5.3c-2.5,1.4-5.3,2-8.2,2H55.9
		c-3.4,0-6.1-0.8-8.3-2.5c-2.2-1.6-3.8-3.8-4.8-6.3c-1-2.8-1.5-5.7-1.3-8.6c0.1-3.2,0.8-6.5,2-9.7c1.7-4.5,3.6-9.2,5.7-14.3
		l6.2-15.5l6.3-15.8c2.1-5.3,4.2-10.3,6.1-15.1c4.6-11.3,9.2-22.7,14-34.1l23.7,61.5l46.6-114.5c8.1,19,16.1,38,24,57
		c3.4,7.9,6.8,16.1,10.2,24.6c3.5,8.5,6.9,16.8,10.3,24.9C202.8,153.5,208.8,168,214.5,182.6L214.5,182.6z" fill="param(fill)" fill-opacity="param(fill-opacity)" stroke="param(outline)" stroke-opacity="param(outline-opacity)" stroke-width="param(outline-width)"/>
</g>
</svg>
