<?xml version="1.0" encoding="UTF-8"?>
<!DOCTYPE svg PUBLIC "-//W3C//DTD SVG 1.1//EN" "http://www.w3.org/Graphics/SVG/1.1/DTD/svg11.dtd">
<!-- Creator: CorelDRAW X8 -->
<svg xmlns="http://www.w3.org/2000/svg" xml:space="preserve" width="256px" height="256px" version="1.1" style="shape-rendering:geometricPrecision; text-rendering:geometricPrecision; image-rendering:optimizeQuality; fill-rule:evenodd; clip-rule:evenodd"
viewBox="0 0 256 256"
 xmlns:xlink="http://www.w3.org/1999/xlink">
 <defs>
  <style type="text/css">
   <![CDATA[
    .fil1 {fill:#FEFEFE}
    .fil0 {fill:#E62129}
    .fil3 {fill:#CD4A36}
    .fil2 {fill:#C9412E}
   ]]>
  </style>
 </defs>
 <g id="图层_x0020_1">
  <metadata id="CorelCorpID_0Corel-Layer"/>
  <path class="fil0" d="M169 123c0,0 0,1 0,1l0 30c0,4 -4,8 -8,8l-65 0c-5,0 -8,-4 -8,-8l0 -30c0,0 0,-1 0,-1l81 0z"/>
  <polygon class="fil1" points="122,129 134,129 134,137 142,137 142,149 134,149 134,156 122,156 122,149 115,149 115,137 122,137 "/>
  <path class="fil2" d="M89 106l78 0c3,0 5,2 5,5l0 10 -88 0 0 -10c0,-3 2,-5 5,-5z"/>
  <path class="fil3" d="M111 94l32 0c4,0 7,3 7,7l0 5 -45 0 0 -5c0,-4 3,-7 6,-7zm3 4l26 0c3,0 5,2 5,4l0 4 -36 0 0 -4c0,-2 2,-4 5,-4z"/>
 </g>
</svg>
