<?xml version="1.0" encoding="utf-8"?>
<!-- Generator: Adobe Illustrator 26.1.0, SVG Export Plug-In . SVG Version: 6.00 Build 0)  -->
<svg version="1.1" id="图层_1" xmlns="http://www.w3.org/2000/svg" xmlns:xlink="http://www.w3.org/1999/xlink" x="0px" y="0px"
	 viewBox="0 0 305 60" style="enable-background:new 0 0 305 60;" xml:space="preserve">
<style type="text/css">
	.st0{fill-rule:evenodd;clip-rule:evenodd;fill:#342B28;}
	.st1{fill-rule:evenodd;clip-rule:evenodd;fill:#127CBE;}
	.st2{fill-rule:evenodd;clip-rule:evenodd;fill:#FFFFFF;}
	.st3{fill-rule:evenodd;clip-rule:evenodd;fill:#CC282B;}
	.st4{fill:#232222;}
	.st5{fill:#157DBD;}
	.st6{fill:#342C2B;}
	.st7{fill:#FFFFFF;}
	.st8{fill:none;stroke:#342C2B;stroke-width:0.9105;stroke-miterlimit:10;}
</style>
<g id="图层_x0020_1">
	<g id="_1959947165808">
		<path class="st0" d="M29.9,1.2c15.9,0,28.8,12.9,28.8,28.8c0,15.9-12.9,28.8-28.8,28.8C14,58.8,1.2,45.9,1.2,30
			C1.2,14.1,14,1.2,29.9,1.2L29.9,1.2z"/>
		<path class="st1" d="M29.9,9.2c11.5,0,20.8,9.3,20.8,20.8s-9.3,20.8-20.8,20.8C18.4,50.8,9.1,41.5,9.1,30
			C9.1,18.5,18.4,9.2,29.9,9.2L29.9,9.2z"/>
		<path class="st2" d="M15.1,21.9c0-0.1,0-0.2,0-0.3C15.1,21.7,15.1,21.8,15.1,21.9c0.2-0.2,0.3-0.4,0.5-0.5
			c0.3-0.2,0.5-0.4,0.8-0.5c0.2-0.1,0.4-0.2,0.6-0.3c0.7-0.4,1.2-1.1,1.7-1.8c-0.3,0.2-0.5,0.2-0.7,0.3c-0.4,0.1-0.8,0.2-1.2,0.3
			c-0.3,0.1-0.6,0.3-0.8,0.5c-0.2,0.2-0.3,0.4-0.5,0.6c0,0-0.1,0.1-0.1,0.2c0.2-0.4,0.3-0.7,0.5-0.9c0.2-0.3,0.4-0.6,0.5-1
			c0.3-0.6,0.5-1.3,0.5-1.9c-0.3,0.2-0.6,0.5-1,0.8c-0.8,0.7-1.2,1.5-1.1,2.6C14.9,20.6,14.9,21.5,15.1,21.9L15.1,21.9z M13.6,25.8
			c0-0.1,0-0.2,0-0.3C13.6,25.6,13.6,25.7,13.6,25.8c0.1-0.3,0.3-0.5,0.4-0.6c0.2-0.3,0.4-0.5,0.7-0.7c0.2-0.1,0.3-0.3,0.5-0.4
			c0.6-0.6,0.9-1.3,1.3-2.1l0,0c-0.3,0.2-0.4,0.3-0.7,0.5c-0.4,0.2-0.8,0.3-1.1,0.5c-0.3,0.2-0.5,0.4-0.7,0.6
			c-0.2,0.2-0.3,0.4-0.3,0.6c0,0.1,0,0.1-0.1,0.2c0.1-0.4,0.2-0.8,0.3-1c0.2-0.3,0.2-0.7,0.3-1.1c0.1-0.7,0.2-1.4,0.2-1.9
			c-0.3,0.3-0.5,0.6-0.8,1c-0.6,0.9-0.9,1.7-0.6,2.7C13.1,24.6,13.3,25.4,13.6,25.8L13.6,25.8z M13.3,30.2c0-0.1-0.1-0.2-0.1-0.3
			C13.2,30,13.2,30.1,13.3,30.2c0.1-0.3,0.1-0.6,0.2-0.8c0.1-0.4,0.3-0.6,0.5-0.9c0.2-0.2,0.3-0.4,0.4-0.6c0.5-0.8,0.6-1.7,0.7-2.6
			c-0.2,0.3-0.4,0.5-0.6,0.7c-0.4,0.4-0.7,0.6-1,0.9c-0.2,0.3-0.4,0.6-0.5,0.9c-0.1,0.3-0.1,0.5-0.2,0.8c0,0.1,0,0.1,0,0.2
			c0-0.4,0-0.9,0-1.1c0.1-0.4,0-0.8,0-1.2c-0.1-0.7-0.2-1.5-0.4-2.1c-0.2,0.4-0.4,0.8-0.6,1.3c-0.4,1.1-0.4,2.1,0.3,3.1
			C12.4,29,12.9,29.9,13.3,30.2L13.3,30.2z M13.7,34.4c-0.1-0.1-0.1-0.2-0.2-0.3C13.6,34.2,13.6,34.3,13.7,34.4c0-0.3,0-0.6,0.1-0.8
			c0.1-0.4,0.2-0.7,0.3-1c0.1-0.2,0.2-0.5,0.3-0.7c0.3-0.9,0.2-1.8,0.2-2.8c-0.1,0.3-0.3,0.6-0.4,0.8c-0.3,0.4-0.6,0.7-0.8,1.1
			c-0.2,0.3-0.3,0.7-0.3,1c0,0.3,0,0.6,0,0.8c0,0.1,0,0.1,0,0.2c-0.1-0.4-0.2-0.9-0.2-1.1c0-0.4-0.1-0.8-0.3-1.2
			c-0.2-0.7-0.5-1.5-0.9-2c-0.1,0.4-0.2,0.9-0.3,1.4c-0.1,1.2,0.1,2.2,0.9,3C12.6,33.4,13.3,34.2,13.7,34.4L13.7,34.4z M15.4,38.5
			c-0.1-0.1-0.2-0.1-0.3-0.2C15.3,38.3,15.3,38.4,15.4,38.5c-0.1-0.3-0.2-0.6-0.2-0.9c-0.1-0.4,0-0.8,0-1.2c0-0.3,0.1-0.5,0.1-0.8
			c0-1.1-0.3-1.9-0.7-2.9c0,0.4-0.1,0.7-0.2,1c-0.2,0.5-0.4,0.9-0.5,1.4c-0.1,0.4-0.1,0.8,0,1.1c0.1,0.3,0.2,0.6,0.3,0.8
			c0,0.1,0.1,0.1,0.1,0.2c-0.3-0.4-0.5-0.8-0.6-1.1c-0.2-0.4-0.4-0.8-0.7-1.2c-0.5-0.7-1-1.4-1.5-1.8c0,0.5,0,1,0.1,1.6
			c0.2,1.3,0.8,2.2,1.9,2.8C14,37.8,14.9,38.4,15.4,38.5L15.4,38.5z M18.7,42.2c-0.1,0-0.2-0.1-0.3-0.1
			C18.5,42.1,18.6,42.1,18.7,42.2c-0.2-0.3-0.4-0.6-0.5-0.9c-0.2-0.4-0.3-0.8-0.4-1.3c-0.1-0.3-0.1-0.6-0.2-0.8
			c-0.3-1.1-1-2-1.8-2.9c0.1,0.4,0.1,0.7,0.2,1.1c0,0.6-0.1,1.1,0,1.7c0,0.4,0.2,0.8,0.4,1.2c0.2,0.3,0.4,0.6,0.6,0.8
			c0.1,0.1,0.1,0.1,0.2,0.2c-0.4-0.3-0.8-0.7-1-0.9c-0.3-0.4-0.7-0.7-1.1-1c-0.7-0.6-1.6-1.1-2.3-1.4c0.2,0.5,0.4,1,0.7,1.6
			c0.7,1.3,1.6,2.1,3,2.4C17,42,18.2,42.3,18.7,42.2L18.7,42.2z M23.7,44.6c-0.1,0-0.3,0-0.4,0C23.4,44.6,23.5,44.6,23.7,44.6
			c-0.4-0.2-0.6-0.5-0.9-0.7c-0.4-0.4-0.6-0.7-0.9-1.1c-0.2-0.3-0.3-0.5-0.5-0.8c-0.8-1-1.8-1.6-2.9-2.2v0c0.3,0.4,0.4,0.7,0.6,1
			c0.2,0.6,0.3,1.2,0.6,1.7c0.2,0.4,0.5,0.8,0.9,1.1c0.3,0.3,0.6,0.5,0.9,0.6c0.1,0,0.2,0.1,0.3,0.1c-0.6-0.2-1.1-0.4-1.4-0.6
			c-0.5-0.3-1-0.5-1.6-0.6c-1-0.3-2.1-0.5-2.9-0.6c0.4,0.4,0.8,0.9,1.3,1.4c1.2,1,2.4,1.6,4.1,1.3C21.8,45,23.2,44.9,23.7,44.6z
			 M44.7,21.9c0-0.1,0-0.2,0-0.3C44.7,21.7,44.7,21.8,44.7,21.9c-0.2-0.2-0.3-0.4-0.5-0.5c-0.3-0.2-0.5-0.4-0.8-0.5
			c-0.2-0.1-0.4-0.2-0.6-0.3c-0.7-0.4-1.2-1.1-1.7-1.8c0.3,0.2,0.5,0.2,0.7,0.3c0.4,0.1,0.8,0.2,1.2,0.3c0.3,0.1,0.6,0.3,0.8,0.5
			c0.2,0.2,0.3,0.4,0.5,0.6c0,0,0.1,0.1,0.1,0.2c-0.2-0.4-0.3-0.7-0.5-0.9c-0.2-0.3-0.4-0.6-0.5-1c-0.3-0.6-0.5-1.3-0.5-1.9
			c0.3,0.2,0.6,0.5,1,0.8c0.8,0.7,1.2,1.5,1.1,2.6C44.9,20.6,44.9,21.5,44.7,21.9L44.7,21.9z M46.3,25.8c0-0.1,0-0.2,0-0.3
			C46.3,25.6,46.3,25.7,46.3,25.8c-0.1-0.3-0.3-0.5-0.4-0.6c-0.2-0.3-0.4-0.5-0.7-0.7c-0.2-0.1-0.3-0.3-0.5-0.4
			c-0.6-0.6-0.9-1.3-1.3-2.1l0,0c0.3,0.2,0.4,0.3,0.7,0.5c0.4,0.2,0.8,0.3,1.1,0.5c0.3,0.2,0.5,0.4,0.7,0.6c0.2,0.2,0.3,0.4,0.3,0.6
			c0,0.1,0,0.1,0.1,0.2c-0.1-0.4-0.2-0.8-0.3-1c-0.2-0.3-0.2-0.7-0.3-1.1c-0.1-0.7-0.2-1.4-0.2-1.9c0.3,0.3,0.5,0.6,0.8,1
			c0.6,0.9,0.9,1.7,0.6,2.7C46.7,24.6,46.5,25.4,46.3,25.8L46.3,25.8z M46.6,30.2c0-0.1,0.1-0.2,0.1-0.3
			C46.7,30,46.6,30.1,46.6,30.2c-0.1-0.3-0.1-0.6-0.2-0.8c-0.1-0.4-0.3-0.6-0.5-0.9c-0.2-0.2-0.3-0.4-0.4-0.6
			c-0.5-0.8-0.6-1.7-0.7-2.6c0.2,0.3,0.4,0.5,0.6,0.7c0.4,0.4,0.7,0.6,1,0.9c0.2,0.3,0.4,0.6,0.5,0.9c0.1,0.3,0.1,0.5,0.2,0.8
			c0,0.1,0,0.1,0,0.2c0-0.4,0-0.9,0-1.1c-0.1-0.4,0-0.8,0-1.2c0.1-0.7,0.2-1.5,0.4-2.1c0.2,0.4,0.4,0.8,0.6,1.3
			c0.4,1.1,0.4,2.1-0.3,3.1C47.4,29,47,29.9,46.6,30.2L46.6,30.2z M46.2,34.4c0.1-0.1,0.1-0.2,0.2-0.3
			C46.3,34.2,46.2,34.3,46.2,34.4c0-0.3,0-0.6-0.1-0.8c-0.1-0.4-0.2-0.7-0.3-1c-0.1-0.2-0.2-0.5-0.3-0.7c-0.3-0.9-0.2-1.8-0.2-2.8
			c0.1,0.3,0.3,0.6,0.4,0.8c0.3,0.4,0.6,0.7,0.8,1.1c0.2,0.3,0.3,0.7,0.3,1c0,0.3,0,0.6,0,0.8c0,0.1,0,0.1,0,0.2
			c0.1-0.4,0.2-0.9,0.2-1.1c0-0.4,0.1-0.8,0.3-1.2c0.2-0.7,0.5-1.5,0.9-2c0.1,0.4,0.2,0.9,0.3,1.4c0.1,1.2-0.1,2.2-0.9,3
			C47.3,33.4,46.6,34.2,46.2,34.4L46.2,34.4z M44.4,38.5c0.1-0.1,0.2-0.1,0.3-0.2C44.6,38.3,44.5,38.4,44.4,38.5
			c0.1-0.3,0.2-0.6,0.2-0.9c0.1-0.4,0-0.8,0-1.2c0-0.3-0.1-0.5-0.1-0.8c0-1.1,0.3-1.9,0.7-2.9c0,0.4,0.1,0.7,0.2,1
			c0.2,0.5,0.4,0.9,0.5,1.4c0.1,0.4,0.1,0.8,0,1.1c-0.1,0.3-0.2,0.6-0.3,0.8c0,0.1-0.1,0.1-0.1,0.2c0.3-0.4,0.5-0.8,0.6-1.1
			c0.2-0.4,0.4-0.8,0.7-1.2c0.5-0.7,1-1.4,1.5-1.8c0,0.5,0,1-0.1,1.6C48,36,47.4,37,46.3,37.6C45.8,37.8,44.9,38.4,44.4,38.5
			L44.4,38.5z M41.1,42.2c0.1,0,0.2-0.1,0.3-0.1C41.4,42.1,41.3,42.1,41.1,42.2c0.2-0.3,0.4-0.6,0.5-0.9c0.2-0.4,0.3-0.8,0.4-1.3
			c0.1-0.3,0.1-0.6,0.2-0.8c0.3-1.1,1-2,1.8-2.9c-0.1,0.4-0.1,0.7-0.2,1.1c0,0.6,0.1,1.1,0,1.7c-0.1,0.4-0.2,0.8-0.4,1.2
			c-0.2,0.3-0.4,0.6-0.6,0.8c-0.1,0.1-0.1,0.1-0.2,0.2c0.4-0.3,0.8-0.7,1-0.9c0.3-0.4,0.7-0.7,1.1-1c0.7-0.6,1.6-1.1,2.3-1.4
			c-0.2,0.5-0.4,1-0.7,1.6c-0.7,1.3-1.6,2.1-3,2.4C42.9,42,41.7,42.3,41.1,42.2L41.1,42.2z M36.2,44.6c0.1,0,0.3,0,0.4,0
			C36.4,44.6,36.3,44.6,36.2,44.6c0.4-0.2,0.6-0.5,0.9-0.7c0.4-0.4,0.6-0.7,0.9-1.1c0.2-0.3,0.3-0.5,0.5-0.8c0.8-1,1.8-1.6,2.9-2.2
			l0,0c-0.3,0.4-0.4,0.7-0.6,1c-0.2,0.6-0.3,1.2-0.6,1.7c-0.2,0.4-0.5,0.8-0.9,1.1c-0.3,0.3-0.6,0.5-0.9,0.6c-0.1,0-0.2,0.1-0.3,0.1
			c0.6-0.2,1.1-0.4,1.4-0.6c0.5-0.3,1-0.5,1.6-0.6c1-0.3,2.1-0.5,2.9-0.6c-0.4,0.4-0.8,0.9-1.3,1.4c-1.2,1-2.4,1.6-4.1,1.3
			C38,45,36.7,44.9,36.2,44.6L36.2,44.6z M42.7,18.4c-1.4-1-2.8-2.5-5.2-3.6C39.3,14.9,42.1,16.2,42.7,18.4z M17.1,18.4
			c1.4-1,2.8-2.5,5.2-3.6C20.5,14.9,17.8,16.2,17.1,18.4z"/>
		<polygon class="st3" points="38.8,20.8 42.3,26.9 36.9,30 42.3,33.1 38.8,39.2 33.4,36.1 33.4,42.3 26.4,42.3 26.4,36.1 21,39.2 
			17.5,33.1 22.9,30 17.5,26.9 21,20.8 26.4,23.9 26.4,17.7 33.4,17.7 33.4,23.9 		"/>
		<path class="st2" d="M29,37.6c0-0.1,1.1-0.2,1.2-0.8c0.2-1.2-1.5-0.6-1.5-1.9c0-1,1.6-1.2,1.6-1.8c0-0.9-2-0.5-2.1-2.1
			c-0.1-1.5,2.2-1.8,2.2-2.7c0-1.8-3-0.9-2.8-3.3c0.1-0.7,0.5-1.7,2.9-1.6c0.2,0,0.8,0,0.9,0c0.2,0.1,0.6,0.3,1,0.7
			c0,0-0.1,0.4-0.3,0.4c-0.8,0-1.2,0-1.7-0.5c-0.2-0.2-1.8-0.1-1.9,1c-0.1,1.3,2.9,0.9,2.9,2.9c0.1,2.2-2.4,1.8-2.4,3
			c0,1.1,1.9,0.7,1.9,2.1c0,1.4-1.8,1-1.8,2c0,0.8,1.3,0.6,1.3,1.6C30.4,37.5,29,37.7,29,37.6z"/>
		<path class="st2" d="M29.6,21.3c0.4,0,0.8,0.4,0.8,0.8c0,0.3-0.2,0.6-0.4,0.7c-0.1,5.3,0,16-0.3,16c-0.3,0-0.2-10.6-0.4-16
			c-0.3-0.1-0.5-0.4-0.5-0.7C28.8,21.6,29.2,21.3,29.6,21.3z"/>
		<path class="st3" d="M31.6,23.9c0,0-0.2,0-0.3,0c-0.1,0-0.1-0.2-0.1-0.2c0,0,0.2,0,0.3,0.1C31.6,23.8,31.6,23.9,31.6,23.9z"/>
		<path class="st2" d="M11.5,10.4c0.1-0.1,0.1-0.3,0.2-0.4c0.2,0.1,0.5,0.2,0.9,0.3c-0.1,0.1-0.1,0.3-0.2,0.5
			C12,10.6,11.7,10.5,11.5,10.4L11.5,10.4z M14.3,9.4c-0.2,0.2-0.4,0.4-0.6,0.6l-2.2,2.2c0.7,0.7,1.2,1.2,1.4,1.5
			c0.2,0.3,0.4,0.6,0.5,0.8c0.1,0.3,0.2,0.5,0.3,0.9c-0.2,0-0.4,0-0.6,0.1c0-0.3-0.1-0.5-0.2-0.8c-0.1-0.3-0.4-0.7-0.7-1.1
			c-0.4-0.4-0.8-0.8-1.3-1.3l2.6-2.5c0.2-0.2,0.4-0.4,0.6-0.6L14.3,9.4L14.3,9.4z"/>
		<path class="st2" d="M19,8.2c-0.1,0.1-0.1,0.2-0.2,0.3c-0.3-0.2-0.6-0.5-1.1-0.8c0.1-0.1,0.1-0.2,0.2-0.3C18.4,7.8,18.8,8,19,8.2
			L19,8.2z M20.2,9.2c0.1,0.1,0.2,0.3,0.4,0.6L20.2,10c-0.1-0.2-0.2-0.4-0.3-0.6l-1.8-2.9c-0.1-0.2-0.2-0.4-0.4-0.6l0.4-0.2
			c0.2,0.3,0.3,0.6,0.4,0.7L20.2,9.2z M17.2,7.3l1.5,2.5c0.1,0.2,0.3,0.4,0.4,0.7l-0.4,0.2c-0.2-0.3-0.3-0.5-0.4-0.7l-1.5-2.5
			c-0.1-0.2-0.2-0.4-0.4-0.6l0.4-0.2C17,6.9,17.1,7.1,17.2,7.3L17.2,7.3z M17.7,9.1c-0.1,0.1-0.2,0.2-0.3,0.3
			c-0.3-0.3-0.6-0.6-1-0.9c0-0.1,0.1-0.2,0.2-0.3C17,8.6,17.4,8.8,17.7,9.1z M15.5,9.8c-0.1-0.2-0.2-0.5-0.3-0.7
			c0.2-0.1,0.3-0.2,0.4-0.2c0,0.1,0.1,0.3,0.2,0.5c0.1,0.3,0.2,0.6,0.4,0.9c-0.1,0-0.3,0.1-0.4,0.2C15.7,10.3,15.6,10,15.5,9.8
			L15.5,9.8z M15.9,8l0.8,1.3c0.2,0.4,0.4,0.8,0.5,1.2c0.1,0.4,0.1,0.9,0.1,1.4c-0.2,0-0.3,0-0.5,0.1c0.1-0.2,0.1-0.6,0.1-1
			c0-0.4-0.2-0.9-0.5-1.4l-0.9-1.4c-0.1-0.2-0.3-0.4-0.5-0.7l0.4-0.2C15.6,7.5,15.8,7.8,15.9,8L15.9,8z"/>
		<path class="st2" d="M24.4,8l-0.3-0.9l-0.7,0.2l0.3,0.9L24.4,8L24.4,8z M23.8,6.1c0.1,0.1,0.2,0.1,0.3,0.2
			c-0.1,0.1-0.2,0.2-0.3,0.3c-0.1-0.1-0.3-0.2-0.3-0.2c-0.1-0.1-0.2-0.1-0.4-0.2c0.1-0.1,0.2-0.2,0.3-0.3C23.6,6,23.7,6.1,23.8,6.1z
			 M23.3,8.4L23,7.5l-0.7,0.2l0.3,0.9L23.3,8.4L23.3,8.4z M22.8,5.6l0.7-0.2c0.3-0.1,0.5-0.2,0.8-0.3l0.1,0.4
			c-0.3,0.1-0.5,0.2-0.8,0.3L22.8,6c0,0.2-0.1,0.3-0.1,0.4c0,0.1-0.1,0.3-0.1,0.5c-0.1-0.1-0.3-0.1-0.4-0.1c0.1-0.3,0.2-0.6,0.2-0.9
			c0-0.3,0.1-0.6,0-0.8c0.1,0,0.3,0,0.6,0C22.9,5.3,22.8,5.5,22.8,5.6L22.8,5.6z M22.3,8.7L22,7.9l-0.7,0.2L21.6,9L22.3,8.7z
			 M21.9,6.8c0,0.1,0.1,0.3,0.2,0.4l-0.4,0.1c0-0.1-0.1-0.3-0.1-0.5l-0.2-0.7c-0.1-0.2-0.1-0.3-0.2-0.5l0.4-0.1
			c0,0.2,0.1,0.3,0.1,0.5L21.9,6.8z M24.7,7.3l0.2,0.5c0.2-0.1,0.4-0.2,0.6-0.2L25.6,8c-0.3,0.1-0.6,0.2-0.9,0.3l-3.2,1.1
			c-0.3,0.1-0.6,0.2-0.8,0.3l-0.1-0.4c0.2-0.1,0.4-0.1,0.7-0.2L21,8.6c-0.1-0.2-0.1-0.4-0.2-0.6l3.7-1.3C24.5,6.9,24.6,7.1,24.7,7.3
			L24.7,7.3z M20.9,7.1c0.1,0.2,0.1,0.3,0.2,0.5l-0.4,0.1c0-0.2-0.1-0.3-0.1-0.5l-0.2-0.6c0-0.1-0.1-0.3-0.1-0.4l0.4-0.1
			c0,0.1,0.1,0.3,0.1,0.4L20.9,7.1L20.9,7.1z M21,4.2c0,0.1,0,0.2,0.1,0.3l0.1,0.2l1-0.4l0-0.1C22,4.1,22,4,21.9,3.9l0.5-0.2
			c0,0.1,0,0.3,0.1,0.4l0,0.1l0.9-0.3c0.2-0.1,0.4-0.2,0.6-0.2l0.1,0.4c-0.2,0-0.5,0.1-0.7,0.2l-0.9,0.3l0,0.1
			c0,0.1,0.1,0.2,0.1,0.3l-0.4,0.1c0-0.1,0-0.2-0.1-0.3l0-0.1l-1,0.4l0,0.1c0,0.1,0.1,0.2,0.1,0.3l-0.4,0.1c0-0.1,0-0.2-0.1-0.3
			l0-0.1L20,5.5c-0.2,0.1-0.4,0.2-0.6,0.2l-0.1-0.4c0.2-0.1,0.4-0.1,0.7-0.2l0.8-0.3l0-0.1c0-0.1-0.1-0.3-0.2-0.4L21,4.2L21,4.2z"/>
		<path class="st2" d="M28.3,3c0.3,0,0.5-0.1,0.8-0.1l0.1,0.5c-0.3,0-0.5,0-0.8,0.1l-0.9,0.1l0.1,1.2L29,4.5c0.3,0,0.5-0.1,0.7-0.1
			l0.1,0.5c-0.2,0-0.4,0-0.7,0.1l-1.4,0.2c0.3,0.5,0.6,1,1,1.3c0.4,0.4,0.9,0.6,1.6,0.6C30.1,7.2,30,7.4,30,7.5
			c-0.5-0.1-0.9-0.3-1.3-0.6c-0.4-0.3-0.8-0.8-1.1-1.4c-0.1,0.6-0.3,1.1-0.7,1.5c-0.3,0.4-0.8,0.8-1.3,1.1c-0.1-0.1-0.2-0.3-0.4-0.4
			c0.4-0.2,0.8-0.5,1.3-0.9c0.4-0.4,0.7-1,0.8-1.7L26,5.2c-0.3,0-0.6,0.1-0.8,0.1l-0.1-0.5c0.2,0,0.5,0,0.8-0.1l1.3-0.1L27,3.5
			l-0.9,0.1c-0.3,0-0.6,0.1-0.8,0.1l-0.1-0.5c0.2,0,0.5,0,0.8-0.1L28.3,3L28.3,3z"/>
		<path class="st2" d="M33.7,5.8c0.1,0.3,0.1,0.5,0.2,0.7c0.3-0.5,0.5-1.1,0.7-1.9l-0.8-0.1l-0.2,0.4C33.6,5.1,33.6,5.5,33.7,5.8
			L33.7,5.8z M33.1,3.6c-0.1,0-0.3,0.1-0.4,0.2c-0.1-0.2-0.2-0.4-0.3-0.7C32.5,3,32.7,3,32.8,2.9C32.8,3.1,32.9,3.3,33.1,3.6z
			 M32.7,5.1c0.3-0.2,0.5-0.5,0.7-0.9c0.2-0.4,0.4-0.8,0.5-1.3C34,3,34.2,3,34.4,3.1c-0.1,0-0.1,0.1-0.2,0.3l-0.3,0.7l1,0.1
			c0.1,0,0.3,0,0.5,0l0,0.4c-0.2,0-0.4-0.1-0.5-0.1c-0.1,0.4-0.2,0.8-0.3,1.2c-0.1,0.4-0.3,0.8-0.5,1.1c0.1,0.1,0.2,0.3,0.4,0.4
			c0.2,0.2,0.4,0.3,0.6,0.5c-0.2,0.1-0.3,0.2-0.4,0.4c-0.3-0.2-0.4-0.4-0.6-0.5c-0.1-0.1-0.3-0.3-0.4-0.5c-0.3,0.3-0.7,0.6-1.2,0.8
			c0-0.2-0.1-0.3-0.2-0.5c0.5-0.1,0.9-0.4,1.2-0.7c-0.2-0.6-0.3-1.1-0.3-1.5L33,5.5C32.9,5.4,32.8,5.2,32.7,5.1L32.7,5.1z M31.2,5.2
			c-0.1,0.1-0.3,0.1-0.4,0.2c-0.1-0.3-0.3-0.6-0.4-0.8c0.1-0.1,0.3-0.1,0.4-0.2C30.9,4.6,31.1,4.9,31.2,5.2z M32.6,6.7
			c-0.3-0.4-0.5-0.8-0.8-1.2L31.7,7c0,0.3-0.1,0.5-0.3,0.6c-0.1,0.1-0.4,0.1-0.7,0.1c0-0.2,0-0.4-0.1-0.6c0.5,0.1,0.7,0,0.7-0.1
			l0.1-1c-0.1,0.1-0.3,0.2-0.5,0.3c-0.2,0.1-0.4,0.2-0.6,0.4c-0.1-0.1-0.2-0.3-0.3-0.5c0.2-0.1,0.7-0.3,1.4-0.7l0.1-1.3
			c-0.4,0-0.8-0.1-1-0.1l0-0.4c0.3,0,0.6,0.1,1,0.1c0.1-0.5,0.1-0.9,0.1-1.1l0.5,0.1c0,0.2-0.1,0.5-0.2,1.1c0.5,0.1,0.8,0.1,1.1,0.1
			l0,0.4c-0.2,0-0.6-0.1-1.1-0.1L31.9,5l0.2,0.2c0.2-0.2,0.3-0.4,0.4-0.7c0.1,0.1,0.2,0.2,0.3,0.3c-0.2,0.2-0.4,0.4-0.5,0.7
			c0.3,0.3,0.5,0.6,0.6,0.9C32.8,6.5,32.7,6.6,32.6,6.7L32.6,6.7z"/>
		<path class="st2" d="M39.3,5.7c-0.2,0-0.3,0-0.4,0c0-0.1,0-0.3,0-0.7c0.2,0,0.3,0,0.4,0C39.3,5.2,39.3,5.5,39.3,5.7z M38.7,8.1
			C38.8,8,38.9,7.9,39,7.8l-0.8-0.3c0,0.2,0,0.3,0.1,0.4c0,0.1,0.1,0.2,0.1,0.3C38.5,8.2,38.6,8.1,38.7,8.1L38.7,8.1z M38.4,5.5
			c-0.1,0-0.2,0-0.4,0c0-0.3,0-0.6,0-0.7c0.1,0,0.2,0,0.4,0C38.4,5.1,38.4,5.4,38.4,5.5L38.4,5.5z M39.2,4.5c0.5,0.1,0.8,0.2,1,0.3
			c0.2,0,0.4,0.1,0.5,0.1c0,0.2,0,0.4,0.1,0.5c-0.3-0.1-0.7-0.2-1.2-0.3c-0.5-0.1-1.1-0.3-1.6-0.4c0-0.2,0-0.3-0.1-0.4
			C38.3,4.2,38.7,4.4,39.2,4.5L39.2,4.5z M39.7,6.9c0.2,0.1,0.5,0.2,0.7,0.2l-0.1,0.4c-0.2-0.1-0.4-0.2-0.7-0.3l-1.2-0.4
			c-0.1,0.1-0.2,0.2-0.3,0.3l1.6,0.6c-0.3,0.3-0.5,0.5-0.6,0.6c-0.2,0.1-0.3,0.2-0.5,0.3C38.7,8.8,38.8,8.9,39,9
			c0.2,0.1,0.4,0.2,0.6,0.3c-0.2,0.1-0.3,0.2-0.4,0.3c-0.2-0.1-0.4-0.3-0.6-0.4c-0.2-0.1-0.3-0.3-0.4-0.4c-0.2,0-0.4,0.1-0.6,0.1
			c-0.2,0-0.4,0-0.7,0c0-0.1-0.1-0.3-0.2-0.4c0.3,0,0.5,0,0.7,0c0.2,0,0.4,0,0.6-0.1c-0.1-0.2-0.1-0.5-0.2-0.9
			c-0.3,0.2-0.5,0.4-0.7,0.5c-0.2,0.1-0.5,0.3-0.8,0.4c0-0.1-0.1-0.3-0.3-0.4c0.2-0.1,0.5-0.2,0.9-0.4c0.4-0.2,0.7-0.5,1.1-1l-0.1,0
			c-0.2-0.1-0.5-0.1-0.7-0.2L37.3,6c0.2,0.1,0.4,0.2,0.7,0.3l0.2,0.1c0,0,0.1-0.2,0.2-0.3l-0.1,0c-0.2-0.1-0.5-0.2-0.7-0.2l0.1-0.4
			c0.2,0.1,0.5,0.2,0.7,0.3l1.1,0.4c0.3-0.3,0.5-0.6,0.6-0.8c0.2,0.2,0.3,0.3,0.4,0.3c-0.1,0.1-0.3,0.3-0.6,0.6
			c0.2,0.1,0.4,0.1,0.5,0.2l-0.1,0.4c-0.2-0.1-0.4-0.2-0.7-0.3l-0.8-0.3c0,0.1-0.1,0.2-0.2,0.3L39.7,6.9L39.7,6.9z M36.4,6.4
			l-0.5,1.4c-0.1,0.2-0.2,0.4-0.3,0.4c-0.1,0-0.3,0-0.7-0.1c0-0.1,0-0.3,0-0.5c0.2,0.1,0.4,0.1,0.5,0.1c0.1,0,0.1-0.1,0.2-0.2
			L36,6.5c-0.3,0-0.5,0.1-0.7,0.1c0-0.1,0-0.2,0-0.4c0.3,0,0.6,0,0.8,0L36.5,5l-0.1,0c-0.2-0.1-0.4-0.1-0.5-0.2l0.1-0.4
			c0.2,0.1,0.3,0.1,0.5,0.2l0.1,0l0.2-0.6c0.1-0.2,0.1-0.4,0.2-0.6l0.4,0.2c-0.1,0.2-0.1,0.4-0.2,0.6L37,4.8
			c0.2,0.1,0.3,0.1,0.6,0.2l-0.1,0.4c-0.2-0.1-0.4-0.2-0.6-0.2l-0.3,0.9c0.3,0,0.5,0,0.5,0c0,0.1-0.1,0.2-0.1,0.4
			C36.9,6.4,36.7,6.4,36.4,6.4L36.4,6.4z"/>
		<path class="st2" d="M44.5,10.8c-0.2-0.1-0.3-0.1-0.4-0.1c0.1-0.3,0.2-0.7,0.2-1.1c0.1,0,0.3,0,0.4,0
			C44.7,10.2,44.6,10.5,44.5,10.8L44.5,10.8z M41.7,9.3c-0.1-0.1-0.2-0.2-0.3-0.3c0.5-0.4,0.8-0.6,0.9-0.8c0.1,0.1,0.2,0.2,0.4,0.3
			C42.5,8.6,42.1,8.8,41.7,9.3L41.7,9.3z M44.2,6.8c0.1,0.1,0.2,0.2,0.4,0.4C44.4,7.3,44.2,7.6,44,8l1,0.6c-0.1,0.1-0.2,0.3-0.4,0.5
			l-1.4,2c-0.1,0.2-0.3,0.3-0.4,0.2c-0.2,0-0.4-0.1-0.6-0.2c0.1-0.2,0.1-0.4,0.1-0.5c0.3,0.1,0.4,0.2,0.5,0.3c0.1,0,0.2,0,0.3-0.2
			l1.4-2.1l-0.6-0.4c-0.4,0.6-0.8,1-1.2,1.4c-0.5,0.4-1,0.7-1.7,0.8c0-0.1-0.1-0.3-0.3-0.5c0.4,0,0.8-0.1,1.3-0.4
			c0.5-0.3,1-0.8,1.5-1.5c-0.2-0.1-0.5-0.3-0.7-0.4l0.2-0.3c0.2,0.2,0.5,0.3,0.7,0.5C43.8,7.4,44,7,44.2,6.8L44.2,6.8z M42.3,5.7
			l0.4,0.3c-0.1,0.2-0.4,0.6-0.8,1.2c0.2,0.1,0.4,0.3,0.6,0.3l-0.2,0.3c-0.2-0.1-0.4-0.2-0.6-0.4l-1.3,2.1c-0.1,0.2-0.2,0.4-0.4,0.7
			l-0.4-0.3c0.2-0.3,0.3-0.5,0.4-0.7l1.3-2.1C41.2,7,41,6.9,40.8,6.8L41,6.5c0.1,0.1,0.3,0.2,0.6,0.4C42,6.3,42.2,5.9,42.3,5.7z"/>
		<path class="st2" d="M47.6,11.8c0.2,0.2,0.4,0.4,0.6,0.5l-0.3,0.3c-0.1-0.2-0.3-0.4-0.6-0.6l-0.7-0.7c-0.2-0.2-0.4-0.4-0.5-0.5
			l0.3-0.3c0.1,0.1,0.3,0.3,0.5,0.5L47.6,11.8L47.6,11.8z M49.1,13.4c-0.2,0-0.3,0-0.5,0.1c-0.4-1-0.5-2-0.4-2.8c-1,0.1-2,0-2.9-0.2
			c0-0.2,0-0.4,0-0.5c0.5,0.2,1.1,0.4,1.8,0.4c0.7,0,1.2,0,1.6-0.2c0,0.2,0.1,0.3,0.2,0.5l-0.2,0C48.4,11.5,48.6,12.4,49.1,13.4
			L49.1,13.4z M44.6,12.6c0.7,0.7,1.3,1.2,1.7,1.5c0-0.2,0-0.5,0-0.8c0.1,0,0.3,0,0.4,0c0,0.3,0,0.6,0,0.8c0,0.3,0,0.6,0,0.9
			c-0.1,0-0.3,0-0.5,0c0-0.2,0.1-0.4,0-0.5c-0.3-0.2-0.7-0.6-1.2-1.1c-0.6-0.5-1-0.8-1.2-0.9c0.1-0.2,0.1-0.3,0.2-0.4
			c0.2,0.1,0.5,0.2,1,0.2c0.4,0,0.8,0,1-0.1l-0.5-0.4c-0.3-0.3-0.6-0.5-0.8-0.8l0.3-0.3c0.2,0.3,0.5,0.5,0.8,0.8l1.6,1.5
			c0.3,0.3,0.5,0.5,0.8,0.7L47.9,14c-0.2-0.3-0.5-0.5-0.8-0.8l-0.9-0.9c0,0.2,0,0.3,0.1,0.4C46,12.7,45.5,12.7,44.6,12.6L44.6,12.6z
			"/>
		<path class="st2" d="M6,25.3l-0.8-0.2c-0.3-0.1-0.6-0.2-0.8-0.3c-0.2-0.1-0.4-0.3-0.5-0.5c-0.1-0.2-0.1-0.3-0.1-0.5
			c0-0.2,0.1-0.3,0.3-0.4c0.2-0.1,0.4-0.2,0.6-0.2c0.3,0,0.5,0,0.8,0.1l1.3,0.3c0.3,0.1,0.6,0.2,0.8,0.3c0.2,0.1,0.4,0.3,0.5,0.5
			c0.1,0.2,0.1,0.3,0.1,0.5c0,0.1-0.1,0.3-0.3,0.4c-0.1,0.1-0.3,0.2-0.5,0.2c-0.2,0-0.5,0-0.7,0l0.1-0.4c0.2,0,0.3,0,0.4,0
			c0.1,0,0.2-0.1,0.3-0.1c0.1-0.1,0.1-0.1,0.1-0.2c0-0.1,0-0.2-0.1-0.3c-0.1-0.1-0.2-0.2-0.3-0.3C7.2,24.1,7,24,6.8,24l-1.3-0.3
			c-0.2,0-0.4-0.1-0.5-0.1c-0.2,0-0.3,0-0.4,0.1c-0.1,0.1-0.2,0.1-0.2,0.3c0,0.1,0,0.2,0.1,0.3c0.1,0.1,0.2,0.2,0.3,0.3
			c0.1,0.1,0.3,0.1,0.5,0.2l0.2,0l0.1-0.5l0.6,0.1L6,25.3L6,25.3z"/>
		<path class="st2" d="M3.6,25.8c0.2-0.1,0.4-0.2,0.6-0.2c0.3,0,0.6,0,0.9,0L8,26.1L8,26.4L5.1,26c-0.3,0-0.6,0-0.8,0
			C4.1,26.1,4,26.2,4,26.4c0,0.2,0,0.3,0.2,0.5C4.3,27,4.6,27,4.9,27.1l2.9,0.4l-0.1,0.4l-2.9-0.4c-0.4-0.1-0.7-0.1-0.9-0.2
			c-0.2-0.1-0.4-0.2-0.5-0.4c-0.1-0.2-0.2-0.3-0.1-0.5C3.4,26.1,3.5,25.9,3.6,25.8z"/>
		<path class="st2" d="M4.8,28.4l0,0.8l-0.6,0.1l0.1-1.1L4.8,28.4L4.8,28.4z M7.7,28.8l0,0.3l-4.6,0.7l0-0.4l3.7-0.5L3.2,28l0-0.4
			L7.7,28.8L7.7,28.8z"/>
		<polygon class="st2" points="7.6,30.2 7.6,30.5 4.2,31.9 4.3,31.9 7.7,31.8 7.7,32.1 3.2,32.3 3.1,32 6.6,30.5 6.4,30.6 3.1,30.7 
			3.1,30.3 		"/>
		<path class="st2" d="M5.9,34.5l-0.8,0.1c-0.3,0-0.6,0-0.9,0c-0.3,0-0.5-0.1-0.6-0.2c-0.2-0.1-0.3-0.3-0.3-0.5c0-0.2,0-0.4,0.1-0.5
			c0.1-0.2,0.3-0.3,0.5-0.4c0.2-0.1,0.5-0.2,0.8-0.2l1.3-0.2c0.3,0,0.6,0,0.9,0c0.3,0,0.5,0.1,0.6,0.2c0.2,0.1,0.3,0.3,0.3,0.5
			c0,0.2,0,0.3-0.1,0.4c-0.1,0.1-0.2,0.3-0.4,0.4c-0.2,0.1-0.4,0.2-0.7,0.3L6.6,34c0.1,0,0.3-0.1,0.4-0.2c0.1-0.1,0.2-0.1,0.2-0.2
			c0-0.1,0.1-0.2,0.1-0.2c0-0.1-0.1-0.2-0.2-0.3C7,33,6.9,33,6.7,33c-0.2,0-0.4,0-0.6,0l-1.3,0.2c-0.2,0-0.4,0.1-0.5,0.1
			c-0.1,0.1-0.2,0.1-0.3,0.2c-0.1,0.1-0.1,0.2-0.1,0.3C3.9,34,4,34,4.1,34.1c0.1,0.1,0.2,0.1,0.4,0.1c0.2,0,0.4,0,0.6,0l0.2,0
			l-0.1-0.5l0.6-0.1L5.9,34.5L5.9,34.5z"/>
		<polygon class="st2" points="7.8,36.1 4.3,35.7 4.5,36.8 3.9,37 3.6,35.4 4.1,35.2 7.7,35.6 7.4,34.5 8,34.4 8.4,35.9 		"/>
		<path class="st2" d="M6.6,37.1L7,38.2l-0.6,0.2L6,37.3L6.6,37.1L6.6,37.1z M8.9,37.5L9,37.9l-4.3,1.4l-0.1-0.4L8.9,37.5z
			 M8.4,36.1l0.1,0.4l-4.3,1.4l-0.1-0.4L8.4,36.1L8.4,36.1z"/>
		<path class="st2" d="M6,40.8c0.1,0,0.2,0.1,0.4,0c0.2,0,0.3-0.1,0.5-0.1l1.2-0.5C8.4,40,8.5,40,8.6,39.9c0.1-0.1,0.2-0.2,0.3-0.3
			c0-0.1,0-0.2,0-0.3c0-0.1-0.1-0.2-0.2-0.2c-0.1,0-0.2-0.1-0.4,0c-0.2,0-0.3,0.1-0.5,0.1l-1.2,0.5c-0.2,0.1-0.3,0.2-0.5,0.3
			c-0.1,0.1-0.2,0.2-0.3,0.3c0,0.1,0,0.2,0,0.3C5.8,40.6,5.9,40.7,6,40.8L6,40.8z M5.2,40.3c0.1-0.2,0.2-0.4,0.4-0.5
			c0.2-0.2,0.5-0.3,0.8-0.5l1.2-0.5c0.3-0.1,0.6-0.2,0.9-0.2c0.3,0,0.5,0,0.7,0.1c0.2,0.1,0.3,0.2,0.4,0.4c0.1,0.2,0.1,0.3,0,0.5
			c-0.1,0.2-0.2,0.4-0.4,0.5c-0.2,0.2-0.5,0.3-0.8,0.5L7.1,41c-0.3,0.1-0.6,0.2-0.9,0.2c-0.3,0-0.5,0-0.7-0.1
			c-0.2-0.1-0.3-0.2-0.4-0.4C5.1,40.6,5.1,40.4,5.2,40.3L5.2,40.3z"/>
		<path class="st2" d="M6.2,42.5c0.1-0.2,0.2-0.4,0.4-0.6c0.2-0.2,0.4-0.4,0.8-0.5L9.9,40l0.2,0.3l-2.6,1.4
			c-0.3,0.2-0.5,0.3-0.6,0.5c-0.1,0.2-0.1,0.3,0,0.5C6.9,42.9,7.1,43,7.3,43c0.2,0,0.5-0.1,0.7-0.2l2.6-1.4l0.2,0.3l-2.6,1.4
			c-0.3,0.2-0.6,0.3-0.9,0.3c-0.3,0.1-0.5,0.1-0.7,0c-0.2-0.1-0.3-0.2-0.4-0.4C6.2,42.9,6.2,42.7,6.2,42.5L6.2,42.5z"/>
		<path class="st2" d="M8.4,45.4l0.3,0.5C8.9,46,9,46,9.2,46c0.2,0,0.3-0.1,0.5-0.2l0,0c0.1-0.1,0.2-0.2,0.3-0.3
			c0.1-0.1,0.1-0.2,0.1-0.3c0-0.1,0-0.2-0.1-0.3l-0.4-0.5l0.5-0.3l0.4,0.5c0.1,0.1,0.2,0.2,0.3,0.2c0.1,0,0.3-0.1,0.5-0.2
			c0.2-0.1,0.3-0.3,0.3-0.4c0-0.1,0-0.3-0.1-0.4l-0.4-0.5l0.5-0.3l0.4,0.5c0.1,0.1,0.1,0.3,0.1,0.4c0,0.2-0.1,0.3-0.2,0.5
			c-0.1,0.2-0.3,0.3-0.5,0.5c-0.1,0.1-0.3,0.2-0.4,0.2c-0.1,0.1-0.3,0.1-0.4,0.1c-0.1,0-0.2,0-0.3-0.1c0,0.1,0,0.2,0,0.3
			c0,0.1-0.1,0.2-0.2,0.4c-0.1,0.1-0.2,0.2-0.4,0.3l0,0c-0.2,0.1-0.4,0.2-0.6,0.3c-0.2,0.1-0.4,0.1-0.5,0c-0.2,0-0.3-0.1-0.4-0.2
			L8,45.7L8.4,45.4L8.4,45.4z M11.4,42.7l0.2,0.3L8,45.7l-0.2-0.3L11.4,42.7z"/>
		<path class="st2" d="M9.9,47.3l0.9,1l-0.5,0.4l-0.9-1L9.9,47.3z M12.7,44.4l0.2,0.3l-3.4,3l-0.2-0.3L12.7,44.4L12.7,44.4z"/>
		<path class="st2" d="M11.1,49.2c0-0.2,0.1-0.4,0.2-0.6c0.1-0.2,0.3-0.5,0.6-0.7l2-2.1l0.3,0.3l-2,2.1c-0.2,0.2-0.4,0.5-0.4,0.7
			c-0.1,0.2,0,0.4,0.1,0.5c0.1,0.1,0.3,0.2,0.5,0.1c0.2-0.1,0.4-0.2,0.6-0.5l2-2.1l0.3,0.3l-2,2.1c-0.2,0.3-0.5,0.5-0.7,0.6
			c-0.2,0.1-0.4,0.2-0.6,0.2c-0.2,0-0.4-0.1-0.5-0.2C11.1,49.5,11.1,49.4,11.1,49.2z"/>
		<path class="st2" d="M15.7,47.4l1,0.8l-0.4,0.5l-1-0.8L15.7,47.4z M14.4,49l0.9,0.7l-0.4,0.5L14,49.4L14.4,49L14.4,49z M13.2,50.5
			l1,0.8l-0.4,0.5l-1-0.8L13.2,50.5z M15.4,47.2l0.3,0.2L12.8,51l-0.3-0.2L15.4,47.2z"/>
		<path class="st2" d="M15.7,53.1c0,0,0,0-0.1-0.1c-0.1-0.1-0.1-0.2-0.2-0.3c0-0.1-0.1-0.3-0.1-0.4l0.5-0.3c0,0.2,0,0.3,0.1,0.5
			c0.1,0.1,0.2,0.2,0.3,0.3c0.2,0.1,0.3,0.1,0.5,0.1c0.2,0,0.3-0.2,0.4-0.4l0,0c0.1-0.1,0.1-0.3,0.1-0.4c0-0.1,0-0.2-0.1-0.3
			c0-0.1-0.1-0.2-0.2-0.3c0,0,0,0,0,0c0,0,0,0,0,0l0,0c-0.1-0.1-0.2-0.3-0.3-0.4c-0.1-0.1-0.1-0.3-0.1-0.5c0-0.2,0.1-0.4,0.3-0.7
			l0,0c0.1-0.2,0.3-0.4,0.5-0.6c0.2-0.1,0.3-0.2,0.5-0.2c0.2,0,0.3,0,0.5,0.1c0.1,0,0.2,0.1,0.2,0.2c0.1,0.1,0.1,0.2,0.1,0.3
			c0,0.1,0.1,0.2,0.1,0.4l-0.4,0.3c0-0.2-0.1-0.3-0.1-0.4c-0.1-0.1-0.1-0.2-0.2-0.2c-0.2-0.1-0.3-0.1-0.5-0.1
			c-0.2,0.1-0.3,0.2-0.4,0.4l0,0c-0.1,0.1-0.1,0.3-0.1,0.4c0,0.1,0,0.2,0.1,0.3c0,0.1,0.1,0.2,0.2,0.3c0,0,0,0,0,0c0,0,0,0,0,0
			c0,0,0,0,0,0c0,0,0,0,0,0c0.1,0.1,0.2,0.3,0.2,0.4c0.1,0.1,0.1,0.3,0,0.5c0,0.2-0.1,0.4-0.3,0.7l0,0c-0.1,0.2-0.3,0.4-0.5,0.5
			c-0.2,0.1-0.3,0.2-0.5,0.2c-0.2,0-0.4,0-0.5-0.1C15.8,53.2,15.7,53.1,15.7,53.1L15.7,53.1z"/>
		<path class="st2" d="M19,52.3l0.5-0.4l-0.4,2.9l-0.4-0.2L19,52.3z M18.6,52.2l2-1.7l0.4,0.2L18.2,53L18.6,52.2L18.6,52.2z
			 M19.3,49.9l0.3,0.2l-2,4.1L17.3,54L19.3,49.9z"/>
		<polygon class="st2" points="20.9,53.6 20.2,55.3 19.8,55.2 20.5,53.5 20.8,50.6 21.2,50.8 20.9,52.9 22.3,51.2 22.6,51.4 		"/>
		<path class="st2" d="M22.9,56.3c0,0,0,0-0.1-0.1c-0.1-0.1-0.2-0.2-0.3-0.3c-0.1-0.1-0.1-0.2-0.2-0.4l0.3-0.4
			c0.1,0.2,0.1,0.3,0.2,0.4c0.1,0.1,0.2,0.2,0.4,0.2c0.2,0,0.3,0,0.5-0.1c0.1-0.1,0.2-0.2,0.3-0.5l0,0c0-0.2,0-0.3,0-0.4
			c0-0.1-0.1-0.2-0.1-0.2c-0.1-0.1-0.1-0.1-0.3-0.2c0,0,0,0,0,0c0,0,0,0,0,0l0,0c-0.2-0.1-0.3-0.2-0.4-0.3c-0.1-0.1-0.2-0.2-0.2-0.4
			c0-0.2,0-0.4,0.1-0.8l0,0c0.1-0.3,0.2-0.5,0.3-0.7c0.1-0.2,0.3-0.3,0.4-0.4c0.2-0.1,0.3-0.1,0.5,0c0.1,0,0.2,0.1,0.3,0.1
			c0.1,0.1,0.2,0.1,0.2,0.2c0.1,0.1,0.1,0.2,0.2,0.3l-0.3,0.4c-0.1-0.1-0.1-0.3-0.2-0.4c-0.1-0.1-0.2-0.1-0.3-0.2
			c-0.2,0-0.3,0-0.5,0.1c-0.1,0.1-0.2,0.3-0.3,0.5l0,0c0,0.2,0,0.3,0,0.4c0,0.1,0.1,0.2,0.1,0.2c0.1,0.1,0.2,0.1,0.3,0.2
			c0,0,0,0,0,0c0,0,0,0,0,0c0,0,0,0,0,0c0,0,0,0,0,0c0.1,0.1,0.3,0.2,0.3,0.3c0.1,0.1,0.1,0.2,0.2,0.4c0,0.2,0,0.4-0.1,0.7l0,0
			c-0.1,0.3-0.2,0.5-0.3,0.7c-0.1,0.2-0.3,0.3-0.4,0.4c-0.2,0.1-0.3,0.1-0.5,0C23,56.3,22.9,56.3,22.9,56.3z"/>
		<path class="st2" d="M25.7,52.2l1.3,0.2L26.9,53l-1.3-0.2L25.7,52.2L25.7,52.2z M25.4,54.2l1.1,0.2L26.4,55l-1.1-0.2L25.4,54.2z
			 M25.1,56.1l1.3,0.2l-0.1,0.6l-1.3-0.2L25.1,56.1L25.1,56.1z M25.4,52.1l0.4,0.1l-0.8,4.5l-0.4-0.1L25.4,52.1L25.4,52.1z"/>
		<path class="st2" d="M27.4,55.4l0.8,0.1l0.1,0.6L27.3,56L27.4,55.4L27.4,55.4z M27.9,52.5l0.3,0l0.6,4.6l-0.4,0L28,53.4L27,57
			l-0.4,0L27.9,52.5L27.9,52.5z"/>
		<path class="st2" d="M30.2,55.2l0.4-0.1l0.6,2l-0.4,0L30.2,55.2L30.2,55.2z M29.7,54.6l0.7,0c0.1,0,0.1,0,0.2-0.1
			c0.1-0.1,0.1-0.1,0.1-0.3c0-0.1,0-0.2,0-0.4c0-0.1,0-0.3,0-0.4c0-0.1-0.1-0.2-0.1-0.2c-0.1-0.1-0.1-0.1-0.2-0.1l-0.7,0l0-0.6
			l0.7,0c0.2,0,0.3,0.1,0.4,0.2c0.1,0.1,0.2,0.3,0.3,0.5c0.1,0.2,0.1,0.4,0.1,0.7c0,0.3,0,0.5-0.1,0.7c-0.1,0.2-0.2,0.4-0.3,0.5
			c-0.1,0.1-0.4,0.1-0.5,0.2l-0.6,0L29.7,54.6L29.7,54.6z M29.3,52.6l0.4,0l0,4.6l-0.4,0L29.3,52.6L29.3,52.6z"/>
		<path class="st2" d="M32.4,57.1c0,0-0.1-0.1-0.2-0.2c-0.2-0.1-0.3-0.3-0.4-0.6c-0.1-0.2-0.2-0.5-0.2-0.9l-0.1-1.2
			c0-0.3,0-0.6,0-0.9c0.1-0.3,0.1-0.5,0.3-0.6c0.1-0.2,0.3-0.2,0.5-0.3c0.2,0,0.3,0,0.4,0.1c0.1,0.1,0.3,0.2,0.4,0.4
			c0.1,0.2,0.2,0.4,0.2,0.7l-0.4,0c0-0.1-0.1-0.3-0.2-0.4c-0.1-0.1-0.1-0.2-0.2-0.2c-0.1-0.1-0.2-0.1-0.2-0.1
			c-0.1,0-0.2,0.1-0.3,0.2c-0.1,0.1-0.1,0.2-0.2,0.4c0,0.2,0,0.4,0,0.6l0.1,1.2c0,0.2,0.1,0.4,0.1,0.6c0.1,0.2,0.1,0.3,0.2,0.4
			c0.1,0.1,0.2,0.1,0.3,0.1c0.1,0,0.2,0,0.2-0.1c0.1-0.1,0.1-0.2,0.2-0.3c0-0.1,0.1-0.3,0.1-0.4l0.4,0c0,0.3,0,0.5-0.1,0.7
			c-0.1,0.2-0.2,0.4-0.3,0.5c-0.1,0.1-0.2,0.2-0.4,0.2C32.5,57.1,32.4,57.1,32.4,57.1L32.4,57.1z"/>
		<path class="st2" d="M34.8,52.1l0.4-0.1l0.9,4.5l-0.4,0.1L34.8,52.1L34.8,52.1z M34.1,54.3l1.1-0.2l0.1,0.6l-1.1,0.2L34.1,54.3z
			 M33.3,52.4l0.4-0.1l0.9,4.5l-0.4,0.1L33.3,52.4z"/>
		<path class="st2" d="M37.6,54.2c0,0.1,0,0.3,0.1,0.6c0.1,0.2,0.2,0.4,0.3,0.5c0.1,0.1,0.3,0.1,0.4,0.1c0.1,0,0.2-0.2,0.3-0.3
			c0.1-0.2,0.1-0.4,0-0.7c0-0.3-0.1-0.6-0.2-0.9l0.3-0.1c0.2,0.5,0.3,0.9,0.3,1.3c0,0.4,0,0.7-0.1,0.9c-0.1,0.2-0.3,0.4-0.5,0.5
			c-0.2,0.1-0.3,0.1-0.5,0c-0.1-0.1-0.3-0.2-0.4-0.3c-0.1-0.2-0.2-0.4-0.3-0.6c-0.1-0.4-0.2-0.7-0.1-0.9c0-0.2,0-0.2,0.1-0.3
			l0.3,0.4C37.7,54.1,37.7,54,37.6,54.2L37.6,54.2z M37.8,54.1c-0.1-0.1-0.2-0.2-0.3-0.4c-0.1-0.1-0.2-0.3-0.3-0.4
			c-0.1-0.2-0.2-0.3-0.2-0.5c-0.1-0.4-0.2-0.7-0.1-0.9c0-0.2,0.2-0.4,0.4-0.5c0.2-0.1,0.4,0,0.6,0.1c0.2,0.2,0.3,0.4,0.5,0.8l0,0.1
			l-0.4,0.1l0-0.1c-0.1-0.2-0.1-0.3-0.2-0.4c-0.1-0.1-0.2-0.1-0.3-0.1c-0.1,0-0.2,0.1-0.2,0.2c0,0.1,0,0.3,0.1,0.5
			c0,0.1,0.1,0.2,0.2,0.3c0.1,0.1,0.1,0.2,0.2,0.3c0.1,0.1,0.2,0.2,0.3,0.3l1.9,1.7l-0.5,0.1l-0.3-0.2c0,0,0.1-0.4,0.1-0.5
			c0,0-0.4-0.4-0.4-0.4c0,0.1,0,0.5,0,0.5L37.8,54.1L37.8,54.1z"/>
		<path class="st2" d="M41.3,52.6l0.3-0.2l1.4,1.5L42.6,54L41.3,52.6z M40.5,52.3l0.6-0.3c0.1,0,0.1-0.1,0.1-0.2c0-0.1,0-0.2,0-0.3
			c0-0.1-0.1-0.2-0.1-0.4C41,51,41,50.9,40.9,50.9c-0.1-0.1-0.1-0.1-0.2-0.2c-0.1,0-0.1,0-0.2,0L39.8,51l-0.3-0.5l0.6-0.3
			c0.1-0.1,0.3-0.1,0.4,0c0.2,0,0.3,0.1,0.4,0.3c0.1,0.1,0.3,0.3,0.4,0.6c0.1,0.2,0.2,0.5,0.2,0.7c0,0.2,0,0.4,0,0.5
			c-0.1,0.1-0.2,0.3-0.3,0.3l-0.6,0.3L40.5,52.3L40.5,52.3z M39.2,50.6l0.3-0.2l2,4.1l-0.3,0.2L39.2,50.6L39.2,50.6z"/>
		<path class="st2" d="M43.5,52.8l1.1-0.7l0.3,0.5l-1.1,0.7L43.5,52.8L43.5,52.8z M42.5,51.2l1-0.6l0.3,0.5l-1,0.6L42.5,51.2z
			 M41.4,49.5l1.1-0.7l0.3,0.5L41.7,50L41.4,49.5z M41.1,49.7l0.3-0.2l2.4,3.9l-0.3,0.2L41.1,49.7z"/>
		<path class="st2" d="M45.9,52c0,0-0.1,0-0.2,0.1c-0.1,0-0.2,0-0.4,0c-0.1,0-0.3,0-0.4-0.1l-0.1-0.5c0.2,0.1,0.3,0.1,0.5,0.1
			c0.1,0,0.3-0.1,0.4-0.1c0.2-0.1,0.2-0.3,0.2-0.4c0-0.2,0-0.3-0.2-0.5l0,0c-0.1-0.1-0.2-0.2-0.3-0.3c-0.1,0-0.2-0.1-0.3-0.1
			c-0.1,0-0.2,0-0.3,0.1c0,0,0,0,0,0c0,0,0,0,0,0l0,0c-0.2,0.1-0.3,0.1-0.5,0.1c-0.1,0-0.3,0-0.4-0.1c-0.2-0.1-0.3-0.3-0.5-0.5l0,0
			c-0.2-0.2-0.3-0.4-0.3-0.6c-0.1-0.2-0.1-0.4,0-0.6c0.1-0.2,0.2-0.3,0.3-0.4c0.1-0.1,0.2-0.1,0.3-0.1c0.1,0,0.2,0,0.3,0
			c0.1,0,0.2,0,0.4,0.1l0.1,0.5c-0.2,0-0.3-0.1-0.4-0.1c-0.1,0-0.2,0-0.3,0.1c-0.1,0.1-0.2,0.2-0.2,0.4c0,0.2,0.1,0.3,0.2,0.5l0,0
			c0.1,0.1,0.2,0.2,0.3,0.3c0.1,0,0.2,0.1,0.3,0c0.1,0,0.2,0,0.3-0.1c0,0,0,0,0,0c0,0,0,0,0,0c0,0,0,0,0,0c0,0,0,0,0,0
			c0.2-0.1,0.3-0.1,0.4-0.1c0.1,0,0.3,0,0.4,0.1c0.2,0.1,0.3,0.3,0.5,0.5l0,0c0.2,0.2,0.3,0.4,0.3,0.6c0.1,0.2,0.1,0.4,0,0.6
			c-0.1,0.2-0.2,0.3-0.3,0.4C46,52,45.9,52,45.9,52L45.9,52z"/>
		<path class="st2" d="M47.8,50.6c0,0-0.1,0-0.3,0c-0.2,0-0.4-0.1-0.6-0.2c-0.2-0.1-0.5-0.3-0.7-0.6l-0.8-0.9
			c-0.2-0.3-0.4-0.5-0.5-0.7c-0.1-0.2-0.2-0.5-0.2-0.7c0-0.2,0.1-0.4,0.2-0.5c0.1-0.1,0.3-0.2,0.4-0.2c0.2,0,0.4,0,0.6,0.1
			c0.2,0.1,0.4,0.2,0.6,0.4l-0.3,0.3c-0.1-0.1-0.2-0.2-0.3-0.2c-0.1,0-0.2-0.1-0.3-0.1c-0.1,0-0.2,0-0.2,0.1
			c-0.1,0.1-0.1,0.2-0.1,0.3c0,0.1,0,0.3,0.1,0.4c0.1,0.2,0.2,0.3,0.3,0.5l0.8,0.9c0.1,0.2,0.3,0.3,0.4,0.4c0.1,0.1,0.3,0.1,0.4,0.2
			c0.1,0,0.2,0,0.3-0.1c0.1-0.1,0.1-0.1,0.1-0.2c0-0.1,0-0.2,0-0.3c0-0.1-0.1-0.2-0.2-0.4l0.3-0.3c0.2,0.2,0.3,0.4,0.3,0.6
			c0.1,0.2,0.1,0.4,0.1,0.6c0,0.2-0.1,0.3-0.2,0.4C47.8,50.5,47.8,50.6,47.8,50.6L47.8,50.6z"/>
		<path class="st2" d="M49.2,48.9c-0.2,0-0.4,0-0.6-0.2c-0.2-0.1-0.5-0.3-0.7-0.5l-2.1-2l0.3-0.3l2.1,2c0.2,0.2,0.5,0.4,0.7,0.4
			c0.2,0.1,0.4,0,0.5-0.1c0.1-0.1,0.2-0.3,0.1-0.5c-0.1-0.2-0.2-0.4-0.5-0.6l-2.1-2l0.3-0.3l2.1,2c0.3,0.2,0.5,0.5,0.6,0.7
			c0.1,0.2,0.2,0.4,0.2,0.6c0,0.2-0.1,0.4-0.2,0.5C49.5,48.8,49.4,48.9,49.2,48.9L49.2,48.9z"/>
		<path class="st2" d="M50.5,46.8l0.8-1l0.5,0.4l-0.8,1L50.5,46.8L50.5,46.8z M48.9,45.6l0.7-0.9l0.5,0.4L49.4,46L48.9,45.6z
			 M47.4,44.4l0.8-1l0.5,0.4l-0.8,1L47.4,44.4z M47.1,44.7l0.2-0.3l3.6,2.8l-0.2,0.3L47.1,44.7L47.1,44.7z"/>
		<path class="st2" d="M51.8,43.1l0.4-0.7l0.6,0.2l-0.5,0.9L51.8,43.1z M49.3,41.5l0.2-0.3l4.4,1.4l-0.2,0.3l-3.6-1.2l2.8,2.5
			l-0.2,0.3L49.3,41.5L49.3,41.5z"/>
		<path class="st2" d="M54.4,41.7c0,0,0,0-0.1,0.1C54.2,41.9,54.1,42,54,42c-0.1,0.1-0.3,0.1-0.4,0.1l-0.3-0.4
			c0.2,0,0.3-0.1,0.4-0.2c0.1-0.1,0.2-0.2,0.3-0.3c0.1-0.2,0.1-0.3,0-0.5c-0.1-0.1-0.2-0.3-0.4-0.4l0,0c-0.1-0.1-0.3-0.1-0.4-0.1
			c-0.1,0-0.2,0-0.3,0.1c-0.1,0.1-0.2,0.1-0.2,0.2c0,0,0,0,0,0c0,0,0,0,0,0l0,0c-0.1,0.1-0.2,0.2-0.3,0.3c-0.1,0.1-0.3,0.1-0.4,0.1
			c-0.2,0-0.4-0.1-0.7-0.2l0,0c-0.3-0.1-0.5-0.3-0.6-0.4c-0.2-0.2-0.2-0.3-0.3-0.5c0-0.2,0-0.3,0.1-0.5c0-0.1,0.1-0.2,0.2-0.2
			c0.1-0.1,0.2-0.1,0.3-0.2c0.1-0.1,0.2-0.1,0.4-0.1l0.4,0.4c-0.2,0-0.3,0.1-0.4,0.2c-0.1,0.1-0.2,0.1-0.2,0.2
			c-0.1,0.2-0.1,0.3,0,0.5c0.1,0.1,0.2,0.3,0.4,0.4l0,0c0.1,0.1,0.3,0.1,0.4,0.1c0.1,0,0.2,0,0.3-0.1c0.1-0.1,0.2-0.1,0.3-0.2
			c0,0,0,0,0,0c0,0,0,0,0,0c0,0,0,0,0,0c0,0,0,0,0,0c0.1-0.1,0.2-0.2,0.3-0.3c0.1-0.1,0.3-0.1,0.5-0.1c0.2,0,0.4,0.1,0.7,0.2l0,0
			c0.3,0.1,0.5,0.2,0.6,0.4c0.1,0.2,0.2,0.3,0.3,0.5c0,0.2,0,0.4-0.1,0.5C54.4,41.6,54.4,41.7,54.4,41.7L54.4,41.7z"/>
		<path class="st2" d="M55.3,39.5c0,0,0,0-0.1,0.1c-0.1,0.1-0.2,0.2-0.3,0.2c-0.1,0.1-0.2,0.1-0.4,0.2l-0.4-0.4
			c0.2,0,0.3-0.1,0.4-0.2c0.1-0.1,0.2-0.2,0.2-0.3c0.1-0.2,0.1-0.3,0-0.5c-0.1-0.1-0.2-0.2-0.4-0.3l0,0c-0.1-0.1-0.3-0.1-0.4-0.1
			c-0.1,0-0.2,0-0.3,0.1c-0.1,0.1-0.1,0.1-0.2,0.2c0,0,0,0,0,0c0,0,0,0,0,0l0,0c-0.1,0.1-0.2,0.3-0.3,0.3c-0.1,0.1-0.2,0.1-0.4,0.1
			c-0.2,0-0.4,0-0.7-0.1l0,0c-0.3-0.1-0.5-0.2-0.6-0.3c-0.2-0.1-0.3-0.3-0.3-0.5c-0.1-0.2,0-0.3,0-0.5c0-0.1,0.1-0.2,0.1-0.2
			c0.1-0.1,0.1-0.1,0.2-0.2c0.1-0.1,0.2-0.1,0.3-0.2l0.4,0.4c-0.2,0.1-0.3,0.1-0.4,0.2c-0.1,0.1-0.2,0.2-0.2,0.3
			c-0.1,0.2,0,0.3,0,0.5c0.1,0.1,0.2,0.2,0.4,0.3l0,0c0.1,0.1,0.3,0.1,0.4,0.1c0.1,0,0.2-0.1,0.3-0.1c0.1-0.1,0.1-0.1,0.2-0.3
			c0,0,0,0,0,0c0,0,0,0,0,0c0,0,0,0,0,0c0,0,0,0,0,0c0.1-0.1,0.2-0.2,0.3-0.3c0.1-0.1,0.3-0.1,0.4-0.1c0.2,0,0.4,0,0.7,0.1l0,0
			c0.3,0.1,0.5,0.2,0.6,0.3c0.2,0.1,0.3,0.3,0.3,0.5c0,0.2,0,0.4,0,0.5C55.3,39.5,55.3,39.5,55.3,39.5L55.3,39.5z"/>
		<path class="st2" d="M55.4,36.6c-0.1-0.1-0.2-0.2-0.3-0.3c-0.1-0.1-0.3-0.2-0.5-0.2l-1.3-0.3c-0.2-0.1-0.4-0.1-0.5-0.1
			c-0.2,0-0.3,0-0.4,0.1c-0.1,0.1-0.2,0.1-0.2,0.2c0,0.1,0,0.2,0.1,0.3c0.1,0.1,0.2,0.2,0.3,0.3c0.1,0.1,0.3,0.2,0.5,0.2l1.3,0.3
			c0.2,0.1,0.4,0.1,0.5,0.1c0.2,0,0.3,0,0.4-0.1c0.1-0.1,0.2-0.1,0.2-0.2C55.5,36.8,55.5,36.7,55.4,36.6z M55.8,37.5
			c-0.2,0.1-0.4,0.2-0.7,0.2c-0.3,0-0.6,0-0.9-0.1L53,37.2c-0.3-0.1-0.6-0.2-0.8-0.3c-0.2-0.1-0.4-0.3-0.5-0.5
			c-0.1-0.2-0.1-0.3-0.1-0.5c0-0.2,0.2-0.3,0.3-0.4c0.2-0.1,0.4-0.2,0.7-0.2c0.3,0,0.6,0,0.9,0.1l1.3,0.3c0.3,0.1,0.6,0.2,0.8,0.3
			c0.2,0.1,0.4,0.3,0.5,0.5c0.1,0.2,0.1,0.3,0.1,0.5C56,37.2,55.9,37.4,55.8,37.5L55.8,37.5z"/>
		<path class="st2" d="M56.6,34.9c0,0-0.1,0.1-0.2,0.2c-0.2,0.1-0.4,0.2-0.6,0.2c-0.3,0-0.6,0-0.9,0l-1.2-0.2
			c-0.3-0.1-0.6-0.1-0.9-0.3c-0.2-0.1-0.4-0.3-0.5-0.4C52,34.2,52,34,52,33.9c0-0.1,0.1-0.3,0.2-0.4c0.1-0.1,0.3-0.2,0.5-0.2
			c0.2-0.1,0.5-0.1,0.7-0.1l-0.1,0.4c-0.1,0-0.3,0-0.4,0.1c-0.1,0-0.2,0.1-0.3,0.1c-0.1,0.1-0.1,0.1-0.1,0.2c0,0.1,0,0.2,0.1,0.3
			c0.1,0.1,0.2,0.2,0.3,0.2c0.2,0.1,0.3,0.1,0.5,0.2l1.2,0.2c0.2,0,0.4,0,0.6,0c0.2,0,0.3-0.1,0.4-0.1c0.1-0.1,0.2-0.2,0.2-0.3
			c0-0.1,0-0.2,0-0.2c0-0.1-0.1-0.2-0.2-0.2c-0.1-0.1-0.2-0.1-0.4-0.2l0.1-0.4c0.3,0.1,0.5,0.2,0.7,0.3c0.2,0.1,0.3,0.3,0.4,0.4
			c0.1,0.1,0.1,0.3,0.1,0.4C56.6,34.8,56.6,34.9,56.6,34.9L56.6,34.9z"/>
		<polygon class="st2" points="56.8,32.9 56.8,33.3 52.2,32.8 52.3,32.4 		"/>
		<path class="st2" d="M55.3,31.8l0-0.8l0.6-0.1l0,1.1L55.3,31.8z M52.3,31.4l0-0.3l4.6-0.8l0,0.4l-3.7,0.6l3.6,0.9l0,0.4L52.3,31.4
			L52.3,31.4z"/>
		<path class="st2" d="M53,29.7l0-0.4l4-0.1l0,0.4L53,29.7L53,29.7z M52.4,30.5l-0.1-1.9l0.6,0l0.1,1.9L52.4,30.5L52.4,30.5z"/>
		<polygon class="st2" points="56.8,27.9 56.8,28.3 52.3,28.6 52.3,28.3 		"/>
		<path class="st2" d="M55.9,26.2c-0.1-0.1-0.2-0.1-0.4-0.1c-0.2,0-0.3,0-0.5,0l-1.3,0.2c-0.2,0-0.4,0.1-0.5,0.1
			c-0.1,0.1-0.3,0.1-0.3,0.2c-0.1,0.1-0.1,0.2-0.1,0.3c0,0.1,0.1,0.2,0.2,0.3c0.1,0.1,0.2,0.1,0.4,0.1c0.2,0,0.3,0,0.5,0l1.3-0.2
			c0.2,0,0.4-0.1,0.5-0.1c0.1-0.1,0.3-0.1,0.3-0.2c0.1-0.1,0.1-0.2,0.1-0.3C56,26.4,56,26.3,55.9,26.2z M56.5,26.9
			c-0.1,0.2-0.3,0.3-0.5,0.4c-0.2,0.1-0.5,0.2-0.9,0.2l-1.3,0.2c-0.3,0-0.6,0.1-0.9,0c-0.3,0-0.5-0.1-0.6-0.2
			c-0.2-0.1-0.3-0.3-0.3-0.5c0-0.2,0-0.4,0.1-0.5c0.1-0.2,0.3-0.3,0.5-0.4c0.2-0.1,0.5-0.2,0.9-0.2l1.3-0.2c0.3,0,0.6-0.1,0.9,0
			c0.3,0,0.5,0.1,0.6,0.2c0.2,0.1,0.3,0.3,0.3,0.5C56.7,26.6,56.7,26.8,56.5,26.9L56.5,26.9z"/>
		<polygon class="st2" points="51.9,25.9 51.9,25.6 55,23.5 54.9,23.5 51.6,24.4 51.5,24 55.9,22.9 56,23.2 52.9,25.3 53,25.3 
			56.3,24.5 56.4,24.8 		"/>
	</g>
	<g id="_1959945939776">
		<g id="_1846572206656">
			<path class="st4" d="M141.9,17.4v4c0,4.7-0.9,8.2-2.6,10.5c0-0.1-0.8-0.8-2.3-2c1.5-1.7,2.2-4.7,2.1-8.8v-6.2h7.2
				c-0.1-0.1-0.2-0.3-0.2-0.5c-0.2-0.6-0.4-0.9-0.5-1.2l3.1-0.8c0.1,0.3,0.3,0.7,0.5,1.2c0.2,0.5,0.3,0.9,0.5,1.2h6.7v2.6
				L141.9,17.4L141.9,17.4z"/>
			<path class="st4" d="M159.5,17.7l2.2,0.5c-0.5,2.3-0.9,4.4-1.4,5.9l-2.3-0.8C158.6,21.6,159.1,19.7,159.5,17.7L159.5,17.7z
				 M164.3,18.4L164.3,18.4l2.2-0.6c0.5,1.6,0.9,3.5,1.4,5.6l-2.3,0.5c-0.2-0.6-0.4-1.5-0.6-2.6C164.7,20,164.5,19.1,164.3,18.4v2.7
				c0.2,4.8-1,8.3-3.3,10.7c-0.6-0.5-1.3-1.2-2.3-1.9c2.1-1.8,3.2-4.8,3-9v-8h2.6V18.4L164.3,18.4z M167.9,31.2L167.9,31.2V13h2.6
				v5.3l1.9-0.6c0.3,0.9,0.8,2.3,1.4,4.6c0.1,0.2,0.2,0.5,0.2,0.5V12.7h2.6v18.9H174v-8.4l-2.1,0.7c-0.4-1.6-0.9-3.3-1.5-5.1v12.5
				L167.9,31.2L167.9,31.2z"/>
			<path class="st4" d="M191.1,13.8v-1.3h2.6v1.3h5.3V16h-5.3v0.9h-2.6V16h-3.7v0.9h-2.6V16h-5.5v-2.3h5.5v-1.3h2.6v1.3H191.1z
				 M179.4,31.1L179.4,31.1v-2h1.8v-5.1h16v5.1h1.8v2H179.4L179.4,31.1z M183.2,23.4L183.2,23.4h-2.5v-5.8h2.5V23.4z M183.9,29.1
				L183.9,29.1h1.9v-2.9h-1.9V29.1z M187.5,23.4L187.5,23.4H185v-6.1h2.6V23.4z M192.3,21.3L192.3,21.3l1.2-1.2h-1.8
				c-0.5,1.3-1.1,2.5-1.8,3.6c-0.3-0.3-1-0.7-2.1-1.3c1-1.6,1.8-3.4,2.4-5.5l2.4,0.5c0,0.1,0,0.2-0.1,0.3c0,0.2,0,0.2-0.1,0.3h6.2
				v2.2h-4.2c0.1,0.1,0.2,0.2,0.4,0.2c0.8,0.5,1.6,1.2,2.2,1.9l-1.6,1.7C194.5,23.1,193.4,22.3,192.3,21.3L192.3,21.3z M188.3,29.1
				L188.3,29.1h1.8v-2.9h-1.8V29.1z M194.5,26.2L194.5,26.2h-1.9v2.9h1.9V26.2z"/>
			<path class="st4" d="M200.8,22.7v-2.7h7.7c0.2-1.1,0.4-2.3,0.4-3.7h-7v-2.6h17v2.6h-7.1c-0.1,1.2-0.2,2.4-0.2,3.7h8.3v2.7h-7.6
				c1.5,3.3,4.1,5.5,7.8,6.6c-0.3,0.2-0.9,0.9-1.8,2c-0.2,0.2-0.4,0.5-0.5,0.6c-3.4-1.4-6-3.9-7.6-7.6c-1.2,3-3.7,5.5-7.4,7.4
				c-0.5-0.6-1.2-1.4-2.3-2.3c4.2-1.9,6.7-4.1,7.4-6.8H200.8L200.8,22.7z"/>
			<path class="st4" d="M228.4,24.3l0.6-1c1.1,0.8,2.4,1.9,4,3.2l-1.7,2c-0.5-0.5-1.1-1.2-2-2c-0.4-0.4-0.6-0.7-0.9-0.9v3.6
				c0,1.6-0.7,2.4-2,2.4c-0.9,0.1-1.9,0.2-3,0.2c-0.2-0.9-0.4-1.6-0.6-2.5c0.5,0.1,1.3,0.1,2.2,0.1c0.7,0,1-0.3,1-1.1v-2.6
				c-1.1,0.9-2.2,2-3.3,3.2l-0.8-2.6c1.1-0.9,2.3-1.8,3.4-2.8l0.7,1.2v-6.5H222v-2.4h3.9v-3.2h2.5v3.2h1.7c-0.5-0.9-1.1-1.6-1.6-2.2
				l1.6-1.1c0.1,0.2,0.4,0.6,0.9,1.1c0.4,0.5,0.7,0.8,0.9,1.1l-1.5,1.1h1.7v2.4h-3.7V22c0.6-0.9,1.4-1.9,2.2-3.3l1.2,0.8
				c0.9-1.9,1.7-4.3,2.3-7l2.6,0.7c-0.2,0.8-0.4,1.6-0.6,2.6h5.3v2.5h-1.2c-0.4,3.1-1.2,5.8-2.3,8.1c0.9,1.2,2.1,2.2,3.6,3
				c-0.5,0.4-1,1.2-1.7,2.5c-1.3-0.9-2.5-1.9-3.3-3.1c-1.2,1.2-2.5,2.4-4,3.3c-0.5-0.6-1.2-1.4-2-2.3c1.9-0.9,3.3-2.1,4.5-3.6
				c-0.7-1.3-1.2-2.8-1.4-4.5c-0.4,0.5-0.6,0.9-0.9,1.3c-0.2-0.2-0.5-0.5-1-1.2c-0.1-0.2-0.2-0.2-0.2-0.3c-0.4,0.5-0.9,1.2-1.3,1.9
				l-1.6-1.2L228.4,24.3L228.4,24.3z M221.9,19.8L221.9,19.8l1.7-1.1c0.6,0.9,1.4,1.9,2.3,3.3l-1.9,1.1c-0.4-0.7-1-1.7-1.8-3
				C222,20,221.9,19.9,221.9,19.8z M235.1,18.2L235.1,18.2l-0.1,0.2c0.2,1.9,0.6,3.7,1.3,5.3c0.7-1.6,1.2-3.5,1.4-5.5H235.1z"/>
			<path class="st4" d="M253.4,23.7h7.9v1.8c-0.7,1.2-1.6,2.3-2.6,3.2c1.2,0.4,2.5,0.6,3.9,0.7c-0.4,0.5-0.8,1.3-1.3,2.3
				c-1.8-0.2-3.4-0.8-4.8-1.6c-1.5,0.8-3.1,1.4-4.9,1.8c-0.3-0.8-0.7-1.5-1.2-2.1c-0.4,0.4-0.8,0.9-1.2,1.2c-0.3-0.5-0.8-1-1.2-1.6
				c-0.2-0.2-0.3-0.3-0.3-0.4v0.2c0,1.4-0.6,2.1-1.8,2.2c-0.7,0.1-1.5,0.2-2.3,0.2c-0.2-0.9-0.3-1.6-0.5-2.4h1.5
				c0.3,0,0.5-0.2,0.5-0.7v-3.7c-0.7,0.2-1.3,0.3-1.9,0.5l-0.2-2.9c0.1,0,0.2,0,0.4-0.1c0.5-0.2,1-0.2,1.7-0.3v-3.5h-2v-2.4h2v-3.7
				h2.6v3.7h1.6v2.4h-1.6v2.9c0.2-0.1,0.4-0.1,0.6-0.2c0.3-0.1,0.6-0.2,0.8-0.2v2.6c-0.5,0.2-1,0.3-1.4,0.4V29
				c1.7-1.6,2.9-3.8,3.5-6.4h-1.7v-1.9h2.1c0-0.2,0-0.3,0.1-0.5v-0.5h-1.9v-2h1.1c-0.1-0.2-0.2-0.4-0.3-0.6
				c-0.2-0.3-0.2-0.5-0.4-0.6l2.3-0.7c0.3,0.5,0.5,1.2,0.9,1.9h1.6c-0.2-0.6-0.4-1.2-0.6-1.7l2.3-0.6c0.2,0.5,0.3,1.1,0.5,1.8
				c0.1,0.2,0.1,0.5,0.2,0.5h0.7c0.2-0.2,0.5-0.7,0.8-1.2c0.3-0.5,0.5-0.9,0.7-1.2l2.3,0.9c-0.2,0.2-0.4,0.6-0.7,1.1
				c-0.2,0.2-0.3,0.5-0.5,0.5h1.7v2h-8c0,0.3-0.1,0.6-0.2,1h8.4v1.9h-8.7C253.6,23,253.5,23.4,253.4,23.7L253.4,23.7z M249.3,13.5
				L249.3,13.5c3.7-0.2,7.8-0.5,12.3-0.9l0.5,2.3c-5.2,0.4-9.3,0.7-12.2,0.9C249.8,15.3,249.6,14.6,249.3,13.5z M250.5,29.6
				L250.5,29.6c1.3-0.2,2.6-0.5,3.7-0.9c-0.7-0.6-1.3-1.3-1.9-2C251.7,28,251.1,29,250.5,29.6z M256.5,27.6L256.5,27.6
				c1-0.8,1.7-1.4,2-1.9h-4.2C255,26.4,255.8,27,256.5,27.6z"/>
			<path class="st4" d="M264.4,20.2v-2.4h1.6v-5.1h2.6v5.1h1.6v2.4h-1.6v11.5H266V20.2H264.4z M269.2,24.8L269.2,24.8
				c0.7-1.7,1.3-3.4,1.9-5.1l2.1,0.5c-0.5,1.8-1.1,3.6-1.7,5.4c-0.1,0-0.2-0.1-0.3-0.2C270.3,25.1,269.7,24.9,269.2,24.8L269.2,24.8
				z M281.5,28L281.5,28c0,2.3-1,3.3-3.1,3.4c-0.6,0.1-1.6,0.1-2.7,0.1c-0.2-0.9-0.4-1.8-0.6-2.6c1,0.1,1.7,0.1,2.1,0.1
				c1.1,0,1.6-0.5,1.7-1.4c0.1-2.2,0.2-5.2,0.2-9.1h-2.3c-0.2,5.9-1.9,10.4-5.2,13.4c-0.6-0.6-1.3-1.3-2.2-2.1
				c3-2.3,4.6-6.1,4.8-11.3h-3.2V16h3.3v-3.4h2.6V16h5c-0.1,1.6-0.1,3.2-0.1,4.5c0.5,0.4,1.2,0.9,1.9,1.7c0.2,0.1,0.2,0.2,0.3,0.2
				l-0.6,3.1c-0.2-0.2-0.5-0.5-0.9-0.9c-0.3-0.4-0.6-0.7-0.8-0.9c0,0.7-0.1,1.6-0.1,2.8L281.5,28L281.5,28z"/>
			<path class="st4" d="M294,12.4h3.4l-0.5,0.7c1.7,2.5,4.4,4.7,8.3,6.4c-0.4,0.4-0.9,1-1.5,1.9c-0.2,0.2-0.3,0.3-0.3,0.4
				c-1-0.5-1.9-1-2.7-1.6v1.3H290v-1.4c-0.2,0.2-0.7,0.5-1.4,0.9c-0.5,0.3-1,0.6-1.3,0.8c-0.2-0.3-0.7-0.9-1.5-1.9
				c0.6,0.7,0.5,0.5-0.3-0.5C289.7,17.2,292.6,14.9,294,12.4L294,12.4z M286.2,25.6L286.2,25.6v-2.5h18.1v2.5h-4.8
				c0.4,0.5,1.1,1.4,2,2.6c0.9,1.1,1.6,1.9,2,2.4l-2.4,1.4c-0.1-0.1-0.2-0.3-0.4-0.5c-0.2-0.3-0.4-0.5-0.5-0.7h-1
				c-1.8,0.1-4.6,0.2-8.3,0.5h-0.2c-0.4,0-1,0.2-1.9,0.3l-1.2-2.3c1.2-0.8,2.5-2,3.7-3.7H286.2z M295.3,15.3L295.3,15.3
				c-1,1.3-2.3,2.6-4,3.8h7.8C297.6,17.9,296.3,16.7,295.3,15.3z M297,26.7L297,26.7l1.6-1.1h-4.1c-0.7,0.9-1.6,1.9-2.6,3
				c0.8,0,2.3-0.1,4.5-0.1c0.8-0.1,1.4-0.1,1.9-0.1C298,27.9,297.5,27.2,297,26.7L297,26.7z"/>
			<path class="st4" d="M142.3,45c-0.4,0.1-1.2,0.4-2.2,0.4c-1.1,0-1.9-0.3-2.6-0.9c-0.6-0.6-1-1.6-1-2.6c0-2.2,1.5-3.7,3.9-3.7
				c0.8,0,1.4,0.2,1.7,0.4l-0.2,0.7c-0.4-0.2-0.9-0.3-1.6-0.3c-1.7,0-2.8,1.1-2.8,2.9c0,1.8,1.1,2.9,2.7,2.9c0.6,0,1-0.1,1.2-0.2
				v-2.1H140v-0.7h2.3V45z"/>
			<path class="st4" d="M147.8,43.9c0,0.5,0,0.9,0,1.4H147l-0.1-0.9l0,0c-0.2,0.4-0.8,0.9-1.7,0.9c-0.8,0-1.7-0.5-1.7-2.3v-3h0.9V43
				c0,1,0.3,1.6,1.2,1.6c0.6,0,1.1-0.4,1.2-0.9c0-0.1,0.1-0.3,0.1-0.5v-3.1h0.9L147.8,43.9L147.8,43.9z"/>
			<path class="st4" d="M152.7,44.1c0,0.5,0,0.9,0.1,1.2h-0.9l-0.1-0.7l0,0c-0.3,0.5-0.9,0.8-1.6,0.8c-1,0-1.6-0.7-1.6-1.5
				c0-1.2,1.1-1.9,3-1.9V42c0-0.5-0.1-1.2-1.2-1.2c-0.5,0-0.9,0.2-1.3,0.4l-0.2-0.6c0.4-0.2,1-0.4,1.6-0.4c1.6,0,1.9,1,1.9,2
				L152.7,44.1L152.7,44.1z M151.8,42.7L151.8,42.7c-1,0-2.1,0.2-2.1,1.2c0,0.6,0.4,0.9,0.9,0.9c0.6,0,1.1-0.4,1.2-0.9
				c0-0.1,0-0.2,0-0.2V42.7z"/>
			<path class="st4" d="M153.9,41.6c0-0.5,0-0.9,0-1.4h0.8l0.1,0.9l0,0c0.3-0.5,0.9-0.9,1.7-0.9c0.7,0,1.8,0.4,1.8,2.2v3h-0.9v-3
				c0-0.9-0.3-1.6-1.2-1.6c-0.6,0-1.1,0.5-1.2,1c0,0.1-0.1,0.2-0.1,0.4v3.1h-0.9L153.9,41.6L153.9,41.6z"/>
			<path class="st4" d="M164,44.5c0,1.2-0.2,1.9-0.8,2.3c-0.5,0.5-1.2,0.6-1.8,0.6c-0.6,0-1.3-0.2-1.7-0.5l0.2-0.7
				c0.3,0.2,0.9,0.5,1.5,0.5c0.9,0,1.6-0.5,1.6-1.8v-0.6l0,0c-0.3,0.5-0.9,0.9-1.6,0.9c-1.2,0-2.2-1-2.2-2.5c0-1.7,1.2-2.6,2.3-2.6
				c0.9,0,1.3,0.5,1.6,0.9l0,0l0.1-0.8h0.8c0,0.4,0,0.8,0,1.4L164,44.5L164,44.5z M163.1,42.2L163.1,42.2c0-0.2,0-0.3-0.1-0.4
				c-0.2-0.5-0.6-1-1.2-1c-0.9,0-1.6,0.8-1.6,1.9c0,1,0.5,1.8,1.6,1.8c0.5,0,1-0.3,1.2-0.9c0.1-0.2,0.1-0.3,0.1-0.5V42.2z"/>
			<path class="st4" d="M164.7,44.8l2.3-3c0.2-0.2,0.5-0.5,0.7-0.8l0,0h-2.8v-0.8h3.9v0.6l-2.3,3c-0.2,0.2-0.5,0.5-0.7,0.8l0,0h3
				v0.8h-4.2L164.7,44.8L164.7,44.8z"/>
			<path class="st4" d="M169.6,37.8h0.9V41l0,0c0.2-0.2,0.4-0.5,0.7-0.6c0.2-0.2,0.6-0.2,0.9-0.2c0.7,0,1.8,0.4,1.8,2.2v3H173v-3
				c0-0.9-0.3-1.6-1.2-1.6c-0.6,0-1.1,0.5-1.2,0.9c-0.1,0.2-0.1,0.3-0.1,0.5v3.1h-0.9L169.6,37.8L169.6,37.8z"/>
			<path class="st4" d="M179.9,42.7c0,1.9-1.3,2.7-2.6,2.7c-1.4,0-2.4-1-2.4-2.6c0-1.7,1.1-2.6,2.5-2.6
				C178.9,40.1,179.9,41.1,179.9,42.7L179.9,42.7z M175.8,42.8L175.8,42.8c0,1.1,0.6,1.9,1.6,1.9c0.9,0,1.6-0.8,1.6-1.9
				c0-0.9-0.5-1.9-1.6-1.9S175.8,41.8,175.8,42.8z"/>
			<path class="st4" d="M185.1,43.9c0,0.5,0,0.9,0.1,1.4h-0.9l-0.1-0.9l0,0c-0.2,0.4-0.8,0.9-1.7,0.9c-0.8,0-1.7-0.5-1.7-2.3v-3h0.9
				V43c0,1,0.2,1.6,1.1,1.6c0.6,0,1.1-0.4,1.2-0.9c0.1-0.1,0.1-0.3,0.1-0.5v-3.1h0.9L185.1,43.9L185.1,43.9z"/>
			<path class="st4" d="M188.5,38.3c0.5-0.1,1.1-0.2,1.7-0.2c0.9,0,1.5,0.2,1.9,0.5c0.4,0.3,0.6,0.7,0.6,1.2c0,0.7-0.5,1.3-1.2,1.6
				l0,0c0.7,0.2,1.5,0.7,1.5,1.8c0,0.6-0.2,1-0.6,1.4c-0.5,0.5-1.2,0.6-2.4,0.6c-0.6,0-1.2,0-1.5-0.1V38.3z M189.4,41.2L189.4,41.2
				h0.9c0.9,0,1.6-0.5,1.6-1.2c0-0.9-0.6-1.2-1.6-1.2c-0.5,0-0.7,0-0.9,0.1V41.2z M189.4,44.6L189.4,44.6c0.2,0,0.5,0,0.8,0
				c0.9,0,1.9-0.3,1.9-1.3c0-1-0.9-1.4-1.9-1.4h-0.8V44.6z"/>
			<polygon class="st4" points="194,37.8 194.9,37.8 194.9,45.3 194,45.3 			"/>
			<path class="st4" d="M200.5,43.9c0,0.5,0,0.9,0,1.4h-0.8l-0.1-0.9l0,0c-0.2,0.4-0.8,0.9-1.7,0.9c-0.8,0-1.7-0.5-1.7-2.3v-3h0.9
				V43c0,1,0.3,1.6,1.2,1.6c0.6,0,1.1-0.4,1.2-0.9c0.1-0.1,0.1-0.3,0.1-0.5v-3.1h0.9L200.5,43.9L200.5,43.9z"/>
			<path class="st4" d="M202.4,42.9c0,1.2,0.8,1.8,1.7,1.8c0.7,0,1.1-0.2,1.4-0.3l0.2,0.7c-0.3,0.2-0.9,0.3-1.7,0.3
				c-1.6,0-2.5-1-2.5-2.6c0-1.6,0.9-2.7,2.4-2.7c1.6,0,2.1,1.4,2.1,2.3c0,0.2,0,0.4,0,0.5H202.4z M205,42.2L205,42.2
				c0.1-0.5-0.2-1.5-1.2-1.5c-0.9,0-1.3,0.9-1.4,1.5H205z"/>
			<path class="st4" d="M208.9,44.2c0.4,0.3,1,0.5,1.6,0.5c0.9,0,1.5-0.5,1.5-1.2c0-0.7-0.4-1.1-1.3-1.4c-1.2-0.5-1.9-1-1.9-2
				c0-1.2,0.9-1.9,2.3-1.9c0.8,0,1.2,0.2,1.6,0.3l-0.2,0.8c-0.2-0.2-0.7-0.3-1.3-0.3c-1,0-1.3,0.5-1.3,1c0,0.7,0.4,1,1.4,1.4
				c1.2,0.5,1.8,1,1.8,2.1c0,1.1-0.8,2-2.5,2c-0.7,0-1.4-0.2-1.8-0.5L208.9,44.2L208.9,44.2z"/>
			<path class="st4" d="M214.9,42.5L214.9,42.5c0.2-0.2,0.3-0.4,0.5-0.5l1.5-1.8h1.2l-2,2.1l2.3,3h-1.1l-1.8-2.5l-0.5,0.5v1.9h-0.9
				v-7.5h0.9V42.5L214.9,42.5z"/>
			<path class="st4" d="M219,40.2l1.2,3c0.1,0.3,0.2,0.7,0.3,1l0,0c0.1-0.3,0.2-0.7,0.3-1l1-3h1l-1.4,3.7c-0.7,1.7-1.1,2.6-1.8,3.2
				c-0.4,0.4-0.9,0.5-1.1,0.6l-0.2-0.8c0.2-0.1,0.5-0.2,0.8-0.5c0.3-0.2,0.6-0.5,0.8-1.1c0.1-0.1,0.1-0.2,0.1-0.2
				c0-0.1,0-0.2-0.1-0.3l-1.9-4.7L219,40.2L219,40.2z"/>
			<path class="st4" d="M225.5,38.3c0.5-0.2,1.2-0.2,1.8-0.2c1,0,1.6,0.2,2,0.5c0.4,0.3,0.5,0.8,0.5,1.3c0,1-0.5,1.6-1.3,1.9l0,0
				c0.5,0.2,0.9,0.7,1.1,1.5c0.2,0.9,0.4,1.6,0.5,1.9h-0.9c-0.2-0.2-0.3-0.9-0.5-1.7c-0.2-1-0.5-1.3-1.4-1.4h-0.9v3.1h-0.9V38.3z
				 M226.4,41.5L226.4,41.5h0.9c1,0,1.6-0.5,1.6-1.3c0-0.9-0.7-1.3-1.6-1.3c-0.5,0-0.8,0-0.9,0.1V41.5L226.4,41.5z"/>
			<path class="st4" d="M231.5,42.9c0,1.2,0.8,1.8,1.7,1.8c0.7,0,1.1-0.2,1.4-0.3l0.2,0.7c-0.3,0.2-0.9,0.3-1.6,0.3
				c-1.6,0-2.6-1-2.6-2.6c0-1.6,0.9-2.7,2.4-2.7c1.6,0,2.1,1.4,2.1,2.3c0,0.2,0,0.4,0,0.5H231.5z M234.2,42.2L234.2,42.2
				c0-0.5-0.2-1.5-1.3-1.5c-0.9,0-1.3,0.9-1.4,1.5H234.2L234.2,42.2z"/>
			<path class="st4" d="M235.9,44.3c0.2,0.2,0.7,0.4,1.2,0.4c0.7,0,1-0.3,1-0.8c0-0.4-0.2-0.6-0.9-0.9c-0.9-0.3-1.4-0.8-1.4-1.4
				c0-0.9,0.7-1.5,1.8-1.5c0.5,0,1,0.2,1.2,0.3l-0.2,0.6c-0.2-0.1-0.5-0.2-1-0.2c-0.5,0-0.9,0.3-0.9,0.7c0,0.4,0.3,0.5,0.9,0.9
				c0.9,0.3,1.4,0.8,1.4,1.5c0,0.9-0.7,1.6-1.9,1.6c-0.5,0-1.1-0.2-1.4-0.3L235.9,44.3L235.9,44.3z"/>
			<path class="st4" d="M243.6,45.1c-0.2,0.2-0.8,0.3-1.5,0.3c-1.6,0-2.6-1-2.6-2.6c0-1.6,1.1-2.7,2.8-2.7c0.5,0,1,0.2,1.2,0.2
				l-0.2,0.7c-0.2-0.1-0.5-0.2-1-0.2c-1.2,0-1.9,0.9-1.9,1.9c0,1.2,0.8,1.9,1.8,1.9c0.5,0,0.9-0.2,1.2-0.3L243.6,45.1z"/>
			<path class="st4" d="M248.7,43.9c0,0.5,0,0.9,0,1.4H248l-0.1-0.9l0,0c-0.2,0.4-0.8,0.9-1.7,0.9c-0.8,0-1.7-0.5-1.7-2.3v-3h0.9V43
				c0,1,0.2,1.6,1.1,1.6c0.6,0,1.1-0.4,1.2-0.9c0.1-0.1,0.1-0.3,0.1-0.5v-3.1h0.9L248.7,43.9L248.7,43.9z"/>
			<path class="st4" d="M250.6,42.9c0,1.2,0.8,1.8,1.7,1.8c0.7,0,1.1-0.2,1.4-0.3l0.2,0.7c-0.3,0.2-0.9,0.3-1.7,0.3
				c-1.6,0-2.5-1-2.5-2.6c0-1.6,0.9-2.7,2.4-2.7c1.6,0,2.1,1.4,2.1,2.3c0,0.2,0,0.4,0,0.5H250.6z M253.3,42.2L253.3,42.2
				c0-0.5-0.3-1.5-1.3-1.5c-0.9,0-1.3,0.9-1.4,1.5H253.3L253.3,42.2z"/>
			<path class="st4" d="M258.3,43.1l-0.7,2.3h-0.9l2.4-7.2h1.1l2.4,7.2h-1l-0.7-2.3L258.3,43.1L258.3,43.1z M260.7,42.4L260.7,42.4
				l-0.7-2.1c-0.2-0.4-0.2-0.9-0.4-1.2l0,0c-0.1,0.4-0.2,0.9-0.3,1.2l-0.7,2.1H260.7L260.7,42.4z"/>
			<path class="st4" d="M263.3,44.3c0.2,0.2,0.7,0.4,1.2,0.4c0.7,0,1-0.3,1-0.8c0-0.4-0.2-0.6-0.9-0.9c-0.9-0.3-1.3-0.8-1.3-1.4
				c0-0.9,0.6-1.5,1.7-1.5c0.5,0,1,0.2,1.2,0.3L266,41c-0.2-0.1-0.5-0.2-1-0.2c-0.5,0-0.9,0.3-0.9,0.7c0,0.4,0.3,0.5,0.9,0.9
				c0.9,0.3,1.4,0.8,1.4,1.5c0,0.9-0.7,1.6-1.9,1.6c-0.5,0-1.1-0.2-1.4-0.3L263.3,44.3L263.3,44.3z"/>
			<path class="st4" d="M267.3,44.3c0.2,0.2,0.7,0.4,1.2,0.4c0.7,0,1-0.3,1-0.8c0-0.4-0.2-0.6-0.9-0.9c-0.9-0.3-1.4-0.8-1.4-1.4
				c0-0.9,0.7-1.5,1.8-1.5c0.5,0,0.9,0.2,1.2,0.3l-0.2,0.6c-0.2-0.1-0.5-0.2-1-0.2c-0.5,0-0.9,0.3-0.9,0.7c0,0.4,0.3,0.5,0.9,0.9
				c0.9,0.3,1.3,0.8,1.3,1.5c0,0.9-0.6,1.6-1.9,1.6c-0.5,0-1.1-0.2-1.4-0.3L267.3,44.3L267.3,44.3z"/>
			<path class="st4" d="M275.9,42.7c0,1.9-1.2,2.7-2.5,2.7c-1.4,0-2.5-1-2.5-2.6c0-1.7,1.2-2.6,2.6-2.6
				C275,40.1,275.9,41.1,275.9,42.7z M271.9,42.8L271.9,42.8c0,1.1,0.7,1.9,1.6,1.9c0.9,0,1.6-0.8,1.6-1.9c0-0.9-0.4-1.9-1.5-1.9
				C272.4,40.8,271.9,41.8,271.9,42.8L271.9,42.8z"/>
			<path class="st4" d="M280.5,45.1c-0.2,0.2-0.8,0.3-1.4,0.3c-1.6,0-2.6-1-2.6-2.6c0-1.6,1.1-2.7,2.7-2.7c0.5,0,1,0.2,1.3,0.2
				l-0.2,0.7c-0.2-0.1-0.5-0.2-1.1-0.2c-1.2,0-1.8,0.9-1.8,1.9c0,1.2,0.8,1.9,1.8,1.9c0.5,0,0.9-0.2,1.1-0.3L280.5,45.1z"/>
			<path class="st4" d="M282.5,38.8c0,0.3-0.2,0.5-0.6,0.5c-0.3,0-0.5-0.2-0.5-0.5c0-0.4,0.2-0.6,0.6-0.6
				C282.2,38.2,282.5,38.4,282.5,38.8z M281.5,40.2L281.5,40.2h0.9v5.1h-0.9V40.2L281.5,40.2z"/>
			<path class="st4" d="M287.3,44.1c0,0.5,0,0.9,0.1,1.2h-0.9l-0.1-0.7l0,0c-0.3,0.5-0.9,0.8-1.6,0.8c-1.1,0-1.6-0.7-1.6-1.5
				c0-1.2,1.2-1.9,3.1-1.9V42c0-0.5-0.2-1.2-1.2-1.2c-0.5,0-1,0.2-1.3,0.4l-0.2-0.6c0.5-0.2,1-0.4,1.7-0.4c1.6,0,1.9,1,1.9,2
				L287.3,44.1L287.3,44.1z M286.4,42.7L286.4,42.7c-1,0-2.2,0.2-2.2,1.2c0,0.6,0.5,0.9,0.9,0.9c0.6,0,1.1-0.4,1.2-0.9
				c0.1-0.1,0.1-0.2,0.1-0.2V42.7z"/>
			<path class="st4" d="M289.7,38.9v1.2h1.3v0.7h-1.3v2.8c0,0.6,0.2,0.9,0.6,0.9c0.3,0,0.5,0,0.5-0.1l0.1,0.7
				c-0.2,0.1-0.5,0.2-0.9,0.2s-0.8-0.2-1-0.4c-0.2-0.3-0.3-0.7-0.3-1.3v-2.8H288v-0.7h0.8v-0.9L289.7,38.9L289.7,38.9z"/>
			<path class="st4" d="M292.9,38.8c0,0.3-0.2,0.5-0.6,0.5c-0.3,0-0.5-0.2-0.5-0.5c0-0.4,0.2-0.6,0.5-0.6
				C292.7,38.2,292.9,38.4,292.9,38.8z M291.8,40.2L291.8,40.2h0.9v5.1h-0.9V40.2L291.8,40.2z"/>
			<path class="st4" d="M298.8,42.7c0,1.9-1.3,2.7-2.6,2.7c-1.4,0-2.4-1-2.4-2.6c0-1.7,1.1-2.6,2.5-2.6
				C297.7,40.1,298.8,41.1,298.8,42.7z M294.7,42.8L294.7,42.8c0,1.1,0.6,1.9,1.5,1.9c0.9,0,1.6-0.8,1.6-1.9c0-0.9-0.4-1.9-1.5-1.9
				S294.7,41.8,294.7,42.8z"/>
			<path class="st4" d="M299.7,41.6c0-0.5,0-0.9-0.1-1.4h0.9l0.1,0.9l0,0c0.2-0.5,0.9-0.9,1.7-0.9c0.7,0,1.8,0.4,1.8,2.2v3h-0.9v-3
				c0-0.9-0.3-1.6-1.2-1.6c-0.6,0-1.1,0.5-1.2,1c-0.1,0.1-0.1,0.2-0.1,0.4v3.1h-0.9V41.6z"/>
		</g>
		<g id="_1846572194976">
			<g>
				<path class="st5" d="M100.1,57.9c-12.9-5.1-18.2-12-20.3-16.8c-2.3-5.2-1.4-9.3-1.4-9.3l0,0l1.2-8.9c0.2-2,0-4.1-0.9-5.9
					l-1.6-3.6c-0.2-0.5-0.2-1.2,0.2-1.8l6.4-8.9C84.1,2.3,84.7,2,85.3,2H115c0.5,0,1.1,0.3,1.4,0.7l6.5,8.9c0.4,0.5,0.5,1.2,0.2,1.8
					l-1.6,3.6c-0.9,1.9-1.2,3.9-0.9,5.9l1.2,8.9l0,0c0,0.1,0.8,4.2-1.5,9.4C117.4,48.1,110.4,53.9,100.1,57.9L100.1,57.9z"/>
				<path class="st6" d="M115,2.9c0.3,0,0.6,0.2,0.8,0.4l6.5,8.8c0.2,0.3,0.2,0.7,0.1,1l-1.6,3.5c-0.9,2-1.2,4.2-0.9,6.4l1.2,8.9
					l0.1,0.1l0,0c0,0.1,0.7,4.1-1.6,9c-1.3,3-3.3,5.8-6.2,8.3c-3.4,3-7.9,5.7-13.3,7.8c-5.4-2.1-9.9-4.8-13.3-7.8
					c-2.7-2.5-4.8-5.3-6.2-8.3c-2.2-5-1.5-9-1.5-9v-0.1v-0.1l1.2-8.9c0.3-2.2,0-4.4-0.9-6.4L78,13.1c-0.2-0.3-0.2-0.7,0.1-1l6.5-8.8
					C84.7,3,85,2.9,85.3,2.9L115,2.9L115,2.9z M115,1.2L115,1.2H85.3c-0.9,0-1.6,0.4-2.1,1L76.7,11c-0.5,0.8-0.7,1.8-0.3,2.7
					l1.6,3.5c0.8,1.7,1.1,3.6,0.8,5.5l-1.2,8.9c0,0-3.4,17.1,22.6,27.2c26.1-10.1,22.6-27.2,22.6-27.2l-1.2-8.9
					c-0.2-1.9,0-3.7,0.8-5.5l1.6-3.5c0.4-0.9,0.3-1.9-0.2-2.7l-6.5-8.8C116.6,1.6,115.9,1.2,115,1.2L115,1.2z"/>
			</g>
			<g>
				<path class="st7" d="M92.9,38.8c-0.1,0.6,0.1,0.8,0.1,0.8c0.5,0.5,2.6,3.3,3.1,4c0.5,0.7,1,1.6,1,1.6s0.2,0.5,0.6,0.7
					c0.3,0.2,1.5,0.4,2,0.5c0.4,0,1.3,0.2,1.4,0.2c1.3,0.2,1.4-0.4,1.4-0.5c-0.1-0.2-0.3-0.2-0.3-0.2L99.7,45
					c-0.3-0.2,0-0.4,0.2-0.3c0.7,0.2,2.3,0.7,2.6,0.8c0.2,0.1,0.2,0.1,0.5,0.1c0.3,0,0.9-0.1,0.9-0.8c0-0.1-0.1-0.1-0.2-0.2
					c-0.2-0.1-2.6-1-2.7-1c-0.2-0.1-0.2-0.4,0.1-0.4c0.2,0.1,2.6,1,3.1,1.1c0.5,0.2,0.9-0.9,0.9-0.9s0.1-0.4-0.1-0.4
					c-0.2,0-1.6-0.5-3.1-1.3c0-0.1-0.1-0.3,0.2-0.4c0.1,0,1.9,1.2,3.2,1.3c0.2,0,0.3-0.2,0.3-0.2s0.5-0.3,0.5-0.9
					c0-0.2-0.2-0.4-0.2-0.4c-0.1-0.1-0.4,0-1-0.2c-1-0.4-2.5-1-3.1-2c-0.5-0.8-0.1-1.6,0.7-2.1c0.3-0.2,0.9-0.6,0.5-1.6
					c0,0-0.1-0.2-0.3-0.2c-0.9,0.8-1.5,0.9-2.3,1.1c-2.1,0.2-1.9,0.7-2.6,0.6c-0.3,0-0.6,0-1.2-0.4c-0.4-0.4-0.7-0.9-1.4-1.1
					C94.4,35.2,93.2,37.2,92.9,38.8L92.9,38.8z"/>
				<path class="st7" d="M105.4,40.7c0.6,0,0.8-0.1,0.9-0.2c0.5-0.5,3.3-2.6,4-3c0.7-0.5,1.6-0.9,1.6-0.9s0.5-0.3,0.7-0.6
					c0.2-0.3,0.5-1.5,0.5-2.1c0.1-0.3,0.2-1.2,0.2-1.4c0.2-1.2-0.3-1.3-0.5-1.3c-0.2,0-0.2,0.2-0.2,0.2s-0.9,2.6-0.9,2.6
					c-0.2,0.2-0.4-0.1-0.3-0.2c0.2-0.7,0.7-2.3,0.8-2.6c0.1-0.2,0.2-0.2,0.2-0.5c0-0.3-0.1-0.8-0.8-0.9c-0.1,0-0.2,0.2-0.2,0.2
					c-0.1,0.1-1.1,2.6-1.1,2.7c-0.1,0.1-0.4,0.2-0.4-0.2c0.1-0.2,1.1-2.6,1.2-3c0.2-0.5-1-1-1-1s-0.3-0.1-0.3,0.1
					c0,0.2-0.5,1.6-1.4,3c-0.1,0.1-0.3,0.2-0.3-0.2c0-0.1,1.1-1.9,1.3-3.2c0-0.2-0.2-0.3-0.2-0.3s-0.3-0.5-0.9-0.5
					c-0.2,0-0.4,0.2-0.4,0.2c-0.1,0.1,0,0.4-0.2,1c-0.3,0.9-1,2.4-2,3c-0.8,0.5-1.5,0.1-2-0.7c-0.2-0.3-0.6-0.9-1.6-0.5
					c0,0-0.2,0.1-0.3,0.2c0.8,0.9,0.9,1.6,1.1,2.3c0.2,2.1,0.6,1.9,0.6,2.6c0,0.4,0,0.6-0.5,1.2c-0.3,0.4-0.9,0.7-1.1,1.4
					C101.9,39.1,103.9,40.3,105.4,40.7L105.4,40.7z"/>
				<path class="st7" d="M107.6,28.1c0-0.6-0.1-0.8-0.1-0.8c-0.5-0.5-2.6-3.4-3-4.1c-0.5-0.7-0.9-1.6-0.9-1.6s-0.3-0.5-0.6-0.7
					c-0.3-0.2-1.5-0.5-2-0.5c-0.4-0.1-1.3-0.3-1.4-0.3c-1.3-0.2-1.4,0.4-1.4,0.5c0.1,0.2,0.3,0.2,0.3,0.2s2.5,0.8,2.6,0.9
					c0.2,0.2-0.1,0.4-0.2,0.3c-0.7-0.2-2.3-0.8-2.6-0.9C98,21.1,98,21.1,97.7,21c-0.3,0-0.8,0.1-0.9,0.8c0,0.1,0.2,0.2,0.2,0.2
					c0.1,0,2.6,1,2.7,1.1c0.1,0.1,0.2,0.3-0.2,0.3c-0.2,0-2.6-1.1-3-1.2c-0.5-0.2-1,1-1,1s-0.1,0.3,0.1,0.3c0.2,0.1,1.6,0.5,3,1.5
					c0.1,0,0.2,0.3-0.2,0.3c-0.1,0-1.9-1.2-3.1-1.4c-0.2,0-0.3,0.2-0.3,0.2s-0.5,0.3-0.5,0.9c0,0.2,0.1,0.4,0.2,0.4
					c0,0.1,0.4,0,1,0.2c0.9,0.3,2.4,1,3,2c0.5,0.8,0,1.6-0.8,2.1c-0.3,0.2-1,0.6-0.6,1.5c0,0,0.2,0.3,0.3,0.3c0.9-0.8,1.5-0.9,2.3-1
					c2.1-0.2,1.9-0.6,2.6-0.6c0.3,0,0.6,0.1,1.2,0.5c0.4,0.4,0.7,0.9,1.3,1.1C105.9,31.6,107.2,29.7,107.6,28.1L107.6,28.1z"/>
				<path class="st7" d="M95,26c-0.6,0-0.8,0.1-0.9,0.1c-0.5,0.5-3.3,2.6-4,3c-0.8,0.5-1.6,0.9-1.6,0.9s-0.5,0.2-0.7,0.5
					c-0.2,0.4-0.5,1.6-0.5,2.1c-0.1,0.4-0.3,1.2-0.3,1.4c-0.2,1.3,0.4,1.4,0.5,1.3c0.2,0,0.2-0.2,0.2-0.2s0.9-2.5,0.9-2.6
					c0.2-0.2,0.4,0.1,0.3,0.2c-0.2,0.7-0.8,2.3-0.9,2.6c-0.1,0.2-0.1,0.2-0.1,0.5c-0.1,0.3,0,0.9,0.7,0.9c0.1,0,0.2-0.2,0.2-0.2
					c0-0.1,1-2.6,1.1-2.7c0.1-0.1,0.4-0.2,0.3,0.2c0,0.2-1.1,2.6-1.2,3c-0.2,0.5,1,1,1,1s0.3,0.1,0.3-0.1c0-0.2,0.5-1.6,1.5-3
					c0.1-0.1,0.3-0.2,0.3,0.2c0,0.1-1.2,2-1.4,3.2c0,0.2,0.2,0.3,0.2,0.3s0.3,0.5,0.9,0.5c0.2,0,0.4-0.1,0.4-0.2c0,0,0-0.4,0.2-1
					c0.3-0.9,1-2.4,2.1-3c0.7-0.5,1.5,0,2,0.8c0.2,0.3,0.6,1,1.5,0.6c0,0,0.3-0.2,0.3-0.3c-0.8-0.9-0.9-1.5-1-2.3
					c-0.2-2-0.6-1.9-0.6-2.6c0.1-0.3,0.1-0.6,0.5-1.2c0.4-0.4,1-0.6,1.1-1.3C98.5,27.7,96.5,26.4,95,26L95,26z"/>
			</g>
			<path class="st2" d="M87.3,21.4c1.3-1,2.8-2.6,5.3-3.7C90.7,17.7,87.9,19.1,87.3,21.4z M113.4,21.4L113.4,21.4
				c-1.4-1-2.8-2.6-5.3-3.7C109.9,17.7,112.7,19.1,113.4,21.4z M106.7,48L106.7,48c0.2,0,0.2,0,0.4,0C107,48,106.8,48,106.7,48
				c0.4-0.2,0.6-0.5,0.9-0.7c0.4-0.3,0.6-0.7,0.9-1.1c0.2-0.3,0.4-0.5,0.5-0.8c0.8-1.1,1.9-1.6,3-2.3l0,0c-0.2,0.4-0.4,0.7-0.5,1.1
				c-0.2,0.6-0.4,1.2-0.6,1.7c-0.2,0.4-0.5,0.8-0.9,1.1c-0.3,0.2-0.6,0.5-0.9,0.5c-0.1,0.1-0.2,0.1-0.2,0.2c0.6-0.2,1.2-0.5,1.5-0.6
				c0.5-0.2,1-0.5,1.6-0.6c1-0.3,2.1-0.5,3-0.6c-0.4,0.5-0.8,0.9-1.3,1.4c-1.2,1.1-2.5,1.6-4.1,1.3C108.6,48.5,107.2,48.4,106.7,48
				L106.7,48z M111.7,45.6L111.7,45.6c0.1,0,0.2-0.1,0.4-0.2C112,45.6,111.9,45.6,111.7,45.6c0.2-0.3,0.4-0.6,0.5-0.9
				c0.2-0.5,0.3-0.9,0.4-1.3c0.1-0.3,0.2-0.6,0.2-0.9c0.3-1.2,1-2,1.8-3c-0.2,0.5-0.2,0.8-0.2,1.2c0,0.6,0.1,1.2,0,1.7
				c-0.1,0.5-0.2,0.9-0.4,1.2c-0.2,0.3-0.4,0.5-0.6,0.8c-0.1,0.1-0.2,0.1-0.2,0.2c0.4-0.3,0.8-0.7,1-0.9c0.3-0.4,0.7-0.7,1.2-1.1
				c0.7-0.5,1.6-1.1,2.3-1.4c-0.2,0.5-0.4,1.1-0.7,1.7c-0.7,1.2-1.6,2.1-3,2.4C113.5,45.5,112.3,45.8,111.7,45.6L111.7,45.6z
				 M115.1,41.8L115.1,41.8c0.1,0,0.2-0.1,0.2-0.2C115.2,41.7,115.2,41.7,115.1,41.8c0.1-0.3,0.2-0.6,0.2-0.9c0.1-0.5,0-0.9,0-1.2
				c-0.1-0.2-0.1-0.5-0.1-0.8c-0.1-1.1,0.3-1.9,0.7-3c0.1,0.4,0.1,0.7,0.2,1c0.2,0.5,0.4,0.9,0.5,1.4c0.2,0.4,0.1,0.8,0,1.2
				c-0.1,0.3-0.2,0.6-0.2,0.9c-0.1,0.1-0.1,0.2-0.2,0.2c0.3-0.5,0.5-0.9,0.6-1.2c0.2-0.4,0.5-0.8,0.7-1.2c0.5-0.7,1.1-1.4,1.6-1.8
				c0,0.5,0,0.9-0.1,1.6c-0.3,1.3-0.8,2.3-2,2.9C116.6,41.2,115.6,41.8,115.1,41.8L115.1,41.8z M116.9,37.7L116.9,37.7
				c0.1-0.1,0.2-0.2,0.2-0.2C117,37.5,116.9,37.6,116.9,37.7c0-0.3,0-0.6-0.1-0.9c-0.1-0.4-0.2-0.8-0.3-1.1
				c-0.1-0.2-0.2-0.5-0.3-0.7c-0.3-0.9-0.2-1.8-0.2-2.8c0.2,0.4,0.2,0.6,0.4,0.9c0.3,0.4,0.6,0.7,0.9,1.2c0.2,0.3,0.3,0.6,0.3,1
				c0,0.3,0,0.5,0,0.8c0,0.1,0,0.2-0.1,0.2c0.2-0.5,0.2-0.9,0.2-1.2c0.1-0.4,0.2-0.8,0.3-1.2c0.2-0.7,0.5-1.5,0.9-2
				c0.2,0.5,0.2,0.9,0.4,1.5c0.1,1.2-0.1,2.2-1,3C118,36.8,117.3,37.5,116.9,37.7L116.9,37.7z M117.3,33.4L117.3,33.4
				c0-0.1,0.1-0.2,0.1-0.3C117.4,33.2,117.3,33.2,117.3,33.4c-0.1-0.4-0.2-0.6-0.2-0.9c-0.2-0.3-0.4-0.6-0.5-0.9
				c-0.2-0.2-0.3-0.4-0.4-0.6c-0.5-0.8-0.6-1.7-0.8-2.6c0.2,0.3,0.4,0.5,0.5,0.7c0.4,0.4,0.8,0.6,1,0.9c0.3,0.3,0.5,0.6,0.5,0.9
				c0.1,0.3,0.2,0.5,0.2,0.8c0,0.1,0,0.2,0,0.2c0-0.5,0-0.9,0-1.2c-0.1-0.4-0.1-0.8,0-1.2c0.1-0.8,0.2-1.6,0.5-2.1
				c0.2,0.4,0.4,0.8,0.5,1.3c0.4,1.1,0.4,2.1-0.2,3.1C118.2,32.2,117.6,33.1,117.3,33.4L117.3,33.4z M116.9,28.9L116.9,28.9
				c0.1-0.1,0.1-0.2,0.1-0.3C117,28.7,117,28.8,116.9,28.9c-0.1-0.2-0.2-0.5-0.4-0.6c-0.2-0.3-0.5-0.5-0.7-0.7
				c-0.2-0.2-0.3-0.3-0.5-0.4c-0.7-0.6-1-1.3-1.4-2.1l0,0c0.3,0.2,0.5,0.3,0.7,0.5c0.4,0.2,0.8,0.3,1.2,0.5c0.2,0.2,0.5,0.4,0.6,0.6
				c0.2,0.2,0.3,0.5,0.4,0.6c0,0.1,0,0.2,0,0.2c-0.1-0.4-0.2-0.8-0.3-1c-0.2-0.3-0.2-0.7-0.3-1.1c-0.1-0.6-0.2-1.4-0.2-1.9
				c0.3,0.3,0.5,0.5,0.9,1c0.6,0.9,0.9,1.7,0.6,2.7C117.4,27.6,117.3,28.6,116.9,28.9L116.9,28.9z M115.4,24.9L115.4,24.9
				c0-0.1,0-0.2,0-0.2C115.4,24.8,115.4,24.8,115.4,24.9c-0.2-0.2-0.3-0.4-0.5-0.5c-0.2-0.2-0.5-0.4-0.8-0.5
				c-0.2-0.1-0.4-0.2-0.5-0.3c-0.8-0.4-1.2-1.1-1.8-1.8c0.3,0.2,0.5,0.3,0.8,0.3c0.5,0.2,0.9,0.2,1.2,0.3c0.3,0.2,0.5,0.3,0.8,0.5
				c0.2,0.2,0.3,0.4,0.5,0.5c0,0.1,0,0.2,0.1,0.2c-0.2-0.4-0.4-0.8-0.5-0.9c-0.2-0.3-0.4-0.6-0.5-1c-0.2-0.6-0.5-1.3-0.5-1.9
				c0.3,0.2,0.6,0.5,1,0.8c0.8,0.7,1.2,1.6,1.1,2.6C115.6,23.7,115.6,24.5,115.4,24.9L115.4,24.9z M94,48L94,48c-0.2,0-0.3,0-0.5,0
				C93.7,48,93.8,48,94,48c-0.4-0.2-0.7-0.5-0.9-0.7c-0.4-0.3-0.6-0.7-0.9-1.1c-0.2-0.3-0.3-0.5-0.5-0.8c-0.9-1.1-1.9-1.6-3-2.3l0,0
				c0.3,0.4,0.5,0.7,0.6,1.1c0.2,0.6,0.3,1.2,0.6,1.7c0.2,0.4,0.5,0.8,0.9,1.1c0.3,0.2,0.6,0.5,0.9,0.5c0.1,0.1,0.2,0.1,0.3,0.2
				c-0.6-0.2-1.2-0.5-1.5-0.6c-0.5-0.2-1-0.5-1.6-0.6c-0.9-0.3-2.1-0.5-3-0.6c0.5,0.5,0.9,0.9,1.4,1.4c1.2,1.1,2.5,1.6,4.1,1.3
				C92,48.5,93.4,48.4,94,48L94,48z M88.9,45.6L88.9,45.6c-0.2,0-0.2-0.1-0.4-0.2C88.7,45.6,88.7,45.6,88.9,45.6
				c-0.2-0.3-0.5-0.6-0.5-0.9c-0.2-0.5-0.4-0.9-0.5-1.3c0-0.3-0.1-0.6-0.2-0.9c-0.3-1.2-1.1-2-1.8-3c0.1,0.5,0.2,0.8,0.2,1.2
				c0,0.6-0.1,1.2,0,1.7c0,0.5,0.2,0.9,0.4,1.2c0.2,0.3,0.4,0.5,0.6,0.8c0,0.1,0.1,0.1,0.2,0.2c-0.5-0.3-0.9-0.7-1-0.9
				c-0.3-0.4-0.8-0.7-1.2-1.1c-0.7-0.5-1.6-1.1-2.3-1.4c0.2,0.5,0.4,1.1,0.7,1.7c0.7,1.2,1.6,2.1,3.1,2.4
				C87.1,45.5,88.3,45.8,88.9,45.6L88.9,45.6z M85.6,41.8L85.6,41.8c-0.1,0-0.2-0.1-0.3-0.2C85.3,41.7,85.4,41.7,85.6,41.8
				c-0.2-0.3-0.2-0.6-0.2-0.9c-0.1-0.5-0.1-0.9,0-1.2c0-0.2,0.1-0.5,0.1-0.8c0-1.1-0.4-1.9-0.7-3c-0.1,0.4-0.2,0.7-0.2,1
				c-0.2,0.5-0.4,0.9-0.5,1.4c-0.1,0.4-0.1,0.8,0,1.2c0.1,0.3,0.2,0.6,0.3,0.9c0,0.1,0.1,0.2,0.1,0.2c-0.2-0.5-0.5-0.9-0.6-1.2
				c-0.2-0.4-0.4-0.8-0.6-1.2c-0.5-0.7-1.1-1.4-1.6-1.8c0.1,0.5,0.1,0.9,0.2,1.6c0.2,1.3,0.8,2.3,1.9,2.9
				C84.1,41.2,85,41.8,85.6,41.8L85.6,41.8z M83.8,37.7L83.8,37.7c-0.1-0.1-0.2-0.2-0.2-0.2C83.6,37.5,83.7,37.6,83.8,37.7
				c0-0.3,0-0.6,0-0.9c0.1-0.4,0.2-0.8,0.4-1.1c0.1-0.2,0.2-0.5,0.2-0.7c0.4-0.9,0.2-1.8,0.2-2.8c-0.2,0.4-0.3,0.6-0.5,0.9
				c-0.3,0.4-0.6,0.7-0.8,1.2c-0.2,0.3-0.3,0.6-0.3,1c-0.1,0.3-0.1,0.5,0,0.8c0,0.1,0,0.2,0,0.2c-0.1-0.5-0.2-0.9-0.2-1.2
				c0-0.4-0.2-0.8-0.2-1.2c-0.2-0.7-0.5-1.5-0.9-2c-0.1,0.5-0.2,0.9-0.3,1.5c-0.2,1.2,0.1,2.2,0.9,3C82.6,36.8,83.3,37.5,83.8,37.7
				L83.8,37.7z M83.3,33.4L83.3,33.4c-0.1-0.1-0.1-0.2-0.2-0.3C83.2,33.2,83.2,33.2,83.3,33.4c0.1-0.4,0.2-0.6,0.2-0.9
				c0.2-0.3,0.3-0.6,0.5-0.9c0.2-0.2,0.3-0.4,0.4-0.6c0.5-0.8,0.6-1.7,0.8-2.6c-0.2,0.3-0.4,0.5-0.6,0.7c-0.3,0.4-0.7,0.6-1,0.9
				c-0.2,0.3-0.4,0.6-0.5,0.9c-0.1,0.3-0.2,0.5-0.2,0.8c0,0.1,0,0.2,0,0.2c-0.1-0.5-0.1-0.9,0-1.2c0-0.4,0-0.8,0-1.2
				c-0.1-0.8-0.2-1.6-0.5-2.1c-0.2,0.4-0.4,0.8-0.6,1.3c-0.4,1.1-0.4,2.1,0.3,3.1C82.4,32.2,82.9,33.1,83.3,33.4L83.3,33.4z
				 M83.6,28.9L83.6,28.9c0-0.1,0-0.2,0-0.3C83.6,28.7,83.6,28.8,83.6,28.9c0.2-0.2,0.3-0.5,0.5-0.6c0.2-0.3,0.4-0.5,0.7-0.7
				c0.2-0.2,0.3-0.3,0.5-0.4c0.6-0.6,0.9-1.3,1.3-2.1l0,0c-0.2,0.2-0.5,0.3-0.6,0.5c-0.5,0.2-0.8,0.3-1.2,0.5
				c-0.3,0.2-0.5,0.4-0.7,0.6c-0.2,0.2-0.2,0.5-0.3,0.6c0,0.1,0,0.2-0.1,0.2c0.1-0.4,0.2-0.8,0.3-1c0.2-0.3,0.2-0.7,0.3-1.1
				c0.2-0.6,0.2-1.4,0.2-1.9c-0.3,0.3-0.6,0.5-0.9,1c-0.5,0.9-0.9,1.7-0.5,2.7C83.2,27.6,83.4,28.6,83.6,28.9L83.6,28.9z M85.2,24.9
				L85.2,24.9c0-0.1,0.1-0.2,0.1-0.2C85.2,24.8,85.2,24.8,85.2,24.9c0.2-0.2,0.4-0.4,0.5-0.5c0.3-0.2,0.5-0.4,0.9-0.5
				c0.2-0.1,0.4-0.2,0.5-0.3c0.8-0.4,1.2-1.1,1.7-1.8c-0.3,0.2-0.5,0.3-0.7,0.3c-0.5,0.2-0.9,0.2-1.2,0.3c-0.3,0.2-0.5,0.3-0.8,0.5
				c-0.2,0.2-0.4,0.4-0.5,0.5c0,0.1-0.1,0.2-0.1,0.2c0.2-0.4,0.3-0.8,0.5-0.9c0.2-0.3,0.4-0.6,0.5-1c0.2-0.6,0.5-1.3,0.5-1.9
				c-0.3,0.2-0.7,0.5-1,0.8c-0.8,0.7-1.2,1.6-1.2,2.6C85,23.7,85,24.5,85.2,24.9L85.2,24.9z"/>
			<g>
				<path class="st7" d="M85.6,7.4h1.9c-0.2-0.2-0.2-0.4-0.4-0.5l0.3-0.2C87.7,6.8,87.8,7,88,7.2l-0.3,0.2h2v0.4H86v1.2
					c0,1-0.2,1.8-0.8,2.4c-0.1-0.1-0.2-0.2-0.3-0.3c0.5-0.5,0.7-1.2,0.7-2.2L85.6,7.4L85.6,7.4z"/>
				<path class="st7" d="M90.2,8l0.4,0.1c-0.2,0.5-0.2,0.9-0.4,1.3c-0.2,0-0.2-0.1-0.4-0.1C90,8.9,90.1,8.5,90.2,8z M90.8,6.8
					L90.8,6.8h0.4v1.9c0,1.2-0.3,2-0.9,2.6c-0.1-0.1-0.2-0.2-0.2-0.3c0.5-0.5,0.8-1.3,0.8-2.5V6.8z M91.3,8.2L91.3,8.2L91.7,8
					c0.2,0.4,0.3,0.8,0.4,1.2l-0.3,0.2C91.6,8.9,91.5,8.6,91.3,8.2L91.3,8.2z M92.3,6.8L92.3,6.8h0.4v4.4h-0.4V6.8z M92.9,8.2
					L92.9,8.2L93.2,8c0.2,0.4,0.3,0.8,0.5,1.2l-0.3,0.2C93.2,8.9,93,8.6,92.9,8.2z M93.9,6.7L93.9,6.7h0.3v4.6h-0.3V6.7L93.9,6.7z"
					/>
				<path class="st7" d="M94.8,10.9h0.6V9.6h3.5v1.2h0.5v0.3h-4.7L94.8,10.9L94.8,10.9z M94.8,7.1L94.8,7.1h1.4V6.6h0.4v0.5h1.2V6.6
					h0.3v0.5h1.4v0.3h-1.4v0.2h-0.3V7.4h-1.2v0.2h-0.4V7.4h-1.4V7.1z M95.3,7.9L95.3,7.9h0.4v1.5h-0.4V7.9z M95.8,10.9L95.8,10.9
					h0.7V10h-0.7V10.9z M96.3,7.8L96.3,7.8h0.4v1.6h-0.4V7.8z M96.8,10.9L96.8,10.9h0.7V10h-0.7V10.9z M96.8,9.2L96.8,9.2
					c0.3-0.4,0.5-0.9,0.7-1.5l0.3,0.1c0,0.2-0.1,0.2-0.1,0.4h1.6v0.3h-1.8c-0.1,0.3-0.2,0.6-0.5,0.9C97,9.3,96.9,9.3,96.8,9.2z
					 M97.9,8.9L97.9,8.9l0.2-0.3c0.3,0.2,0.6,0.5,0.9,0.7l-0.2,0.2C98.5,9.3,98.2,9,97.9,8.9z M98.6,10L98.6,10h-0.8v0.9h0.8V10z"/>
				<path class="st7" d="M99.7,11c1.2-0.5,1.9-1.2,2.1-2.1h-2V8.5h2.1c0-0.2,0-0.6,0-1.2H100V7h4.1v0.3h-1.9c0,0.4,0,0.8-0.1,1.2
					h2.2v0.4h-2.1c0.3,1,1,1.7,2.2,2c-0.2,0.2-0.2,0.3-0.3,0.4c-1.1-0.4-1.8-1.1-2.1-2c-0.2,0.9-0.9,1.6-2.1,2.1
					C99.9,11.3,99.8,11.1,99.7,11z"/>
				<path class="st7" d="M104.7,7.5h0.9V6.7h0.4v0.9h1v0.3h-1v1.7l0.2-0.2c0.2,0.2,0.5,0.5,0.9,0.8l-0.3,0.3
					c-0.2-0.2-0.5-0.5-0.7-0.8v1.1c0,0.4-0.2,0.6-0.5,0.6c-0.2,0-0.4,0-0.6,0c0-0.2-0.1-0.3-0.1-0.5c0.2,0.1,0.4,0.1,0.5,0.1
					c0.2,0,0.3-0.2,0.3-0.4V9.7c-0.2,0.2-0.5,0.5-0.8,0.8l-0.2-0.3c0.3-0.3,0.6-0.5,0.9-0.8l0.2,0.2V7.9h-0.9V7.5z M104.8,8.3
					L104.8,8.3l0.2-0.2c0.2,0.3,0.4,0.5,0.5,0.8l-0.3,0.2C105.1,8.9,104.9,8.6,104.8,8.3L104.8,8.3z M106.7,8.2L106.7,8.2l0.3,0.2
					c-0.2,0.3-0.4,0.5-0.5,0.8l-0.3-0.2C106.4,8.7,106.5,8.4,106.7,8.2z M106.2,7L106.2,7l0.2-0.2c0.2,0.1,0.4,0.2,0.5,0.4l-0.2,0.2
					C106.6,7.2,106.4,7.2,106.2,7z M106.8,9.1L106.8,9.1c0.4-0.7,0.6-1.5,0.9-2.3l0.4,0.1c-0.1,0.2-0.2,0.5-0.2,0.8h1.5v0.3h-0.4
					c-0.1,0.9-0.2,1.6-0.6,2.2c0.2,0.4,0.6,0.7,1.1,0.9c-0.2,0.2-0.2,0.3-0.2,0.4c-0.5-0.2-0.9-0.5-1.1-0.9c-0.4,0.4-0.8,0.7-1.2,1
					c-0.1-0.1-0.2-0.2-0.2-0.3c0.5-0.3,0.9-0.6,1.2-1c-0.2-0.3-0.4-0.8-0.5-1.2c-0.1,0.1-0.2,0.2-0.2,0.4
					C107.1,9.2,106.9,9.1,106.8,9.1L106.8,9.1z M107.6,8.2L107.6,8.2c0.1,0.6,0.2,1.2,0.5,1.6c0.3-0.5,0.5-1.1,0.5-1.9h-0.9
					C107.7,8.1,107.6,8.2,107.6,8.2L107.6,8.2z"/>
				<path class="st7" d="M109.5,9.2c0.2-0.1,0.4-0.2,0.5-0.2V7.9h-0.5V7.5h0.5V6.7h0.4v0.9h0.5v0.3h-0.5v0.9c0.2,0,0.3-0.1,0.5-0.2
					c0,0,0,0.2,0,0.4c-0.2,0.1-0.3,0.2-0.5,0.2v1.6c0,0.3-0.2,0.5-0.4,0.5c-0.2,0-0.3,0-0.5,0c0-0.2,0-0.3-0.1-0.4
					c0.2,0,0.3,0,0.4,0c0.2,0,0.2-0.1,0.2-0.2V9.3c-0.2,0.1-0.3,0.2-0.5,0.2V9.2L109.5,9.2z M111.1,8.8L111.1,8.8h0.7
					c0-0.2,0-0.3,0.1-0.4h-0.7V8.1h1.9c0.2-0.2,0.3-0.5,0.5-0.8l0.3,0.2c-0.2,0.2-0.2,0.4-0.4,0.6h0.6v0.3h-1.9c0,0.1,0,0.2-0.1,0.4
					h2.1v0.3H112c0,0.1-0.1,0.2-0.2,0.3h1.9v0.3c-0.2,0.4-0.4,0.6-0.7,0.9c0.3,0.2,0.8,0.2,1.2,0.3c-0.1,0.2-0.2,0.2-0.2,0.4
					c-0.6-0.1-1.1-0.2-1.5-0.5c-0.3,0.2-0.8,0.4-1.2,0.5c-0.1-0.1-0.2-0.2-0.2-0.3c0.5-0.1,0.9-0.2,1.2-0.4
					c-0.2-0.2-0.5-0.5-0.6-0.8c-0.2,0.5-0.5,0.9-0.8,1.2c-0.1-0.1-0.2-0.2-0.3-0.2c0.5-0.5,0.9-1.1,1-1.8h-0.5L111.1,8.8L111.1,8.8z
					 M111.3,7.3L111.3,7.3c-0.1-0.1-0.1-0.2-0.1-0.3c1,0,1.9-0.1,2.9-0.2l0.1,0.3C113.4,7.2,112.4,7.3,111.3,7.3z M111.4,7.5
					L111.4,7.5l0.2-0.2c0.2,0.2,0.2,0.3,0.3,0.5L111.6,8C111.6,7.9,111.5,7.7,111.4,7.5z M113.4,9.7L113.4,9.7H112
					c0.2,0.3,0.4,0.5,0.6,0.7C113,10.3,113.2,10,113.4,9.7z M112.3,7.4L112.3,7.4l0.3-0.1c0.1,0.2,0.2,0.3,0.2,0.5L112.6,8
					C112.5,7.9,112.4,7.6,112.3,7.4L112.3,7.4z"/>
			</g>
			<g>
				<path class="st7" d="M85.9,13.9h-0.2l-0.1-0.1c0,0,0,0-0.1,0.1c0,0-0.1,0-0.2,0c-0.1,0-0.2-0.1-0.3-0.2
					c-0.1-0.1-0.1-0.2-0.1-0.5c0-0.2,0-0.5,0.1-0.5c0.1-0.2,0.2-0.2,0.4-0.2c0.1,0,0.2,0.1,0.2,0.2c0.1,0.1,0.2,0.2,0.2,0.3h-0.2
					c0-0.1,0-0.2,0-0.2c-0.1,0-0.2-0.1-0.2-0.1c-0.2,0-0.2,0.1-0.2,0.2c0,0.1-0.1,0.2-0.1,0.5c0,0.2,0.1,0.3,0.1,0.4
					c0.1,0.1,0.2,0.1,0.2,0.1c0.1,0,0.1,0,0.2-0.1c0,0,0-0.1,0-0.2v-0.1h-0.2v-0.2h0.5V13.9z"/>
				<path class="st7" d="M86.8,13.5c0,0.1-0.1,0.2-0.1,0.3c-0.1,0.1-0.2,0.1-0.4,0.1c-0.1,0-0.2,0-0.3-0.1c0-0.1-0.1-0.2-0.1-0.3v-1
					h0.2v1c0,0.1,0.1,0.2,0.1,0.2c0.1,0.1,0.2,0.1,0.2,0.1c0.1,0,0.2,0,0.2-0.1c0,0,0-0.1,0-0.2v-1h0.2V13.5z"/>
				<path class="st7" d="M87.7,13.9h-0.2l-0.1-0.4H87L87,13.9h-0.2l0.5-1.4h0.2L87.7,13.9z M87.3,13.3L87.3,13.3l-0.1-0.5h-0.1
					l-0.1,0.5H87.3L87.3,13.3z"/>
				<polygon class="st7" points="88.5,13.9 88.3,13.9 87.9,12.8 87.9,12.8 87.9,13.9 87.7,13.9 87.7,12.4 87.9,12.4 88.4,13.5 
					88.4,13.5 88.4,12.4 88.5,12.4 				"/>
				<path class="st7" d="M89.4,13.9h-0.2v-0.1c0,0-0.1,0-0.1,0.1c-0.1,0-0.1,0-0.2,0c-0.2,0-0.2-0.1-0.3-0.2
					c-0.1-0.1-0.2-0.2-0.2-0.5c0-0.2,0.1-0.5,0.2-0.5c0.1-0.2,0.2-0.2,0.3-0.2c0.2,0,0.2,0.1,0.3,0.2c0.1,0.1,0.1,0.2,0.1,0.3h-0.2
					c0-0.1,0-0.2-0.1-0.2c0,0-0.1-0.1-0.2-0.1c-0.1,0-0.2,0.1-0.2,0.2c-0.1,0.1-0.1,0.2-0.1,0.5c0,0.2,0,0.3,0.1,0.4
					c0.1,0.1,0.1,0.1,0.2,0.1c0.1,0,0.2,0,0.2-0.1c0.1,0,0.1-0.1,0.1-0.2v-0.1H89v-0.2h0.4L89.4,13.9L89.4,13.9z"/>
				<polygon class="st7" points="90.2,13.9 89.4,13.9 89.4,13.7 90.1,12.6 89.4,12.6 89.4,12.4 90.2,12.4 90.2,12.6 89.6,13.7 
					90.2,13.7 				"/>
				<polygon class="st7" points="91.1,13.9 90.9,13.9 90.9,13.2 90.5,13.2 90.5,13.9 90.3,13.9 90.3,12.4 90.5,12.4 90.5,13.1 
					90.9,13.1 90.9,12.4 91.1,12.4 				"/>
				<path class="st7" d="M92,13.1c0,0.2-0.1,0.5-0.2,0.5c-0.1,0.1-0.2,0.2-0.3,0.2c-0.1,0-0.2-0.1-0.3-0.2c-0.1-0.1-0.1-0.3-0.1-0.5
					c0-0.2,0-0.4,0.1-0.5c0.1-0.1,0.2-0.2,0.3-0.2c0.2,0,0.2,0.1,0.3,0.2C91.9,12.8,92,12.9,92,13.1z M91.9,13.1L91.9,13.1
					c0-0.2-0.1-0.4-0.1-0.5c-0.1,0-0.2-0.1-0.2-0.1s-0.1,0.1-0.2,0.1c-0.1,0.1-0.1,0.2-0.1,0.5c0,0.2,0,0.4,0.1,0.5
					c0.1,0.1,0.1,0.1,0.2,0.1s0.2,0,0.2-0.1C91.8,13.5,91.9,13.4,91.9,13.1z"/>
				<path class="st7" d="M92.9,13.5c0,0.1-0.1,0.2-0.1,0.3c-0.1,0.1-0.2,0.1-0.4,0.1c-0.1,0-0.2,0-0.3-0.1c0-0.1-0.1-0.2-0.1-0.3v-1
					h0.2v1c0,0.1,0.1,0.2,0.1,0.2c0.1,0.1,0.2,0.1,0.2,0.1c0.1,0,0.2,0,0.2-0.1c0,0,0-0.1,0-0.2v-1h0.2V13.5z"/>
				<path class="st7" d="M94.6,13.5c0,0.2,0,0.2-0.1,0.3c-0.1,0.1-0.2,0.1-0.3,0.1h-0.5v-1.4h0.5c0.1,0,0.2,0.1,0.3,0.2
					c0,0.1,0.1,0.2,0.1,0.2c0,0.1,0,0.2-0.1,0.2c-0.1,0-0.1,0.1-0.2,0.1c0.1,0,0.2,0,0.2,0.1C94.6,13.3,94.6,13.4,94.6,13.5
					L94.6,13.5z M94.4,12.8L94.4,12.8c0-0.1-0.1-0.2-0.1-0.2c-0.1,0-0.1-0.1-0.2-0.1H94v0.5h0.2c0.1,0,0.1,0,0.2-0.1
					C94.4,13,94.4,12.9,94.4,12.8L94.4,12.8z M94.4,13.5L94.4,13.5c0-0.1,0-0.2-0.1-0.2c-0.1,0-0.2,0-0.2,0H94v0.5h0.2
					c0.1,0,0.2,0,0.2-0.1C94.4,13.6,94.4,13.5,94.4,13.5z"/>
				<polygon class="st7" points="95.4,13.9 94.7,13.9 94.7,12.4 94.8,12.4 94.8,13.7 95.4,13.7 				"/>
				<path class="st7" d="M96.3,13.5c0,0.1,0,0.2-0.1,0.3c-0.1,0.1-0.2,0.1-0.3,0.1s-0.2,0-0.3-0.1c-0.1-0.1-0.1-0.2-0.1-0.3v-1h0.2
					v1c0,0.1,0,0.2,0.1,0.2c0,0.1,0.1,0.1,0.2,0.1c0.1,0,0.2,0,0.2-0.1c0.1,0,0.1-0.1,0.1-0.2v-1h0.2V13.5z"/>
				<polygon class="st7" points="97.2,13.9 96.4,13.9 96.4,12.4 97.2,12.4 97.2,12.6 96.6,12.6 96.6,13.1 97.1,13.1 97.1,13.2 
					96.6,13.2 96.6,13.7 97.2,13.7 				"/>
				<path class="st7" d="M98.9,13.5c0,0.2-0.1,0.2-0.2,0.3c-0.1,0.1-0.2,0.1-0.3,0.1c-0.1,0-0.2,0-0.3-0.1c-0.1-0.1-0.1-0.2-0.1-0.3
					v-0.1h0.2v0.1c0,0.1,0.1,0.2,0.1,0.2c0.1,0.1,0.2,0.1,0.2,0.1c0.1,0,0.2,0,0.2-0.1c0,0,0.1-0.1,0.1-0.2c0,0-0.1-0.1-0.1-0.2
					c-0.1,0-0.2-0.1-0.2-0.1c-0.2-0.1-0.2-0.2-0.3-0.2c0-0.1-0.1-0.2-0.1-0.2s0.1-0.2,0.2-0.2c0.1-0.1,0.2-0.2,0.2-0.2
					c0.2,0,0.2,0.1,0.3,0.2c0.1,0.1,0.1,0.2,0.1,0.2h-0.2c0-0.1,0-0.1-0.1-0.2c0,0-0.1-0.1-0.2-0.1c0,0-0.1,0-0.2,0.1
					c0,0,0,0.1,0,0.2v0.1c0.1,0.1,0.2,0.1,0.2,0.2c0.2,0.1,0.2,0.1,0.3,0.2C98.9,13.3,98.9,13.4,98.9,13.5L98.9,13.5z"/>
				<polygon class="st7" points="99.9,13.9 99.7,13.9 99.3,13.1 99.2,13.3 99.2,13.9 98.9,13.9 98.9,12.4 99.2,12.4 99.2,13.1 
					99.6,12.4 99.8,12.4 99.4,13 				"/>
				<polygon class="st7" points="100.7,12.4 100.4,13.2 100.4,13.9 100.2,13.9 100.2,13.2 99.8,12.4 100,12.4 100.3,13.1 
					100.3,13.1 100.5,12.4 				"/>
				<path class="st7" d="M102.4,13.5c0,0.2,0,0.2-0.1,0.3c-0.1,0.1-0.2,0.1-0.3,0.1s-0.2,0-0.3-0.1c-0.1-0.1-0.1-0.2-0.1-0.3v-0.1
					h0.2v0.1c0,0.1,0,0.2,0.1,0.2c0,0.1,0.1,0.1,0.2,0.1c0.1,0,0.2,0,0.2-0.1c0.1,0,0.1-0.1,0.1-0.2c0,0,0-0.1-0.1-0.2
					c0,0-0.1-0.1-0.2-0.1c-0.2-0.1-0.2-0.2-0.3-0.2c-0.1-0.1-0.1-0.2-0.1-0.2s0-0.2,0.1-0.2c0.1-0.1,0.2-0.2,0.3-0.2
					c0.2,0,0.2,0.1,0.3,0.2c0.1,0.1,0.1,0.2,0.1,0.2h-0.2c0-0.1-0.1-0.1-0.1-0.2c0,0-0.1-0.1-0.2-0.1c-0.1,0-0.2,0-0.2,0.1
					c0,0-0.1,0.1-0.1,0.2c0,0,0,0.1,0.1,0.1c0,0.1,0.1,0.1,0.2,0.2c0.1,0.1,0.2,0.1,0.2,0.2C102.4,13.3,102.4,13.4,102.4,13.5z"/>
				<polygon class="st7" points="103.3,13.9 102.5,13.9 102.5,12.4 103.2,12.4 103.2,12.6 102.7,12.6 102.7,13.1 103.2,13.1 
					103.2,13.2 102.7,13.2 102.7,13.7 103.3,13.7 				"/>
				<path class="st7" d="M104.2,13.9H104l-0.1-0.4h-0.4l-0.1,0.4h-0.2l0.4-1.4h0.2L104.2,13.9L104.2,13.9z M103.9,13.3L103.9,13.3
					l-0.2-0.5l0,0l-0.1,0.5H103.9z"/>
				<path class="st7" d="M105,13.9h-0.2l-0.3-0.6h-0.2v0.6h-0.2v-1.4h0.4c0.2,0,0.2,0.1,0.3,0.2c0.1,0,0.2,0.2,0.2,0.2
					c0,0.2-0.1,0.2-0.1,0.3c-0.1,0-0.2,0.1-0.2,0.1L105,13.9L105,13.9z M104.8,12.8L104.8,12.8c0-0.1,0-0.1,0-0.2
					c-0.1,0-0.2-0.1-0.2-0.1h-0.2v0.5h0.2c0.1,0,0.2,0,0.2,0C104.8,13,104.8,13,104.8,12.8L104.8,12.8z"/>
				<path class="st7" d="M105.9,13.3c0,0.2,0,0.3-0.1,0.5c-0.1,0.1-0.2,0.1-0.3,0.1c-0.2,0-0.2-0.1-0.3-0.2
					c-0.1-0.1-0.2-0.2-0.2-0.5c0-0.2,0.1-0.5,0.2-0.5c0.1-0.2,0.2-0.2,0.3-0.2c0.2,0,0.2,0.1,0.3,0.2c0.1,0.1,0.1,0.2,0.1,0.4h-0.2
					c0-0.2,0-0.2-0.1-0.3c0,0-0.1-0.1-0.2-0.1c-0.1,0-0.2,0.1-0.2,0.2c-0.1,0.1-0.1,0.2-0.1,0.5c0,0.2,0,0.3,0.1,0.4
					c0,0.1,0.1,0.1,0.2,0.1c0.1,0,0.1,0,0.2-0.1c0.1-0.1,0.1-0.2,0.1-0.3L105.9,13.3L105.9,13.3z"/>
				<polygon class="st7" points="106.7,13.9 106.6,13.9 106.6,13.2 106.1,13.2 106.1,13.9 105.9,13.9 105.9,12.4 106.1,12.4 
					106.1,13.1 106.6,13.1 106.6,12.4 106.7,12.4 				"/>
				<path class="st7" d="M108.5,13.7l-0.1,0.2l-0.1-0.1c0,0-0.1,0-0.1-0.1c0,0.1-0.1,0.1-0.2,0.2c0,0-0.1,0-0.2,0
					c-0.1,0-0.2,0-0.2-0.1c-0.1-0.1-0.2-0.2-0.2-0.3c0-0.1,0-0.2,0.1-0.2c0.1,0,0.1-0.1,0.2-0.2c0,0,0-0.1-0.1-0.2
					c0-0.1,0-0.1,0-0.2c0-0.1,0-0.2,0.1-0.2c0.1,0,0.2-0.1,0.2-0.1s0.1,0,0.2,0.1c0.1,0.1,0.1,0.1,0.1,0.2c0,0.1,0,0.2-0.1,0.2
					c-0.1,0.1-0.2,0.1-0.2,0.2c0.1,0.1,0.1,0.1,0.2,0.2c0,0.1,0.1,0.1,0.2,0.2v-0.1c0-0.1,0-0.1,0-0.2h0.2c0,0.1,0,0.2,0,0.2
					c0,0,0,0.1-0.1,0.2L108.5,13.7C108.5,13.7,108.5,13.7,108.5,13.7z M108.2,13.6L108.2,13.6c-0.1-0.1-0.2-0.2-0.2-0.2
					c0,0-0.1-0.1-0.1-0.2c-0.1,0-0.1,0.1-0.1,0.1c-0.1,0.1-0.1,0.1-0.1,0.2c0,0.1,0.1,0.2,0.1,0.2c0.1,0,0.2,0,0.2,0
					C108.1,13.7,108.1,13.7,108.2,13.6C108.1,13.7,108.1,13.6,108.2,13.6z M108.1,12.8L108.1,12.8c0-0.1,0-0.1,0-0.2
					c-0.1,0-0.1,0-0.1,0c-0.1,0-0.1,0-0.1,0.1c-0.1,0-0.1,0-0.1,0.1v0.1c0,0.1,0,0.2,0.1,0.2l0.1-0.1
					C108.1,12.8,108.1,12.8,108.1,12.8L108.1,12.8z"/>
				<path class="st7" d="M110.2,13.9h-0.2l-0.3-0.6h-0.2v0.6h-0.2v-1.4h0.4c0.2,0,0.2,0.1,0.3,0.2c0.1,0,0.2,0.2,0.2,0.2
					c0,0.2-0.1,0.2-0.1,0.3c-0.1,0-0.2,0.1-0.2,0.1L110.2,13.9L110.2,13.9z M110,12.8L110,12.8c0-0.1,0-0.1-0.1-0.2
					c0,0-0.1-0.1-0.2-0.1h-0.2v0.5h0.2c0.1,0,0.2,0,0.2,0C110,13,110,13,110,12.8L110,12.8z"/>
				<polygon class="st7" points="111.1,13.9 110.2,13.9 110.2,12.4 111,12.4 111,12.6 110.5,12.6 110.5,13.1 111,13.1 111,13.2 
					110.5,13.2 110.5,13.7 111.1,13.7 				"/>
				<path class="st7" d="M112,13.5c0,0.2,0,0.2-0.1,0.3c-0.1,0.1-0.2,0.1-0.3,0.1c-0.2,0-0.3,0-0.3-0.1c-0.1-0.1-0.2-0.2-0.2-0.3
					v-0.1h0.2v0.1c0,0.1,0.1,0.2,0.1,0.2c0.1,0.1,0.2,0.1,0.2,0.1s0.1,0,0.2-0.1c0,0,0.1-0.1,0.1-0.2c0,0-0.1-0.1-0.1-0.2
					c-0.1,0-0.2-0.1-0.2-0.1c-0.2-0.1-0.2-0.2-0.2-0.2c-0.1-0.1-0.2-0.2-0.2-0.2s0.1-0.2,0.2-0.2c0.1-0.1,0.2-0.2,0.3-0.2
					c0.1,0,0.2,0.1,0.2,0.2c0.1,0.1,0.2,0.2,0.2,0.2h-0.2c0-0.1,0-0.1,0-0.2c-0.1,0-0.2-0.1-0.2-0.1c-0.1,0-0.2,0-0.2,0.1
					c-0.1,0-0.1,0.1-0.1,0.2v0.1c0.1,0.1,0.2,0.1,0.2,0.2c0.2,0.1,0.2,0.1,0.3,0.2C112,13.3,112,13.4,112,13.5z"/>
				<path class="st7" d="M112.9,13.3c-0.1,0.2-0.1,0.3-0.2,0.5c-0.1,0.1-0.2,0.1-0.3,0.1c-0.1,0-0.2-0.1-0.3-0.2
					c-0.1-0.1-0.2-0.2-0.2-0.5c0-0.2,0.1-0.5,0.2-0.5c0.1-0.2,0.2-0.2,0.3-0.2c0.2,0,0.2,0.1,0.3,0.2c0.1,0.1,0.1,0.2,0.1,0.4h-0.2
					c0-0.2,0-0.2-0.1-0.3c0,0-0.1-0.1-0.2-0.1c-0.1,0-0.2,0.1-0.2,0.2c-0.1,0.1-0.1,0.2-0.1,0.5c0,0.2,0,0.3,0.1,0.4
					c0,0.1,0.1,0.1,0.2,0.1c0.1,0,0.2,0,0.2-0.1c0.1-0.1,0.1-0.2,0.1-0.3L112.9,13.3L112.9,13.3z"/>
				<path class="st7" d="M113.7,13.5c0,0.1,0,0.2-0.1,0.3c-0.1,0.1-0.2,0.1-0.3,0.1s-0.2,0-0.3-0.1c-0.1-0.1-0.1-0.2-0.1-0.3v-1h0.2
					v1c0,0.1,0,0.2,0.1,0.2c0,0.1,0.1,0.1,0.2,0.1c0.1,0,0.2,0,0.2-0.1c0.1,0,0.1-0.1,0.1-0.2v-1h0.2V13.5z"/>
				<polygon class="st7" points="114.5,13.9 113.8,13.9 113.8,12.4 114.5,12.4 114.5,12.6 113.9,12.6 113.9,13.1 114.5,13.1 
					114.5,13.2 113.9,13.2 113.9,13.7 114.5,13.7 				"/>
			</g>
		</g>
	</g>
	<line class="st8" x1="67.8" y1="1.3" x2="67.8" y2="58.7"/>
</g>
</svg>
