<svg id="图层_1" data-name="图层 1" xmlns="http://www.w3.org/2000/svg" viewBox="0 0 57.5 312.7"><defs><style>.cls-1{fill:#342b28;}.cls-1,.cls-2,.cls-3,.cls-4{fill-rule:evenodd;}.cls-2{fill:#127cbe;}.cls-3,.cls-8{fill:#fff;}.cls-4{fill:#cc282b;}.cls-5{fill:#232222;}.cls-6{fill:#157dbd;}.cls-7{fill:#342c2b;}.cls-9{fill:none;stroke:#342c2b;stroke-miterlimit:10;stroke-width:0.91px;}</style></defs><g id="_1959947165808" data-name=" 1959947165808"><path class="cls-1" d="M28.7,0A28.8,28.8,0,1,1,0,28.8,28.81,28.81,0,0,1,28.7,0Z"/><path class="cls-2" d="M28.7,8A20.8,20.8,0,1,1,7.9,28.8,20.78,20.78,0,0,1,28.7,8Z"/><path class="cls-3" d="M13.9,20.7v0c.2-.2.3-.4.5-.5a3.51,3.51,0,0,1,.8-.5l.6-.3a5.88,5.88,0,0,0,1.7-1.8,3.63,3.63,0,0,1-.7.3l-1.2.3a2.18,2.18,0,0,0-.8.5c-.2.2-.3.4-.5.6a.35.35,0,0,0-.1.2,3.6,3.6,0,0,1,.5-.9,3.13,3.13,0,0,0,.5-1,4.49,4.49,0,0,0,.5-1.9c-.3.2-.6.5-1,.8a2.88,2.88,0,0,0-1.1,2.6,11,11,0,0,0,.3,1.6Zm-1.5,3.9v0a1.54,1.54,0,0,1,.4-.6,2.34,2.34,0,0,1,.7-.7c.2-.1.3-.3.5-.4a7.43,7.43,0,0,0,1.3-2.1h0c-.3.2-.4.3-.7.5a11.73,11.73,0,0,0-1.1.5,4.35,4.35,0,0,0-.7.6.86.86,0,0,0-.3.6c0,.1,0,.1-.1.2a6.21,6.21,0,0,1,.3-1,3.54,3.54,0,0,0,.3-1.1,15.41,15.41,0,0,0,.2-1.9,8.74,8.74,0,0,0-.8,1,3,3,0,0,0-.6,2.7,4.92,4.92,0,0,0,.6,1.7ZM12.1,29c0-.1-.1-.2-.1-.3a.37.37,0,0,0,.1.3c.1-.3.1-.6.2-.8a2.62,2.62,0,0,1,.5-.9,2.09,2.09,0,0,0,.4-.6,5.94,5.94,0,0,0,.7-2.6,4.35,4.35,0,0,1-.6.7c-.4.4-.7.6-1,.9a4.05,4.05,0,0,0-.5.9c-.1.3-.1.5-.2.8v-.9a4.82,4.82,0,0,0,0-1.2,13,13,0,0,0-.4-2.1c-.2.4-.4.8-.6,1.3a3.13,3.13,0,0,0,.3,3.1c.3.2.8,1.1,1.2,1.4Zm.4,4.2c-.1-.1-.1-.2-.2-.3.1.1.1.2.2.3a2,2,0,0,1,.1-.8c.1-.4.2-.7.3-1s.2-.5.3-.7a8.63,8.63,0,0,0,.2-2.8,5.94,5.94,0,0,1-.4.8,7.63,7.63,0,0,0-.8,1.1,1.93,1.93,0,0,0-.3,1v1a6.53,6.53,0,0,1-.2-1.1,2.66,2.66,0,0,0-.3-1.2,6.11,6.11,0,0,0-.9-2c-.1.4-.2.9-.3,1.4a3.53,3.53,0,0,0,.9,3,8.64,8.64,0,0,0,1.4,1.3Zm1.7,4.1c-.1-.1-.2-.1-.3-.2.2,0,.2.1.3.2a2.92,2.92,0,0,1-.2-.9,4.82,4.82,0,0,1,0-1.2c0-.3.1-.5.1-.8a7.27,7.27,0,0,0-.7-2.9,3,3,0,0,1-.2,1,7.84,7.84,0,0,0-.5,1.4,2,2,0,0,0,0,1.1,6.89,6.89,0,0,0,.3.8c0,.1.1.1.1.2a4.07,4.07,0,0,1-.6-1.1,7.46,7.46,0,0,0-.7-1.2,9.51,9.51,0,0,0-1.5-1.8,9.15,9.15,0,0,0,.1,1.6,3.57,3.57,0,0,0,1.9,2.8,8.71,8.71,0,0,0,1.9,1ZM17.5,41c-.1,0-.2-.1-.3-.1a.37.37,0,0,1,.3.1,4.05,4.05,0,0,1-.5-.9,5,5,0,0,1-.4-1.3c-.1-.3-.1-.6-.2-.8a7.42,7.42,0,0,0-1.8-2.9c.1.4.1.7.2,1.1a9.65,9.65,0,0,0,0,1.7,2.84,2.84,0,0,0,.4,1.2,5.55,5.55,0,0,0,.6.8l.2.2a10,10,0,0,1-1-.9,5.24,5.24,0,0,0-1.1-1,9.46,9.46,0,0,0-2.3-1.4c.2.5.4,1,.7,1.6a4.27,4.27,0,0,0,3,2.4,16.35,16.35,0,0,0,2.2.2Zm5,2.4h0a7.05,7.05,0,0,1-.9-.7,8.7,8.7,0,0,1-.9-1.1c-.2-.3-.3-.5-.5-.8a8.93,8.93,0,0,0-2.9-2.2h0c.3.4.4.7.6,1a8.51,8.51,0,0,0,.6,1.7,3.13,3.13,0,0,0,.9,1.1,2.36,2.36,0,0,0,.9.6c.1,0,.2.1.3.1a6.45,6.45,0,0,1-1.4-.6,4.42,4.42,0,0,0-1.6-.6,18.78,18.78,0,0,0-2.9-.6c.4.4.8.9,1.3,1.4A4.7,4.7,0,0,0,20.1,44,21,21,0,0,0,22.5,43.4Zm21-22.7v0c-.2-.2-.3-.4-.5-.5a3.51,3.51,0,0,0-.8-.5l-.6-.3a5.88,5.88,0,0,1-1.7-1.8,3.63,3.63,0,0,0,.7.3l1.2.3a2.18,2.18,0,0,1,.8.5c.2.2.3.4.5.6a.35.35,0,0,1,.1.2,3.6,3.6,0,0,0-.5-.9,3.13,3.13,0,0,1-.5-1,4.49,4.49,0,0,1-.5-1.9c.3.2.6.5,1,.8a2.88,2.88,0,0,1,1.1,2.6,11,11,0,0,1-.3,1.6Zm1.6,3.9v0a1.54,1.54,0,0,0-.4-.6,2.34,2.34,0,0,0-.7-.7c-.2-.1-.3-.3-.5-.4a7.43,7.43,0,0,1-1.3-2.1h0c.3.2.4.3.7.5a11.73,11.73,0,0,1,1.1.5,4.35,4.35,0,0,1,.7.6.86.86,0,0,1,.3.6c0,.1,0,.1.1.2a6.21,6.21,0,0,0-.3-1,3.54,3.54,0,0,1-.3-1.1,15.41,15.41,0,0,1-.2-1.9,8.74,8.74,0,0,1,.8,1,3,3,0,0,1,.6,2.7c-.2.5-.4,1.3-.6,1.7Zm.3,4.4c0-.1.1-.2.1-.3,0,.1-.1.2-.1.3-.1-.3-.1-.6-.2-.8a2.62,2.62,0,0,0-.5-.9,2.09,2.09,0,0,1-.4-.6,5.94,5.94,0,0,1-.7-2.6,4.35,4.35,0,0,0,.6.7c.4.4.7.6,1,.9a4.05,4.05,0,0,1,.5.9c.1.3.1.5.2.8v-.9a4.82,4.82,0,0,1,0-1.2,13,13,0,0,1,.4-2.1c.2.4.4.8.6,1.3a3.13,3.13,0,0,1-.3,3.1c-.4.2-.8,1.1-1.2,1.4ZM45,33.2c.1-.1.1-.2.2-.3-.1.1-.2.2-.2.3a2,2,0,0,0-.1-.8c-.1-.4-.2-.7-.3-1s-.2-.5-.3-.7a8.63,8.63,0,0,1-.2-2.8,5.94,5.94,0,0,0,.4.8,7.63,7.63,0,0,1,.8,1.1,1.93,1.93,0,0,1,.3,1v1a6.53,6.53,0,0,0,.2-1.1,2.66,2.66,0,0,1,.3-1.2,6.11,6.11,0,0,1,.9-2c.1.4.2.9.3,1.4a3.53,3.53,0,0,1-.9,3A8.64,8.64,0,0,1,45,33.2Zm-1.8,4.1c.1-.1.2-.1.3-.2-.1,0-.2.1-.3.2a2.92,2.92,0,0,0,.2-.9,4.82,4.82,0,0,0,0-1.2c0-.3-.1-.5-.1-.8a7.27,7.27,0,0,1,.7-2.9,3,3,0,0,0,.2,1,7.84,7.84,0,0,1,.5,1.4,2,2,0,0,1,0,1.1,6.89,6.89,0,0,1-.3.8c0,.1-.1.1-.1.2a4.07,4.07,0,0,0,.6-1.1,7.46,7.46,0,0,1,.7-1.2,9.51,9.51,0,0,1,1.5-1.8,9.15,9.15,0,0,1-.1,1.6,3.74,3.74,0,0,1-1.9,2.9,16.32,16.32,0,0,1-1.9.9ZM39.9,41c.1,0,.2-.1.3-.1a.77.77,0,0,0-.3.1,4.05,4.05,0,0,0,.5-.9,5,5,0,0,0,.4-1.3c.1-.3.1-.6.2-.8a7.42,7.42,0,0,1,1.8-2.9c-.1.4-.1.7-.2,1.1a9.65,9.65,0,0,1,0,1.7,5.64,5.64,0,0,1-.4,1.2,5.55,5.55,0,0,1-.6.8l-.2.2a10,10,0,0,0,1-.9,5.24,5.24,0,0,1,1.1-1,9.46,9.46,0,0,1,2.3-1.4c-.2.5-.4,1-.7,1.6a4.27,4.27,0,0,1-3,2.4,13.79,13.79,0,0,1-2.2.2ZM35,43.4h0a7.05,7.05,0,0,0,.9-.7,8.7,8.7,0,0,0,.9-1.1c.2-.3.3-.5.5-.8a8.93,8.93,0,0,1,2.9-2.2h0c-.3.4-.4.7-.6,1a8.51,8.51,0,0,1-.6,1.7,3.13,3.13,0,0,1-.9,1.1,2.36,2.36,0,0,1-.9.6c-.1,0-.2.1-.3.1a6.45,6.45,0,0,0,1.4-.6,4.42,4.42,0,0,1,1.6-.6,18.78,18.78,0,0,1,2.9-.6c-.4.4-.8.9-1.3,1.4A4.7,4.7,0,0,1,37.4,44a16.84,16.84,0,0,1-2.4-.6Zm6.5-26.2a27.17,27.17,0,0,0-5.2-3.6C38.1,13.7,40.9,15,41.5,17.2Zm-25.6,0a27.17,27.17,0,0,1,5.2-3.6C19.3,13.7,16.6,15,15.9,17.2Z"/><polygon class="cls-4" points="37.6 19.6 41.1 25.7 35.7 28.8 41.1 31.9 37.6 38 32.2 34.9 32.2 41.1 25.2 41.1 25.2 34.9 19.8 38 16.3 31.9 21.7 28.8 16.3 25.7 19.8 19.6 25.2 22.7 25.2 16.5 32.2 16.5 32.2 22.7 37.6 19.6"/><path class="cls-3" d="M27.8,36.4c0-.1,1.1-.2,1.2-.8.2-1.2-1.5-.6-1.5-1.9,0-1,1.6-1.2,1.6-1.8,0-.9-2-.5-2.1-2.1s2.2-1.8,2.2-2.7c0-1.8-3-.9-2.8-3.3.1-.7.5-1.7,2.9-1.6h.9a3.65,3.65,0,0,1,1,.7s-.1.4-.3.4c-.8,0-1.2,0-1.7-.5-.2-.2-1.8-.1-1.9,1-.1,1.3,2.9.9,2.9,2.9.1,2.2-2.4,1.8-2.4,3s1.9.7,1.9,2.1-1.8,1-1.8,2c0,.8,1.3.6,1.3,1.6S27.8,36.5,27.8,36.4Z"/><path class="cls-3" d="M28.4,20.1a.86.86,0,0,1,.8.8.84.84,0,0,1-.4.7c-.1,5.3,0,16-.3,16s-.2-10.6-.4-16a.75.75,0,0,1-.5-.7A.79.79,0,0,1,28.4,20.1Z"/><path class="cls-4" d="M30.4,22.7h-.3c-.1,0-.1-.2-.1-.2a.49.49,0,0,1,.3.1A.1.1,0,0,1,30.4,22.7Z"/><path class="cls-3" d="M10.3,9.2c.1-.1.1-.3.2-.4a4.65,4.65,0,0,0,.9.3c-.1.1-.1.3-.2.5-.4-.2-.7-.3-.9-.4Zm2.8-1-.6.6L10.3,11a14.36,14.36,0,0,1,1.4,1.5,9.22,9.22,0,0,1,.5.8,9.44,9.44,0,0,1,.3.9,1.27,1.27,0,0,0-.6.1,2.35,2.35,0,0,0-.2-.8,4.89,4.89,0,0,0-.7-1.1L9.7,11.1l2.6-2.5.6-.6.2.2Z"/><path class="cls-3" d="M17.8,7c-.1.1-.1.2-.2.3-.3-.2-.6-.5-1.1-.8.1-.1.1-.2.2-.3.5.4.9.6,1.1.8ZM19,8a5.92,5.92,0,0,1,.4.6l-.4.2-.3-.6L16.9,5.3a2.09,2.09,0,0,0-.4-.6l.4-.2c.2.3.3.6.4.7ZM16,6.1l1.5,2.5a4.35,4.35,0,0,1,.4.7l-.4.2a5.74,5.74,0,0,1-.4-.7L15.6,6.3a2.09,2.09,0,0,0-.4-.6l.4-.2a2.09,2.09,0,0,1,.4.6Zm.5,1.8-.3.3a9,9,0,0,0-1-.9c0-.1.1-.2.2-.3C15.8,7.4,16.2,7.6,16.5,7.9Zm-2.2.7c-.1-.2-.2-.5-.3-.7.2-.1.3-.2.4-.2a1.69,1.69,0,0,0,.2.5,3.55,3.55,0,0,0,.4.9.76.76,0,0,0-.4.2c-.1-.2-.2-.5-.3-.7Zm.4-1.8.8,1.3A6.12,6.12,0,0,1,16,9.3a6.15,6.15,0,0,1,.1,1.4.9.9,0,0,0-.5.1,2.79,2.79,0,0,0,.1-1,3,3,0,0,0-.5-1.4L14.3,7c-.1-.2-.3-.4-.5-.7l.4-.2a3,3,0,0,1,.5.7Z"/><path class="cls-3" d="M23.2,6.8l-.3-.9-.7.2.3.9.7-.2Zm-.6-1.9c.1.1.2.1.3.2l-.3.3a1.44,1.44,0,0,0-.3-.2c-.1-.1-.2-.1-.4-.2l.3-.3C22.4,4.8,22.5,4.9,22.6,4.9Zm-.5,2.3-.3-.9-.7.2.3.9.7-.2Zm-.5-2.8.7-.2c.3-.1.5-.2.8-.3l.1.4c-.3.1-.5.2-.8.3l-.8.2c0,.2-.1.3-.1.4a4.33,4.33,0,0,0-.1.5.6.6,0,0,0-.4-.1,2.92,2.92,0,0,0,.2-.9c0-.3.1-.6,0-.8h.6a1.69,1.69,0,0,0-.2.5Zm-.5,3.1-.3-.8-.7.2.3.9Zm-.4-1.9a.76.76,0,0,0,.2.4l-.4.1a4.33,4.33,0,0,1-.1-.5l-.2-.7c-.1-.2-.1-.3-.2-.5l.4-.1c0,.2.1.3.1.5Zm2.8.5.2.5a1.42,1.42,0,0,1,.6-.2l.1.4-.9.3L20.3,8.2a6.89,6.89,0,0,0-.8.3l-.1-.4a6.37,6.37,0,0,1,.7-.2l-.3-.5c-.1-.2-.1-.4-.2-.6l3.7-1.3a1.42,1.42,0,0,0,.2.6Zm-3.8-.2c.1.2.1.3.2.5l-.4.1c0-.2-.1-.3-.1-.5l-.2-.6c0-.1-.1-.3-.1-.4l.4-.1c0,.1.1.3.1.4l.1.6ZM19.8,3a.37.37,0,0,0,.1.3l.1.2,1-.4V3c-.2-.1-.2-.2-.3-.3l.5-.2a.6.6,0,0,0,.1.4V3l.9-.3a1.42,1.42,0,0,1,.6-.2l.1.4a1.85,1.85,0,0,0-.7.2l-.9.3v.1c0,.1.1.2.1.3l-.4.1a.37.37,0,0,0-.1-.3V3.5l-1,.4V4c0,.1.1.2.1.3l-.4.1a.37.37,0,0,0-.1-.3V4l-.7.3a1.42,1.42,0,0,1-.6.2l-.1-.4a6.37,6.37,0,0,1,.7-.2l.8-.3V3.5a.76.76,0,0,0-.2-.4l.4-.1Z"/><path class="cls-3" d="M27.1,1.8c.3,0,.5-.1.8-.1l.1.5a2.2,2.2,0,0,0-.8.1l-.9.1.1,1.2,1.4-.3c.3,0,.5-.1.7-.1l.1.5a2,2,0,0,0-.7.1L26.5,4a4.49,4.49,0,0,0,1,1.3,2.11,2.11,0,0,0,1.6.6.54.54,0,0,0-.3.4,3.1,3.1,0,0,1-1.3-.6,4,4,0,0,1-1.1-1.4,2.63,2.63,0,0,1-.7,1.5,4.73,4.73,0,0,1-1.3,1.1c-.1-.1-.2-.3-.4-.4a7.7,7.7,0,0,0,1.3-.9,3,3,0,0,0,.8-1.7L24.8,4c-.3,0-.6.1-.8.1l-.1-.5a2.49,2.49,0,0,0,.8-.1L26,3.4l-.2-1.1-.9.1c-.3,0-.6.1-.8.1L24,2a2.49,2.49,0,0,0,.8-.1l2.3-.1Z"/><path class="cls-3" d="M32.5,4.6a6.37,6.37,0,0,0,.2.7,6.9,6.9,0,0,0,.7-1.9l-.8-.1-.2.4a3.08,3.08,0,0,0,.1.9Zm-.6-2.2a.76.76,0,0,0-.4.2,4.88,4.88,0,0,1-.3-.7c.1-.1.3-.1.4-.2A1.33,1.33,0,0,0,31.9,2.4Zm-.4,1.5a2.18,2.18,0,0,0,.7-.9,5,5,0,0,0,.5-1.3c.1.1.3.1.5.2-.1,0-.1.1-.2.3l-.3.7,1,.1h.5v.4a4.33,4.33,0,0,1-.5-.1l-.3,1.2a3.7,3.7,0,0,1-.5,1.1c.1.1.2.3.4.4s.4.3.6.5a.78.78,0,0,0-.4.4c-.3-.2-.4-.4-.6-.5a2.18,2.18,0,0,1-.4-.5,3.6,3.6,0,0,1-1.2.8c0-.2-.1-.3-.2-.5a2.4,2.4,0,0,0,1.2-.7A4.94,4.94,0,0,1,32,4l-.2.3c-.1-.1-.2-.3-.3-.4ZM30,4c-.1.1-.3.1-.4.2a5.94,5.94,0,0,0-.4-.8c.1-.1.3-.1.4-.2A5.94,5.94,0,0,1,30,4Zm1.4,1.5c-.3-.4-.5-.8-.8-1.2l-.1,1.5a.6.6,0,0,1-.3.6c-.1.1-.4.1-.7.1a1.27,1.27,0,0,0-.1-.6c.5.1.7,0,.7-.1l.1-1a2.19,2.19,0,0,1-.5.3,2.09,2.09,0,0,0-.6.4,2.19,2.19,0,0,1-.3-.5c.2-.1.7-.3,1.4-.7L30.3,3c-.4,0-.8-.1-1-.1V2.5c.3,0,.6.1,1,.1a5.38,5.38,0,0,0,.1-1.1l.5.1c0,.2-.1.5-.2,1.1a4.91,4.91,0,0,0,1.1.1v.4c-.2,0-.6-.1-1.1-.1v.7l.2.2a1.61,1.61,0,0,0,.4-.7l.3.3a1.79,1.79,0,0,0-.5.7,2.36,2.36,0,0,1,.6.9l-.3.3Z"/><path class="cls-3" d="M38.1,4.5h-.4V3.8h.4Zm-.6,2.4.3-.3L37,6.3c0,.2,0,.3.1.4s.1.2.1.3.2-.1.3-.1Zm-.3-2.6h-.4V3.6h.4v.7Zm.8-1a4.05,4.05,0,0,1,1,.3,4.33,4.33,0,0,1,.5.1.75.75,0,0,0,.1.5,10.38,10.38,0,0,0-1.2-.3c-.5-.1-1.1-.3-1.6-.4,0-.2,0-.3-.1-.4a3.18,3.18,0,0,1,1.3.2Zm.5,2.4a1.85,1.85,0,0,0,.7.2l-.1.4a4.88,4.88,0,0,0-.7-.3l-1.2-.4-.3.3,1.6.6-.6.6c-.2.1-.3.2-.5.3a.78.78,0,0,0,.4.4l.6.3a1.38,1.38,0,0,0-.4.3c-.2-.1-.4-.3-.6-.4s-.3-.3-.4-.4-.4.1-.6.1h-.7a.76.76,0,0,0-.2-.4h.7a1.27,1.27,0,0,0,.6-.1,6.37,6.37,0,0,1-.2-.9c-.3.2-.5.4-.7.5a5.94,5.94,0,0,1-.8.4.54.54,0,0,0-.3-.4c.2-.1.5-.2.9-.4a3.33,3.33,0,0,0,1.1-1h-.1c-.2-.1-.5-.1-.7-.2l.1-.4a4.88,4.88,0,0,0,.7.3l.2.1a1.44,1.44,0,0,1,.2-.3h-.1a1.85,1.85,0,0,0-.7-.2l.1-.4c.2.1.5.2.7.3l1.1.4a3.28,3.28,0,0,0,.6-.8c.2.2.3.3.4.3l-.6.6c.2.1.4.1.5.2l-.1.4a4.88,4.88,0,0,0-.7-.3l-.8-.3c0,.1-.1.2-.2.3l1.1.3Zm-3.3-.5-.5,1.4c-.1.2-.2.4-.3.4a2.64,2.64,0,0,1-.7-.1V6.4a1.09,1.09,0,0,0,.5.1c.1,0,.1-.1.2-.2l.4-1c-.3,0-.5.1-.7.1V5h.8l.4-1.2h-.1c-.2-.1-.4-.1-.5-.2l.1-.4c.2.1.3.1.5.2h.1l.2-.6c.1-.2.1-.4.2-.6l.4.2c-.1.2-.1.4-.2.6l-.2.6a4.17,4.17,0,0,0,.6.2l-.1.4a1.42,1.42,0,0,0-.6-.2l-.3.9h.5c0,.1-.1.2-.1.4-.1-.1-.3-.1-.6-.1Z"/><path class="cls-3" d="M43.3,9.6a.76.76,0,0,0-.4-.1,3.59,3.59,0,0,0,.2-1.1h.4a3.26,3.26,0,0,1-.2,1.2ZM40.5,8.1l-.3-.3c.5-.4.8-.6.9-.8a1.38,1.38,0,0,0,.4.3,2.79,2.79,0,0,0-1,.8ZM43,5.6l.4.4a1.83,1.83,0,0,0-.6.8l1,.6c-.1.1-.2.3-.4.5L42,9.9c-.1.2-.3.3-.4.2a1.42,1.42,0,0,1-.6-.2,1.09,1.09,0,0,0,.1-.5,1.07,1.07,0,0,1,.5.3c.1,0,.2,0,.3-.2l1.4-2.1L42.7,7a8.7,8.7,0,0,1-1.2,1.4,3.37,3.37,0,0,1-1.7.8.91.91,0,0,0-.3-.5,2.42,2.42,0,0,0,1.3-.4,5.3,5.3,0,0,0,1.5-1.5c-.2-.1-.5-.3-.7-.4l.2-.3c.2.2.5.3.7.5a2.34,2.34,0,0,1,.5-1ZM41.1,4.5l.4.3c-.1.2-.4.6-.8,1.2.2.1.4.3.6.3l-.2.3a2.09,2.09,0,0,1-.6-.4L39.2,8.3a5.74,5.74,0,0,1-.4.7l-.4-.3a5.74,5.74,0,0,0,.4-.7l1.3-2.1a2.19,2.19,0,0,0-.5-.3l.2-.3a5.92,5.92,0,0,0,.6.4A10.38,10.38,0,0,0,41.1,4.5Z"/><path class="cls-3" d="M46.4,10.6a2.65,2.65,0,0,0,.6.5l-.3.3a1.7,1.7,0,0,0-.6-.6l-.7-.7-.5-.5.3-.3.5.5.7.8Zm1.5,1.6a.9.9,0,0,0-.5.1A5.77,5.77,0,0,1,47,9.5a9.25,9.25,0,0,1-2.9-.2V8.8a4.78,4.78,0,0,0,1.8.4A3.66,3.66,0,0,0,47.5,9c0,.2.1.3.2.5h-.2a3.38,3.38,0,0,0,.4,2.7Zm-4.5-.8a16.47,16.47,0,0,0,1.7,1.5v-.8h.4v1.7H45c0-.2.1-.4,0-.5a10,10,0,0,1-1.2-1.1,8.66,8.66,0,0,0-1.2-.9c.1-.2.1-.3.2-.4a2.15,2.15,0,0,0,1,.2,2.79,2.79,0,0,0,1-.1l-.5-.4a6,6,0,0,1-.8-.8l.3-.3a6,6,0,0,0,.8.8l1.6,1.5a5,5,0,0,0,.8.7l-.3.3a6,6,0,0,0-.8-.8l-.9-.9c0,.2,0,.3.1.4a13.92,13.92,0,0,1-1.7-.1Z"/><path class="cls-3" d="M4.8,24.1,4,23.9a6.89,6.89,0,0,1-.8-.3,1.21,1.21,0,0,1-.5-.5.9.9,0,0,1-.1-.5c0-.2.1-.3.3-.4a1.42,1.42,0,0,1,.6-.2,2.2,2.2,0,0,1,.8.1l1.3.3a6.89,6.89,0,0,1,.8.3,1.21,1.21,0,0,1,.5.5.9.9,0,0,1,.1.5.54.54,0,0,1-.3.4.76.76,0,0,1-.5.2H5.5l.1-.4H6c.1,0,.2-.1.3-.1s.1-.1.1-.2a.37.37,0,0,0-.1-.3L6,23c0-.1-.2-.2-.4-.2l-1.3-.3a4.33,4.33,0,0,1-.5-.1c-.2,0-.3,0-.4.1s-.2.1-.2.3a.37.37,0,0,0,.1.3l.3.3c.1.1.3.1.5.2h.2l.1-.5.6.1-.2.9Z"/><path class="cls-3" d="M2.4,24.6a1.42,1.42,0,0,1,.6-.2h.9l2.9.5v.3l-2.9-.4H3.1c-.2.1-.3.2-.3.4a.55.55,0,0,0,.2.5c.1.1.4.1.7.2l2.9.4-.1.4-2.9-.4a6.37,6.37,0,0,1-.9-.2,1,1,0,0,1-.5-.4c-.1-.2-.2-.3-.1-.5A1.63,1.63,0,0,1,2.4,24.6Z"/><path class="cls-3" d="M3.6,27.2V28l-.6.1L3.1,27l.5.2Zm2.9.4v.3l-4.6.7v-.4l3.7-.5L2,26.8v-.4l4.5,1.2Z"/><polygon class="cls-3" points="6.4 29 6.4 29.3 3 30.7 3.1 30.7 6.5 30.6 6.5 30.9 2 31.1 1.9 30.8 5.4 29.3 5.2 29.4 1.9 29.5 1.9 29.1 6.4 29"/><path class="cls-3" d="M4.7,33.3l-.8.1H3a.85.85,0,0,1-.6-.2.55.55,0,0,1-.3-.5.75.75,0,0,1,.1-.5,1,1,0,0,1,.5-.4,1.88,1.88,0,0,1,.8-.2l1.3-.2h.9a.85.85,0,0,1,.6.2.55.55,0,0,1,.3.5c0,.2,0,.3-.1.4s-.2.3-.4.4a4.88,4.88,0,0,1-.7.3v-.4a.76.76,0,0,0,.4-.2c.1-.1.2-.1.2-.2a.35.35,0,0,1,.1-.2c0-.1-.1-.2-.2-.3s-.2-.1-.4-.1H4.9L3.6,32a4.33,4.33,0,0,0-.5.1c-.1.1-.2.1-.3.2a.37.37,0,0,0-.1.3c0,.2.1.2.2.3s.2.1.4.1h.8L4,32.5l.6-.1.1.9Z"/><polygon class="cls-3" points="6.6 34.9 3.1 34.5 3.3 35.6 2.7 35.8 2.4 34.2 2.9 34 6.5 34.4 6.2 33.3 6.8 33.2 7.2 34.7 6.6 34.9"/><path class="cls-3" d="M5.4,35.9,5.8,37l-.6.2-.4-1.1.6-.2Zm2.3.4.1.4L3.5,38.1l-.1-.4Zm-.5-1.4.1.4L3,36.7l-.1-.4,4.3-1.4Z"/><path class="cls-3" d="M4.8,39.6c.1,0,.2.1.4,0s.3-.1.5-.1L6.9,39c.3-.2.4-.2.5-.3l.3-.3v-.3a.22.22,0,0,0-.2-.2c-.1,0-.2-.1-.4,0s-.3.1-.5.1l-1.2.5c-.2.1-.3.2-.5.3l-.3.3v.3l.2.2ZM4,39.1a1,1,0,0,1,.4-.5,5.58,5.58,0,0,1,.8-.5l1.2-.5a2.92,2.92,0,0,1,.9-.2,1.48,1.48,0,0,1,.7.1.78.78,0,0,1,.4.4.45.45,0,0,1,0,.5,1,1,0,0,1-.4.5,5.58,5.58,0,0,1-.8.5l-1.3.4A2.92,2.92,0,0,1,5,40a1.48,1.48,0,0,1-.7-.1.78.78,0,0,1-.4-.4.6.6,0,0,1,.1-.4Z"/><path class="cls-3" d="M5,41.3a2.09,2.09,0,0,1,.4-.6,1.58,1.58,0,0,1,.8-.5l2.5-1.4.2.3L6.3,40.5c-.3.2-.5.3-.6.5a.45.45,0,0,0,0,.5c0,.2.2.3.4.3a1.85,1.85,0,0,0,.7-.2l2.6-1.4.2.3L7,41.9a1.61,1.61,0,0,1-.9.3.85.85,0,0,1-.7,0,.78.78,0,0,1-.4-.4v-.5Z"/><path class="cls-3" d="M7.2,44.2l.3.5a.9.9,0,0,0,.5.1c.2,0,.3-.1.5-.2h0l.3-.3a.5.5,0,0,0,0-.6l-.4-.5.5-.3.4.5c.1.1.2.2.3.2a1.69,1.69,0,0,0,.5-.2.54.54,0,0,0,.3-.4.6.6,0,0,0-.1-.4l-.4-.5.5-.3.4.5a.6.6,0,0,1,.1.4c0,.2-.1.3-.2.5s-.3.3-.5.5a.76.76,0,0,1-.4.2.6.6,0,0,1-.4.1.37.37,0,0,1-.3-.1v.3c0,.1-.1.2-.2.4a1.38,1.38,0,0,1-.4.3h0l-.6.3a.45.45,0,0,1-.5,0A.52.52,0,0,1,7,45l-.2-.5.4-.3Zm3-2.7.2.3L6.8,44.5l-.2-.3Z"/><path class="cls-3" d="M8.7,46.1l.9,1-.5.4-.9-1Zm2.8-2.9.2.3-3.4,3-.2-.3,3.4-3Z"/><path class="cls-3" d="M9.9,48a1.42,1.42,0,0,1,.2-.6,1.87,1.87,0,0,1,.6-.7l2-2.1.3.3L11,47a1.27,1.27,0,0,0-.4.7.46.46,0,0,0,.6.6,1.33,1.33,0,0,0,.6-.5l2-2.1.3.3-2,2.1a1.87,1.87,0,0,1-.7.6,1.42,1.42,0,0,1-.6.2.76.76,0,0,1-.5-.2C9.9,48.3,9.9,48.2,9.9,48Z"/><path class="cls-3" d="M14.5,46.2l1,.8-.4.5-1-.8Zm-1.3,1.6.9.7-.4.5-.9-.8.4-.4ZM12,49.3l1,.8-.4.5-1-.8ZM14.2,46l.3.2-2.9,3.6-.3-.2Z"/><path class="cls-3" d="M14.5,51.9l-.1-.1c-.1-.1-.1-.2-.2-.3s-.1-.3-.1-.4l.5-.3a.9.9,0,0,0,.1.5l.3.3a.9.9,0,0,0,.5.1c.2,0,.3-.2.4-.4h0a.6.6,0,0,0,.1-.4.37.37,0,0,0-.1-.3c0-.1-.1-.2-.2-.3h0c-.1-.1-.2-.3-.3-.4a.75.75,0,0,1-.1-.5,1.33,1.33,0,0,1,.3-.7h0a2.65,2.65,0,0,1,.5-.6c.2-.1.3-.2.5-.2a.9.9,0,0,1,.5.1.22.22,0,0,1,.2.2.37.37,0,0,1,.1.3c0,.1.1.2.1.4l-.4.3c0-.2-.1-.3-.1-.4s-.1-.2-.2-.2a.9.9,0,0,0-.5-.1.78.78,0,0,0-.4.4h0a.6.6,0,0,0-.1.4.37.37,0,0,0,.1.3c0,.1.1.2.2.3h0a.76.76,0,0,1,.2.4.45.45,0,0,1,0,.5,1.33,1.33,0,0,1-.3.7h0a1.21,1.21,0,0,1-.5.5c-.2.1-.3.2-.5.2a.75.75,0,0,1-.5-.1.14.14,0,0,0,0-.2Z"/><path class="cls-3" d="M17.8,51.1l.5-.4-.4,2.9-.4-.2Zm-.4-.1,2-1.7.4.2L17,51.8l.4-.8Zm.7-2.3.3.2-2,4.1-.3-.2Z"/><polygon class="cls-3" points="19.7 52.4 19 54.1 18.6 54 19.3 52.3 19.6 49.4 20 49.6 19.7 51.7 21.1 50 21.4 50.2 19.7 52.4"/><path class="cls-3" d="M21.7,55.1l-.1-.1-.3-.3c-.1-.1-.1-.2-.2-.4l.3-.4c.1.2.1.3.2.4a.52.52,0,0,0,.4.2.9.9,0,0,0,.5-.1,1.07,1.07,0,0,0,.3-.5h0v-.4a.35.35,0,0,0-.1-.2.77.77,0,0,0-.3-.2h0a1.38,1.38,0,0,1-.4-.3.52.52,0,0,1-.2-.4,2.81,2.81,0,0,1,.1-.8h0a4.88,4.88,0,0,1,.3-.7c.1-.2.3-.3.4-.4a.45.45,0,0,1,.5,0c.1,0,.2.1.3.1s.2.1.2.2.1.2.2.3l-.3.4c-.1-.1-.1-.3-.2-.4s-.2-.1-.3-.2a.9.9,0,0,0-.5.1,2.19,2.19,0,0,0-.3.5h0v.4a.35.35,0,0,0,.1.2c.1.1.2.1.3.2h0c.1.1.3.2.3.3s.1.2.2.4a2,2,0,0,1-.1.7h0a4.88,4.88,0,0,1-.3.7c-.1.2-.3.3-.4.4a.45.45,0,0,1-.5,0C21.8,55.1,21.7,55.1,21.7,55.1Z"/><path class="cls-3" d="M24.5,51l1.3.2-.1.6-1.3-.2.1-.6Zm-.3,2,1.1.2-.1.6-1.1-.2Zm-.3,1.9,1.3.2-.1.6-1.3-.2.1-.6Zm.3-4,.4.1-.8,4.5-.4-.1.8-4.5Z"/><path class="cls-3" d="M26.2,54.2l.8.1.1.6-1-.1.1-.6Zm.5-2.9H27l.6,4.6h-.4l-.4-3.7-1,3.6h-.4l1.3-4.5Z"/><path class="cls-3" d="M29,54l.4-.1.6,2h-.4L29,54Zm-.5-.6h.7c.1,0,.1,0,.2-.1s.1-.1.1-.3v-.8a.35.35,0,0,0-.1-.2c-.1-.1-.1-.1-.2-.1h-.7v-.6h.7a.52.52,0,0,1,.4.2,2.19,2.19,0,0,1,.3.5,2.5,2.5,0,0,1,0,1.4,2.19,2.19,0,0,1-.3.5c-.1.1-.4.1-.5.2h-.6v-.7Zm-.4-2h.4V56h-.4V51.4Z"/><path class="cls-3" d="M31.2,55.9l-.2-.2a.92.92,0,0,1-.4-.6,2,2,0,0,1-.2-.9L30.3,53v-.9c.1-.3.1-.5.3-.6s.3-.2.5-.3.3,0,.4.1.3.2.4.4a1.45,1.45,0,0,1,.2.7h-.4a.76.76,0,0,0-.2-.4c-.1-.1-.1-.2-.2-.2a.31.31,0,0,0-.2-.1c-.1,0-.2.1-.3.2s-.1.2-.2.4v.6l.1,1.2c0,.2.1.4.1.6s.1.3.2.4a.37.37,0,0,0,.3.1c.1,0,.2,0,.2-.1s.1-.2.2-.3.1-.3.1-.4h.4a1.48,1.48,0,0,1-.1.7,2.19,2.19,0,0,1-.3.5.52.52,0,0,1-.4.2.31.31,0,0,1-.2.1Z"/><path class="cls-3" d="M33.6,50.9l.4-.1.9,4.5-.4.1-.9-4.5Zm-.7,2.2,1.1-.2.1.6-1.1.2Zm-.8-1.9.4-.1.9,4.5-.4.1Z"/><path class="cls-3" d="M36.4,53a1.76,1.76,0,0,0,.1.6,2.19,2.19,0,0,0,.3.5.6.6,0,0,0,.4.1c.1,0,.2-.2.3-.3a.85.85,0,0,0,0-.7,2.92,2.92,0,0,0-.2-.9l.3-.1a3.45,3.45,0,0,1,.3,1.3,2.22,2.22,0,0,1-.1.9,1.21,1.21,0,0,1-.5.5.45.45,0,0,1-.5,0c-.1-.1-.3-.2-.4-.3l-.3-.6c-.1-.4-.2-.7-.1-.9s0-.2.1-.3l.3.4c.1-.3.1-.4,0-.2Zm.2-.1a1.38,1.38,0,0,1-.3-.4c-.1-.1-.2-.3-.3-.4s-.2-.3-.2-.5c-.1-.4-.2-.7-.1-.9a.62.62,0,0,1,1-.4,2.77,2.77,0,0,1,.5.8v.1l-.4.1v-.1c-.1-.2-.1-.3-.2-.4a.37.37,0,0,0-.3-.1.22.22,0,0,0-.2.2,1.09,1.09,0,0,0,.1.5c0,.1.1.2.2.3s.1.2.2.3l.3.3L38.8,54l-.5.1-.3-.2a4.33,4.33,0,0,0,.1-.5l-.4-.4v.5l-1.1-.6Z"/><path class="cls-3" d="M40.1,51.4l.3-.2,1.4,1.5-.4.1Zm-.8-.3.6-.3c.1,0,.1-.1.1-.2v-.3c0-.1-.1-.2-.1-.4s-.1-.2-.2-.2l-.2-.2h-.2l-.7.3-.3-.5.6-.3a.3.3,0,0,1,.4,0c.2,0,.3.1.4.3a1.54,1.54,0,0,1,.4.6,1.85,1.85,0,0,1,.2.7v.5c-.1.1-.2.3-.3.3l-.6.3-.1-.6ZM38,49.4l.3-.2,2,4.1-.3.2-2-4.1Z"/><path class="cls-3" d="M42.3,51.6l1.1-.7.3.5-1.1.7-.3-.5Zm-1-1.6,1-.6.3.5-1,.6Zm-1.1-1.7,1.1-.7.3.5-1.1.7Zm-.3.2.3-.2,2.4,3.9-.3.2Z"/><path class="cls-3" d="M44.7,50.8a.31.31,0,0,0-.2.1h-.4a.6.6,0,0,1-.4-.1l-.1-.5a.9.9,0,0,0,.5.1c.1,0,.3-.1.4-.1a.4.4,0,0,0,.2-.4.55.55,0,0,0-.2-.5h0l-.3-.3c-.1,0-.2-.1-.3-.1a.37.37,0,0,0-.3.1h0a.9.9,0,0,1-.5.1.6.6,0,0,1-.4-.1c-.2-.1-.3-.3-.5-.5h0a.86.86,0,0,1-.3-.6.64.64,0,0,1,0-.6,1.38,1.38,0,0,1,.3-.4.37.37,0,0,1,.3-.1h.3a.76.76,0,0,1,.4.1l.1.5c-.2,0-.3-.1-.4-.1a.37.37,0,0,0-.3.1.52.52,0,0,0-.2.4c0,.2.1.3.2.5h0l.3.3c.1,0,.2.1.3,0a.37.37,0,0,0,.3-.1h0a.76.76,0,0,1,.4-.1.6.6,0,0,1,.4.1c.2.1.3.3.5.5h0a.86.86,0,0,1,.3.6.64.64,0,0,1,0,.6,1.76,1.76,0,0,1-.4.5Z"/><path class="cls-3" d="M46.6,49.4h-.3a1.42,1.42,0,0,1-.6-.2,1.87,1.87,0,0,1-.7-.6l-.8-.9c-.2-.3-.4-.5-.5-.7a1.85,1.85,0,0,1-.2-.7.69.69,0,0,1,.6-.7,1.27,1.27,0,0,1,.6.1,2.09,2.09,0,0,1,.6.4l-.3.3c-.1-.1-.2-.2-.3-.2s-.2-.1-.3-.1-.2,0-.2.1a.37.37,0,0,0-.1.3.6.6,0,0,0,.1.4c.1.2.2.3.3.5l.8.9c.1.2.3.3.4.4s.3.1.4.2a.37.37,0,0,0,.3-.1c.1-.1.1-.1.1-.2v-.3c0-.1-.1-.2-.2-.4l.3-.3a.86.86,0,0,1,.3.6,1.27,1.27,0,0,1,.1.6.52.52,0,0,1-.2.4c-.2.1-.2.2-.2.2Z"/><path class="cls-3" d="M48,47.7a.73.73,0,0,1-.6-.2,3,3,0,0,1-.7-.5l-2.1-2,.3-.3,2.1,2a1.27,1.27,0,0,0,.7.4.46.46,0,0,0,.6-.6,1.33,1.33,0,0,0-.5-.6l-2.1-2,.3-.3,2.1,2a1.87,1.87,0,0,1,.6.7,1.42,1.42,0,0,1,.2.6.76.76,0,0,1-.2.5c-.4.2-.5.3-.7.3Z"/><path class="cls-3" d="M49.3,45.6l.8-1,.5.4-.8,1-.5-.4Zm-1.6-1.2.7-.9.5.4-.7.9Zm-1.5-1.2.8-1,.5.4-.8,1Zm-.3.3.2-.3L49.7,46l-.2.3-3.6-2.8Z"/><path class="cls-3" d="M50.6,41.9l.4-.7.6.2-.5.9Zm-2.5-1.6.2-.3,4.4,1.4-.2.3-3.6-1.2L51.7,43l-.2.3-3.4-3Z"/><path class="cls-3" d="M53.2,40.5h0c-.2.2-.3.3-.4.3a.6.6,0,0,1-.4.1l-.3-.4a.52.52,0,0,0,.4-.2l.3-.3a.45.45,0,0,0,0-.5c-.1-.1-.2-.3-.4-.4h0A.6.6,0,0,0,52,39a.37.37,0,0,0-.3.1c-.1.1-.2.1-.2.2h0l-.3.3a.6.6,0,0,1-.4.1,2.54,2.54,0,0,1-.7-.2h0a1.54,1.54,0,0,1-.6-.4,1.33,1.33,0,0,1-.3-.5.9.9,0,0,1,.1-.5.22.22,0,0,1,.2-.2c.1-.1.2-.1.3-.2s.2-.1.4-.1l.4.4a.52.52,0,0,0-.4.2c-.1.1-.2.1-.2.2a.45.45,0,0,0,0,.5c.1.1.2.3.4.4h0a.6.6,0,0,0,.4.1.37.37,0,0,0,.3-.1c.1-.1.2-.1.3-.2h0l.3-.3a.75.75,0,0,1,.5-.1,2.54,2.54,0,0,1,.7.2h0a.92.92,0,0,1,.6.4c.1.2.2.3.3.5a.75.75,0,0,1-.1.5c-.5.1-.5.2-.5.2Z"/><path class="cls-3" d="M54.1,38.3h0c-.2.2-.3.3-.4.3s-.2.1-.4.2l-.4-.4a.52.52,0,0,0,.4-.2c.1-.1.2-.2.2-.3a.45.45,0,0,0,0-.5,1.38,1.38,0,0,0-.4-.3h0a.6.6,0,0,0-.4-.1.37.37,0,0,0-.3.1l-.2.2h0c-.1.1-.2.3-.3.3s-.2.1-.4.1a2,2,0,0,1-.7-.1h0a1.63,1.63,0,0,1-.6-.3.55.55,0,0,1-.3-.5c-.1-.2,0-.3,0-.5a.35.35,0,0,1,.1-.2l.2-.2c.1-.1.2-.1.3-.2l.4.4c-.2.1-.3.1-.4.2s-.2.2-.2.3,0,.3,0,.5a1.38,1.38,0,0,0,.4.3h0a.6.6,0,0,0,.4.1c.1,0,.2-.1.3-.1a.77.77,0,0,0,.2-.3h0l.3-.3a.6.6,0,0,1,.4-.1,2,2,0,0,1,.7.1h0a1.63,1.63,0,0,1,.6.3.55.55,0,0,1,.3.5v.5l.2.2Z"/><path class="cls-3" d="M54.2,35.4l-.3-.3a.76.76,0,0,0-.5-.2l-1.3-.3a1.09,1.09,0,0,0-.5-.1c-.2,0-.3,0-.4.1s-.2.1-.2.2a.37.37,0,0,0,.1.3l.3.3a.76.76,0,0,0,.5.2l1.3.3a1.09,1.09,0,0,0,.5.1c.2,0,.3,0,.4-.1s.2-.1.2-.2A.37.37,0,0,0,54.2,35.4Zm.4.9a1.45,1.45,0,0,1-.7.2,2.77,2.77,0,0,1-.9-.1L51.8,36a6.89,6.89,0,0,1-.8-.3,1.21,1.21,0,0,1-.5-.5.9.9,0,0,1-.1-.5c0-.2.2-.3.3-.4a1.45,1.45,0,0,1,.7-.2,2.77,2.77,0,0,1,.9.1l1.3.3a6.89,6.89,0,0,1,.8.3,1.21,1.21,0,0,1,.5.5.9.9,0,0,1,.1.5c-.2.2-.3.4-.4.5Z"/><path class="cls-3" d="M55.4,33.7l-.2.2a1.42,1.42,0,0,1-.6.2h-.9l-1.2-.2a3.18,3.18,0,0,1-.9-.3,2.18,2.18,0,0,1-.5-.4.54.54,0,0,1-.3-.5.69.69,0,0,1,.7-.6,1.7,1.7,0,0,1,.7-.1l-.1.4a.6.6,0,0,0-.4.1c-.1,0-.2.1-.3.1s-.1.1-.1.2a.37.37,0,0,0,.1.3c.1.1.2.2.3.2s.3.1.5.2l1.2.2H54c.2,0,.3-.1.4-.1s.2-.2.2-.3v-.2a.22.22,0,0,0-.2-.2c-.1-.1-.2-.1-.4-.2l.1-.4a4.88,4.88,0,0,1,.7.3c.2.1.3.3.4.4a.6.6,0,0,1,.1.4.77.77,0,0,1,.1.3Z"/><polygon class="cls-3" points="55.6 31.7 55.6 32.1 51 31.6 51.1 31.2 55.6 31.7"/><path class="cls-3" d="M54.1,30.6v-.8l.6-.1v1.1Zm-3-.4v-.3l4.6-.8v.4l-3.7.6,3.6.9v.4l-4.5-1.2Z"/><path class="cls-3" d="M51.8,28.5v-.4l4-.1v.4l-4,.1Zm-.6.8-.1-1.9h.6l.1,1.9Z"/><polygon class="cls-3" points="55.6 26.7 55.6 27.1 51.1 27.4 51.1 27.1 55.6 26.7"/><path class="cls-3" d="M54.7,25c-.1-.1-.2-.1-.4-.1h-.5l-1.3.2a4.33,4.33,0,0,0-.5.1c-.1.1-.3.1-.3.2a.37.37,0,0,0-.1.3c0,.1.1.2.2.3s.2.1.4.1h.5l1.3-.2a4.33,4.33,0,0,0,.5-.1c.1-.1.3-.1.3-.2a.37.37,0,0,0,.1-.3C54.8,25.2,54.8,25.1,54.7,25Zm.6.7a1,1,0,0,1-.5.4,2,2,0,0,1-.9.2l-1.3.2a2.72,2.72,0,0,1-.9,0,.85.85,0,0,1-.6-.2.55.55,0,0,1-.3-.5.75.75,0,0,1,.1-.5,1,1,0,0,1,.5-.4,2,2,0,0,1,.9-.2l1.3-.2a2.72,2.72,0,0,1,.9,0,.85.85,0,0,1,.6.2.55.55,0,0,1,.3.5c.1.2.1.4-.1.5Z"/><polygon class="cls-3" points="50.7 24.7 50.7 24.4 53.8 22.3 53.7 22.3 50.4 23.2 50.3 22.8 54.7 21.7 54.8 22 51.7 24.1 51.8 24.1 55.1 23.3 55.2 23.6 50.7 24.7"/></g><path class="cls-5" d="M13.6,142.3v4c0,4.7-.9,8.2-2.6,10.5a16,16,0,0,0-2.3-2c1.5-1.7,2.2-4.7,2.1-8.8v-6.2H18a.76.76,0,0,1-.2-.5c-.2-.6-.4-.9-.5-1.2l3.1-.8c.1.3.3.7.5,1.2a7.26,7.26,0,0,0,.5,1.2h6.7v2.6Z"/><path class="cls-5" d="M10.6,164.8l2.2.5c-.5,2.3-.9,4.4-1.4,5.9l-2.3-.8a41.38,41.38,0,0,0,1.5-5.6Zm4.8.7h0l2.2-.6c.5,1.6.9,3.5,1.4,5.6l-2.3.5a20.74,20.74,0,0,1-.6-2.6c-.3-1.3-.5-2.2-.7-2.9v2.7c.2,4.8-1,8.3-3.3,10.7A29.17,29.17,0,0,0,9.8,177c2.1-1.8,3.2-4.8,3-9v-8h2.6v5.5ZM19,178.3h0V160.1h2.6v5.3l1.9-.6c.3.9.8,2.3,1.4,4.6a4.71,4.71,0,0,1,.2.5V159.8h2.6v18.9H25.1v-8.4L23,171q-.6-2.4-1.5-5.1v12.5l-2.5-.1Z"/><path class="cls-5" d="M20.3,183.6v-1.3h2.6v1.3h5.3v2.2H22.9v.9H20.3v-.9H16.6v.9H14v-.9H8.5v-2.3H14v-1.3h2.6v1.3h3.7ZM8.6,200.9h0v-2h1.8v-5.1h16v5.1h1.8v2Zm3.8-7.7H9.9v-5.8h2.5Zm.7,5.7H15V196H13.1Zm3.6-5.7H14.2v-6.1h2.6v6.1Zm4.8-2.1h0l1.2-1.2H20.9a20.17,20.17,0,0,1-1.8,3.6,11.49,11.49,0,0,0-2.1-1.3,21.26,21.26,0,0,0,2.4-5.5l2.4.5a.37.37,0,0,1-.1.3c0,.2,0,.2-.1.3h6.2V190H23.6a.52.52,0,0,0,.4.2,10,10,0,0,1,2.2,1.9l-1.6,1.7c-.9-.9-2-1.7-3.1-2.7Zm-4,7.8h1.8V196H17.5Zm6.2-2.9H21.8v2.9h1.9Z"/><path class="cls-5" d="M8.9,213.7V211h7.7a20,20,0,0,0,.4-3.7H10v-2.6H27v2.6H19.9c-.1,1.2-.2,2.4-.2,3.7H28v2.7H20.4a11.8,11.8,0,0,0,7.8,6.6,14.12,14.12,0,0,0-1.8,2c-.2.2-.4.5-.5.6a13.82,13.82,0,0,1-7.6-7.6c-1.2,3-3.7,5.5-7.4,7.4a16.31,16.31,0,0,0-2.3-2.3c4.2-1.9,6.7-4.1,7.4-6.8H8.9Z"/><path class="cls-5" d="M15.1,238.1l.6-1c1.1.8,2.4,1.9,4,3.2l-1.7,2c-.5-.5-1.1-1.2-2-2a7.53,7.53,0,0,0-.9-.9V243c0,1.6-.7,2.4-2,2.4a26.61,26.61,0,0,1-3,.2c-.2-.9-.4-1.6-.6-2.5a13.47,13.47,0,0,0,2.2.1c.7,0,1-.3,1-1.1v-2.6a32.71,32.71,0,0,0-3.3,3.2l-.8-2.6c1.1-.9,2.3-1.8,3.4-2.8l.7,1.2V232h-4v-2.4h3.9v-3.2h2.5v3.2h1.7a14,14,0,0,0-1.6-2.2l1.6-1.1a5.29,5.29,0,0,0,.9,1.1c.4.5.7.8.9,1.1l-1.5,1.1h1.7V232H15.1v3.8c.6-.9,1.4-1.9,2.2-3.3l1.2.8a33.79,33.79,0,0,0,2.3-7l2.6.7c-.2.8-.4,1.6-.6,2.6h5.3v2.5H26.9a26.6,26.6,0,0,1-2.3,8.1,10.71,10.71,0,0,0,3.6,3,8.61,8.61,0,0,0-1.7,2.5,12.28,12.28,0,0,1-3.3-3.1,21.3,21.3,0,0,1-4,3.3c-.5-.6-1.2-1.4-2-2.3a12.39,12.39,0,0,0,4.5-3.6,12.51,12.51,0,0,1-1.4-4.5c-.4.5-.6.9-.9,1.3a8.4,8.4,0,0,1-1-1.2c-.1-.2-.2-.2-.2-.3a15.62,15.62,0,0,0-1.3,1.9L15.3,236l-.2,2.1Zm-6.5-4.5h0l1.7-1.1c.6.9,1.4,1.9,2.3,3.3l-1.9,1.1q-.6-1.05-1.8-3Q8.6,233.75,8.6,233.6ZM21.8,232h0l-.1.2a17.91,17.91,0,0,0,1.3,5.3,18.5,18.5,0,0,0,1.4-5.5Z"/><path class="cls-5" d="M19,259.9h7.9v1.8a13.51,13.51,0,0,1-2.6,3.2,15.88,15.88,0,0,0,3.9.7,14.39,14.39,0,0,0-1.3,2.3,12.39,12.39,0,0,1-4.8-1.6,19,19,0,0,1-4.9,1.8A7.19,7.19,0,0,0,16,266a13.58,13.58,0,0,1-1.2,1.2c-.3-.5-.8-1-1.2-1.6-.2-.2-.3-.3-.3-.4v.2c0,1.4-.6,2.1-1.8,2.2a16.41,16.41,0,0,1-2.3.2c-.2-.9-.3-1.6-.5-2.4h1.5c.3,0,.5-.2.5-.7V261c-.7.2-1.3.3-1.9.5l-.2-2.9a.76.76,0,0,0,.4-.1,7.44,7.44,0,0,1,1.7-.3v-3.5h-2v-2.4h2v-3.7h2.6v3.7h1.6v2.4H13.3v2.9c.2-.1.4-.1.6-.2a3.09,3.09,0,0,1,.8-.2v2.6a10.26,10.26,0,0,1-1.4.4v5a12.53,12.53,0,0,0,3.5-6.4H15.1v-1.9h2.1a.9.9,0,0,1,.1-.5v-.5H15.4v-2h1.1l-.3-.6c-.2-.3-.2-.5-.4-.6l2.3-.7c.3.5.5,1.2.9,1.9h1.6c-.2-.6-.4-1.2-.6-1.7l2.3-.6c.2.5.3,1.1.5,1.8.1.2.1.5.2.5h.7a8.14,8.14,0,0,0,.8-1.2c.3-.5.5-.9.7-1.2l2.3.9a7.17,7.17,0,0,0-.7,1.1c-.2.2-.3.5-.5.5H28v2H20a4.4,4.4,0,0,1-.2,1h8.4v1.9H19.5a2.35,2.35,0,0,0-.5,1Zm-4.1-10.2h0q5.55-.3,12.3-.9l.5,2.3c-5.2.4-9.3.7-12.2.9C15.4,251.5,15.2,250.8,14.9,249.7Zm1.2,16.1h0a20,20,0,0,0,3.7-.9,18,18,0,0,1-1.9-2A10.41,10.41,0,0,1,16.1,265.8Zm6-2h0a9.28,9.28,0,0,0,2-1.9H19.9C20.6,262.6,21.4,263.2,22.1,263.8Z"/><path class="cls-5" d="M8.6,278.6v-2.4h1.6v-5.1h2.6v5.1h1.6v2.4H12.8v11.5H10.2V278.6Zm4.8,4.6h0c.7-1.7,1.3-3.4,1.9-5.1l2.1.5c-.5,1.8-1.1,3.6-1.7,5.4-.1,0-.2-.1-.3-.2a18.51,18.51,0,0,0-2-.6Zm12.3,3.2h0c0,2.3-1,3.3-3.1,3.4a20.18,20.18,0,0,1-2.7.1c-.2-.9-.4-1.8-.6-2.6a19.71,19.71,0,0,0,2.1.1c1.1,0,1.6-.5,1.7-1.4.1-2.2.2-5.2.2-9.1H21c-.2,5.9-1.9,10.4-5.2,13.4-.6-.6-1.3-1.3-2.2-2.1,3-2.3,4.6-6.1,4.8-11.3H15.2v-2.5h3.3V271h2.6v3.4h5c-.1,1.6-.1,3.2-.1,4.5a13,13,0,0,1,1.9,1.7c.2.1.2.2.3.2l-.6,3.1-.9-.9a8.18,8.18,0,0,0-.8-.9c0,.7-.1,1.6-.1,2.8l-.1,1.5Z"/><path class="cls-5" d="M17,293.1h3.4l-.5.7a18.75,18.75,0,0,0,8.3,6.4,12.48,12.48,0,0,0-1.5,1.9c-.2.2-.3.3-.3.4a17.49,17.49,0,0,1-2.7-1.6v1.3H13v-1.4a8.55,8.55,0,0,1-1.4.9c-.5.3-1,.6-1.3.8-.2-.3-.7-.9-1.5-1.9.6.7.5.5-.3-.5,4.2-2.2,7.1-4.5,8.5-7ZM9.2,306.3h0v-2.5H27.3v2.5H22.5c.4.5,1.1,1.4,2,2.6s1.6,1.9,2,2.4l-2.4,1.4c-.1-.1-.2-.3-.4-.5s-.4-.5-.5-.7h-1c-1.8.1-4.6.2-8.3.5h-.2c-.4,0-1,.2-1.9.3L10.6,310a14.34,14.34,0,0,0,3.7-3.7ZM18.3,296h0a18.33,18.33,0,0,1-4,3.8h7.8A19.52,19.52,0,0,1,18.3,296ZM20,307.4h0l1.6-1.1H17.5c-.7.9-1.6,1.9-2.6,3,.8,0,2.3-.1,4.5-.1a14.16,14.16,0,0,1,1.9-.1,9.62,9.62,0,0,0-1.3-1.7Z"/><path class="cls-5" d="M41.7,143.1a7.84,7.84,0,0,1-.4-2.2,3.74,3.74,0,0,1,.9-2.6,3.8,3.8,0,0,1,2.6-1,3.57,3.57,0,0,1,3.7,3.9,3.23,3.23,0,0,1-.4,1.7l-.7-.2a3.51,3.51,0,0,0,.3-1.6,2.65,2.65,0,0,0-2.9-2.8,2.63,2.63,0,0,0-2.9,2.7,2.87,2.87,0,0,0,.2,1.2h2.1v-1.4h.7v2.3Z"/><path class="cls-5" d="M42.8,148.6H41.4v-.8l.9-.1h0a1.89,1.89,0,0,1-.9-1.7c0-.8.5-1.7,2.3-1.7h3v.9h-3c-1,0-1.6.3-1.6,1.2a1.2,1.2,0,0,0,.9,1.2,4.33,4.33,0,0,0,.5.1h3.1v.9Z"/><path class="cls-5" d="M42.6,153.5a4.12,4.12,0,0,0-1.2.1v-.9l.7-.1h0a1.82,1.82,0,0,1-.8-1.6,1.5,1.5,0,0,1,1.5-1.6c1.2,0,1.9,1.1,1.9,3h0c.5,0,1.2-.1,1.2-1.2a2.84,2.84,0,0,0-.4-1.3l.6-.2a3.77,3.77,0,0,1,.4,1.6c0,1.6-1,1.9-2,1.9l-1.9.3Zm1.4-.9h0c0-1-.2-2.1-1.2-2.1a.84.84,0,0,0-.9.9,1.2,1.2,0,0,0,.9,1.2H44Z"/><path class="cls-5" d="M45.1,154.7h1.4v.8l-.9.1h0a1.94,1.94,0,0,1,.9,1.7c0,.7-.4,1.8-2.2,1.8h-3v-.9h3c.9,0,1.6-.3,1.6-1.2a1.29,1.29,0,0,0-1-1.2c-.1,0-.2-.1-.4-.1H41.4v-.9l3.7-.1Z"/><path class="cls-5" d="M42.2,164.8c-1.2,0-1.9-.2-2.3-.8a2.47,2.47,0,0,1-.6-1.8,3.1,3.1,0,0,1,.5-1.7l.7.2a3,3,0,0,0-.5,1.5c0,.9.5,1.6,1.8,1.6h.6a1.89,1.89,0,0,1-.9-1.6A2.3,2.3,0,0,1,44,160a2.41,2.41,0,0,1,2.6,2.3,1.84,1.84,0,0,1-.9,1.6h0l.8.1v.8H42.2Zm2.3-.9h0c.2,0,.3,0,.4-.1a1.39,1.39,0,0,0,1-1.2A1.73,1.73,0,0,0,44,161c-1,0-1.8.5-1.8,1.6a1.26,1.26,0,0,0,.9,1.2.9.9,0,0,0,.5.1Z"/><path class="cls-5" d="M41.9,165.5l3,2.3a5.72,5.72,0,0,0,.8.7h0v-2.8h.8v3.9h-.6l-3-2.3a5.72,5.72,0,0,0-.8-.7h0v3h-.8v-4.2l.6.1Z"/><path class="cls-5" d="M48.9,170.4v.9H45.7c.2.2.5.4.6.7a1.34,1.34,0,0,1,.2.9c0,.7-.4,1.8-2.2,1.8h-3v-.9h3c.9,0,1.6-.3,1.6-1.2a1.32,1.32,0,0,0-.9-1.2.9.9,0,0,0-.5-.1H41.4v-.9Z"/><path class="cls-5" d="M44,180.7a2.49,2.49,0,0,1-2.7-2.6,2.37,2.37,0,0,1,2.6-2.4,2.39,2.39,0,0,1,2.6,2.5,2.26,2.26,0,0,1-2.5,2.5Zm-.1-4.1h0c-1.1,0-1.9.6-1.9,1.6a1.93,1.93,0,0,0,3.8,0C45.8,177.1,44.9,176.6,43.9,176.6Z"/><path class="cls-5" d="M42.8,185.9a6.6,6.6,0,0,0-1.4.1v-.9l.9-.1h0a1.89,1.89,0,0,1-.9-1.7c0-.8.5-1.7,2.3-1.7h3v.9h-3c-1,0-1.6.2-1.6,1.1a1.2,1.2,0,0,0,.9,1.2.75.75,0,0,0,.5.1h3.1v.9l-3.8.1Z"/><path class="cls-5" d="M48.4,189.3a8.81,8.81,0,0,1,.2,1.7,3.09,3.09,0,0,1-.5,1.9,1.43,1.43,0,0,1-1.2.6,1.81,1.81,0,0,1-1.6-1.2h0a1.84,1.84,0,0,1-1.8,1.5,1.82,1.82,0,0,1-1.4-.6c-.5-.5-.6-1.2-.6-2.4a6.18,6.18,0,0,1,.1-1.5Zm-2.9.9h0v.9c0,.9.5,1.6,1.2,1.6.9,0,1.2-.6,1.2-1.6a2,2,0,0,0-.1-.9Zm-3.4,0h0v.8c0,.9.3,1.9,1.3,1.9s1.4-.9,1.4-1.9v-.8Z"/><polygon class="cls-5" points="48.9 194.8 48.9 195.7 41.4 195.7 41.4 194.8 48.9 194.8"/><path class="cls-5" d="M42.8,201.3H41.4v-.8l.9-.1h0a1.89,1.89,0,0,1-.9-1.7c0-.8.5-1.7,2.3-1.7h3v.9h-3c-1,0-1.6.3-1.6,1.2a1.2,1.2,0,0,0,.9,1.2.75.75,0,0,0,.5.1h3.1v.9Z"/><path class="cls-5" d="M43.8,203.2a1.65,1.65,0,0,0-1.8,1.7,3.66,3.66,0,0,0,.3,1.4l-.7.2a3.42,3.42,0,0,1-.3-1.7,2.34,2.34,0,0,1,2.6-2.5,2.4,2.4,0,0,1,2.7,2.4,2.13,2.13,0,0,1-2.3,2.1h-.5Zm.7,2.6h0a1.26,1.26,0,0,0,1.5-1.2c0-.9-.9-1.3-1.5-1.4Z"/><path class="cls-5" d="M42.5,209.7a2.77,2.77,0,0,0-.5,1.6c0,.9.5,1.5,1.2,1.5s1.1-.4,1.4-1.3c.5-1.2,1-1.9,2-1.9,1.2,0,1.9.9,1.9,2.3a5,5,0,0,1-.3,1.6l-.8-.2a2.06,2.06,0,0,0,.3-1.3c0-1-.5-1.3-1-1.3-.7,0-1,.4-1.4,1.4-.5,1.2-1,1.8-2.1,1.8s-2-.8-2-2.5a3.2,3.2,0,0,1,.5-1.8l.8.1Z"/><path class="cls-5" d="M44.2,215.7h0c.2.2.4.3.5.5l1.8,1.5v1.2l-2.1-2-3,2.3v-1.1l2.5-1.8-.5-.5H41.5v-.9H49v.9l-4.8-.1Z"/><path class="cls-5" d="M46.5,219.8l-3,1.2c-.3.1-.7.2-1,.3h0l1,.3,3,1v1l-3.7-1.4c-1.7-.7-2.6-1.1-3.2-1.8a3,3,0,0,1-.6-1.1l.8-.2a2.51,2.51,0,0,0,.5.8,2,2,0,0,0,1.1.8.31.31,0,0,0,.2.1.37.37,0,0,0,.3-.1l4.7-1.9-.1,1Z"/><path class="cls-5" d="M48.4,226.3a5.24,5.24,0,0,1,.2,1.8,3.22,3.22,0,0,1-.5,2,1.54,1.54,0,0,1-1.3.5,1.87,1.87,0,0,1-1.9-1.3h0a2,2,0,0,1-1.5,1.1c-.9.2-1.6.4-1.9.5V230a5.85,5.85,0,0,1,1.7-.5c1-.2,1.3-.5,1.4-1.4v-.9H41.5v-.9Zm-3.2.9h0v.9c0,1,.5,1.6,1.3,1.6s1.3-.7,1.3-1.6c0-.5,0-.8-.1-.9Z"/><path class="cls-5" d="M43.8,232.3A1.65,1.65,0,0,0,42,234a3.66,3.66,0,0,0,.3,1.4l-.7.2a3.23,3.23,0,0,1-.3-1.6,2.42,2.42,0,0,1,2.6-2.6,2.4,2.4,0,0,1,2.7,2.4,2.13,2.13,0,0,1-2.3,2.1h-.5Zm.7,2.7h0a1.34,1.34,0,0,0,1.5-1.3c0-.9-.9-1.3-1.5-1.4V235Z"/><path class="cls-5" d="M42.4,236.7a1.9,1.9,0,0,0-.4,1.2c0,.7.3,1,.8,1s.6-.2.9-.9c.3-.9.8-1.4,1.4-1.4.9,0,1.5.7,1.5,1.8a3,3,0,0,1-.3,1.2l-.6-.2a2.15,2.15,0,0,0,.2-1,.81.81,0,0,0-.7-.9c-.4,0-.5.3-.9.9-.3.9-.8,1.4-1.5,1.4-.9,0-1.6-.7-1.6-1.9a4.88,4.88,0,0,1,.3-1.4l.9.2Z"/><path class="cls-5" d="M41.6,244.4a2.58,2.58,0,0,1-.3-1.5,2.42,2.42,0,0,1,2.6-2.6,2.6,2.6,0,0,1,2.7,2.8,9.68,9.68,0,0,1-.2,1.2l-.7-.2a2.15,2.15,0,0,0,.2-1,1.84,1.84,0,0,0-1.9-1.9,1.76,1.76,0,0,0-1.9,1.8,3.5,3.5,0,0,0,.3,1.2Z"/><path class="cls-5" d="M42.8,249.5H41.4v-.7l.9-.1h0a1.89,1.89,0,0,1-.9-1.7c0-.8.5-1.7,2.3-1.7h3v.9h-3c-1,0-1.6.2-1.6,1.1a1.2,1.2,0,0,0,.9,1.2.75.75,0,0,0,.5.1h3.1v.9Z"/><path class="cls-5" d="M43.8,251.4a1.65,1.65,0,0,0-1.8,1.7,3.66,3.66,0,0,0,.3,1.4l-.7.2a3.42,3.42,0,0,1-.3-1.7,2.34,2.34,0,0,1,2.6-2.5,2.4,2.4,0,0,1,2.7,2.4,2.13,2.13,0,0,1-2.3,2.1h-.5Zm.7,2.7h0a1.41,1.41,0,0,0,1.5-1.3c0-.9-.9-1.3-1.5-1.4v2.7Z"/><path class="cls-5" d="M43.6,259.1l-2.3-.7v-.9l7.2,2.4V261l-7.2,2.4v-1l2.3-.7v-2.6Zm.7,2.4h0l2.1-.7c.4-.2.9-.2,1.2-.4h0c-.4-.1-.9-.2-1.2-.3l-2.1-.7v2.1Z"/><path class="cls-5" d="M42.4,264.1a1.9,1.9,0,0,0-.4,1.2c0,.7.3,1,.8,1s.6-.2.9-.9c.3-.9.8-1.3,1.4-1.3.9,0,1.5.6,1.5,1.7a3,3,0,0,1-.3,1.2l-.6-.2a2.15,2.15,0,0,0,.2-1,.81.81,0,0,0-.7-.9c-.4,0-.5.3-.9.9-.3.9-.8,1.4-1.5,1.4-.9,0-1.6-.7-1.6-1.9a4.88,4.88,0,0,1,.3-1.4l.9.2Z"/><path class="cls-5" d="M42.4,268.1a1.9,1.9,0,0,0-.4,1.2c0,.7.3,1,.8,1s.6-.2.9-.9c.3-.9.8-1.4,1.4-1.4.9,0,1.5.7,1.5,1.8a3.5,3.5,0,0,1-.3,1.2l-.6-.2a2.15,2.15,0,0,0,.2-1,.81.81,0,0,0-.7-.9c-.4,0-.5.3-.9.9-.3.9-.8,1.3-1.5,1.3-.9,0-1.6-.6-1.6-1.9a4.88,4.88,0,0,1,.3-1.4l.9.3Z"/><path class="cls-5" d="M44,276.7a2.42,2.42,0,0,1-2.7-2.5,2.6,2.6,0,0,1,5.2.1C46.6,275.8,45.6,276.7,44,276.7Zm-.1-4h0a1.62,1.62,0,1,0,0,3.2c.9,0,1.9-.4,1.9-1.5s-.9-1.7-1.9-1.7Z"/><path class="cls-5" d="M41.6,281.3a2.75,2.75,0,0,1,2.3-4,2.57,2.57,0,0,1,2.7,2.7c0,.5-.2,1-.2,1.3l-.7-.2a2.33,2.33,0,0,0,.2-1.1,1.9,1.9,0,0,0-3.8,0,2.43,2.43,0,0,0,.3,1.1Z"/><path class="cls-5" d="M47.9,283.3c-.3,0-.5-.2-.5-.6a.47.47,0,0,1,.5-.5.53.53,0,0,1,.6.6A.56.56,0,0,1,47.9,283.3Zm-1.4-1h0v.9H41.4v-.9Z"/><path class="cls-5" d="M42.6,288.1a4.12,4.12,0,0,0-1.2.1v-.9l.7-.1h0a1.82,1.82,0,0,1-.8-1.6,1.44,1.44,0,0,1,1.5-1.6c1.2,0,1.9,1.2,1.9,3.1h0a1.09,1.09,0,0,0,1.2-1.2,2.5,2.5,0,0,0-.4-1.3l.6-.2a4.26,4.26,0,0,1,.4,1.7c0,1.6-1,1.9-2,1.9l-1.9.1Zm1.4-.9h0c0-1-.2-2.2-1.2-2.2a.89.89,0,0,0-.9.9,1.2,1.2,0,0,0,.9,1.2.31.31,0,0,0,.2.1Z"/><path class="cls-5" d="M47.8,290.5H46.6v1.3h-.7v-1.3H43.1q-.9,0-.9.6c0,.3,0,.5.1.5l-.7.1a2,2,0,0,1-.2-.9,1.53,1.53,0,0,1,.4-1,2.27,2.27,0,0,1,1.3-.3h2.8v-.7h.7v.8h.9l.3.9Z"/><path class="cls-5" d="M47.9,293.7c-.3,0-.5-.2-.5-.6a.47.47,0,0,1,.5-.5c.4,0,.6.2.6.5A.53.53,0,0,1,47.9,293.7Zm-1.4-1.1h0v.9H41.4v-.9Z"/><path class="cls-5" d="M44,299.6a2.49,2.49,0,0,1-2.7-2.6,2.37,2.37,0,0,1,2.6-2.4,2.39,2.39,0,0,1,2.6,2.5A2.31,2.31,0,0,1,44,299.6Zm-.1-4.1h0c-1.1,0-1.9.6-1.9,1.5a1.73,1.73,0,0,0,1.9,1.6c.9,0,1.9-.4,1.9-1.5S44.9,295.5,43.9,295.5Z"/><path class="cls-5" d="M45.1,300.5a6.6,6.6,0,0,0,1.4-.1v.9l-.9.1h0a1.82,1.82,0,0,1,.9,1.7c0,.7-.4,1.8-2.2,1.8h-3V304h3c.9,0,1.6-.3,1.6-1.2a1.29,1.29,0,0,0-1-1.2c-.1-.1-.2-.1-.4-.1H41.4v-.9l3.7-.1Z"/><g id="_1846572194976" data-name=" 1846572194976"><path class="cls-6" d="M28.7,126.1c-12.9-5.1-18.2-12-20.3-16.8A16.3,16.3,0,0,1,7,100H7l1.2-8.9a10.83,10.83,0,0,0-.9-5.9L5.7,81.6a2,2,0,0,1,.2-1.8l6.4-8.9a2.36,2.36,0,0,1,1.6-.7H43.6a1.91,1.91,0,0,1,1.4.7l6.5,8.9a1.68,1.68,0,0,1,.2,1.8l-1.6,3.6a10.11,10.11,0,0,0-.9,5.9l1.2,8.9h0a17.25,17.25,0,0,1-1.5,9.4c-2.9,6.9-9.9,12.7-20.2,16.7Z"/><path class="cls-7" d="M43.6,71.1a1.23,1.23,0,0,1,.8.4l6.5,8.8a1.18,1.18,0,0,1,.1,1l-1.6,3.5a11.68,11.68,0,0,0-.9,6.4l1.2,8.9.1.1h0a16.47,16.47,0,0,1-1.6,9,22.89,22.89,0,0,1-6.2,8.3,44.49,44.49,0,0,1-13.3,7.8,44.49,44.49,0,0,1-13.3-7.8,26.92,26.92,0,0,1-6.2-8.3,17.06,17.06,0,0,1-1.5-9V100l1.2-8.9A11.68,11.68,0,0,0,8,84.7L6.6,81.3a.77.77,0,0,1,.1-1l6.5-8.8a.67.67,0,0,1,.7-.4Zm0-1.7H13.9a2.66,2.66,0,0,0-2.1,1L5.3,79.2A2.89,2.89,0,0,0,5,81.9l1.6,3.5a9.42,9.42,0,0,1,.8,5.5L6.2,99.8S2.8,116.9,28.8,127c26.1-10.1,22.6-27.2,22.6-27.2l-1.2-8.9a10.44,10.44,0,0,1,.8-5.5l1.6-3.5a2.87,2.87,0,0,0-.2-2.7l-6.5-8.8a3.45,3.45,0,0,0-2.3-1Z"/><path class="cls-8" d="M21.5,107c-.1.6.1.8.1.8.5.5,2.6,3.3,3.1,4s1,1.6,1,1.6a1.49,1.49,0,0,0,.6.7,9.73,9.73,0,0,0,2,.5c.4,0,1.3.2,1.4.2,1.3.2,1.4-.4,1.4-.5a.36.36,0,0,0-.3-.2l-2.5-.9c-.3-.2,0-.4.2-.3.7.2,2.3.7,2.6.8a.75.75,0,0,0,.5.1.79.79,0,0,0,.9-.8c0-.1-.1-.1-.2-.2s-2.6-1-2.7-1-.2-.4.1-.4,2.6,1,3.1,1.1.9-.9.9-.9.1-.4-.1-.4a14.27,14.27,0,0,1-3.1-1.3c0-.1-.1-.3.2-.4a10.46,10.46,0,0,0,3.2,1.3.37.37,0,0,0,.3-.2,1.11,1.11,0,0,0,.5-.9.7.7,0,0,0-.2-.4c-.1-.1-.4,0-1-.2-1-.4-2.5-1-3.1-2a1.48,1.48,0,0,1,.7-2.1,1.16,1.16,0,0,0,.5-1.6.37.37,0,0,0-.3-.2,4.4,4.4,0,0,1-2.3,1.1c-2.1.2-1.9.7-2.6.6a1.82,1.82,0,0,1-1.2-.4,3.14,3.14,0,0,0-1.4-1.1c-.8,0-2,2-2.3,3.6Z"/><path class="cls-8" d="M34,108.9c.6,0,.8-.1.9-.2a41.69,41.69,0,0,1,4-3,10.67,10.67,0,0,1,1.6-.9,2.69,2.69,0,0,0,.7-.6,5.89,5.89,0,0,0,.5-2.1,7.84,7.84,0,0,0,.2-1.4c.2-1.2-.3-1.3-.5-1.3a.2.2,0,0,0-.2.2l-.9,2.6c-.2.2-.4-.1-.3-.2.2-.7.7-2.3.8-2.6s.2-.2.2-.5a.84.84,0,0,0-.8-.9c-.1,0-.2.2-.2.2s-1.1,2.6-1.1,2.7-.4.2-.4-.2c.1-.2,1.1-2.6,1.2-3s-1-1-1-1-.3-.1-.3.1a10.62,10.62,0,0,1-1.4,3c-.1.1-.3.2-.3-.2A14,14,0,0,0,38,96.4a.37.37,0,0,0-.2-.3,1.11,1.11,0,0,0-.9-.5.7.7,0,0,0-.4.2c-.1.1,0,.4-.2,1a5.92,5.92,0,0,1-2,3c-.8.5-1.5.1-2-.7a1.16,1.16,0,0,0-1.6-.5,1.44,1.44,0,0,0-.3.2,4.77,4.77,0,0,1,1.1,2.3c.2,2.1.6,1.9.6,2.6a1.47,1.47,0,0,1-.5,1.2c-.3.4-.9.7-1.1,1.4,0,1,2,2.2,3.5,2.6Z"/><path class="cls-8" d="M36.2,96.3a2,2,0,0,0-.1-.8,43.3,43.3,0,0,1-3-4.1,10.67,10.67,0,0,1-.9-1.6,2.69,2.69,0,0,0-.6-.7,5.87,5.87,0,0,0-2-.5c-.4-.1-1.3-.3-1.4-.3-1.3-.2-1.4.4-1.4.5a.36.36,0,0,0,.3.2s2.5.8,2.6.9-.1.4-.2.3c-.7-.2-2.3-.8-2.6-.9a1.27,1.27,0,0,1-.6-.1.84.84,0,0,0-.9.8c0,.1.2.2.2.2s2.6,1,2.7,1.1.2.3-.2.3c-.2,0-2.6-1.1-3-1.2s-1,1-1,1-.1.3.1.3a12.52,12.52,0,0,1,3,1.5c.1,0,.2.3-.2.3a13.5,13.5,0,0,0-3.1-1.4.37.37,0,0,0-.3.2,1.11,1.11,0,0,0-.5.9c0,.2.1.4.2.4s.4,0,1,.2a5.92,5.92,0,0,1,3,2c.5.8,0,1.6-.8,2.1a1.11,1.11,0,0,0-.6,1.5s.2.3.3.3a3.56,3.56,0,0,1,2.3-1c2.1-.2,1.9-.6,2.6-.6a2.14,2.14,0,0,1,1.2.5c.4.4.7.9,1.3,1.1.9.1,2.2-1.8,2.6-3.4Z"/><path class="cls-8" d="M23.6,94.2a4.13,4.13,0,0,0-.9.1,41.69,41.69,0,0,1-4,3c-.8.5-1.6.9-1.6.9a1.79,1.79,0,0,0-.7.5,7.17,7.17,0,0,0-.5,2.1,12.08,12.08,0,0,0-.3,1.4c-.2,1.3.4,1.4.5,1.3a.2.2,0,0,0,.2-.2s.9-2.5.9-2.6c.2-.2.4.1.3.2-.2.7-.8,2.3-.9,2.6a.75.75,0,0,0-.1.5.68.68,0,0,0,.7.9c.1,0,.2-.2.2-.2s1-2.6,1.1-2.7.4-.2.3.2c0,.2-1.1,2.6-1.2,3s1,1,1,1,.3.1.3-.1a9.35,9.35,0,0,1,1.5-3c.1-.1.3-.2.3.2a15,15,0,0,0-1.4,3.2.37.37,0,0,0,.2.3,1.11,1.11,0,0,0,.9.5c.2,0,.4-.1.4-.2a3.5,3.5,0,0,1,.2-1,5.55,5.55,0,0,1,2.1-3c.7-.5,1.5,0,2,.8a1.11,1.11,0,0,0,1.5.6s.3-.2.3-.3a3.56,3.56,0,0,1-1-2.3c-.2-2-.6-1.9-.6-2.6a3.34,3.34,0,0,1,.5-1.2c.4-.4,1-.6,1.1-1.3.2-.9-1.8-2.2-3.3-2.6Z"/><path class="cls-3" d="M15.9,89.6a22.8,22.8,0,0,1,5.3-3.7C19.3,85.9,16.5,87.3,15.9,89.6Zm26.1,0h0c-1.4-1-2.8-2.6-5.3-3.7C38.5,85.9,41.3,87.3,42,89.6Zm-6.7,26.6h0a7.05,7.05,0,0,0,.9-.7,4.81,4.81,0,0,0,.9-1.1,3.51,3.51,0,0,0,.5-.8,9.62,9.62,0,0,1,3-2.3h0a5.36,5.36,0,0,0-.5,1.1c-.2.6-.4,1.2-.6,1.7a3.13,3.13,0,0,1-.9,1.1c-.3.2-.6.5-.9.5-.1.1-.2.1-.2.2.6-.2,1.2-.5,1.5-.6a7.58,7.58,0,0,1,1.6-.6,17.69,17.69,0,0,1,3-.6,16.61,16.61,0,0,1-1.3,1.4,4.51,4.51,0,0,1-4.1,1.3,7.39,7.39,0,0,1-2.9-.6Zm5-2.4h0c.1,0,.2-.1.4-.2-.1.2-.2.2-.4.2a4.05,4.05,0,0,0,.5-.9,9.29,9.29,0,0,0,.4-1.3,2.92,2.92,0,0,0,.2-.9,7.77,7.77,0,0,1,1.8-3,2.74,2.74,0,0,0-.2,1.2,9.63,9.63,0,0,1,0,1.7,3.37,3.37,0,0,1-.4,1.2c-.2.3-.4.5-.6.8-.1.1-.2.1-.2.2a10,10,0,0,0,1-.9,6.53,6.53,0,0,1,1.2-1.1,14.17,14.17,0,0,1,2.3-1.4c-.2.5-.4,1.1-.7,1.7a4.53,4.53,0,0,1-3,2.4,4.45,4.45,0,0,1-2.3.3Zm3.4-3.8h0a.22.22,0,0,0,.2-.2l-.2.2a2.92,2.92,0,0,0,.2-.9,4.74,4.74,0,0,0,0-1.2,2,2,0,0,1-.1-.8,6.58,6.58,0,0,1,.7-3c.1.4.1.7.2,1a7.84,7.84,0,0,1,.5,1.4,1.66,1.66,0,0,1,0,1.2,2.92,2.92,0,0,0-.2.9c-.1.1-.1.2-.2.2a6.57,6.57,0,0,0,.6-1.2c.2-.4.5-.8.7-1.2a9.69,9.69,0,0,1,1.6-1.8,9.74,9.74,0,0,1-.1,1.6,3.85,3.85,0,0,1-2,2.9,4.75,4.75,0,0,1-1.9.9Zm1.8-4.1h0l.2-.2a.22.22,0,0,0-.2.2,2.77,2.77,0,0,0-.1-.9c-.1-.4-.2-.8-.3-1.1s-.2-.5-.3-.7a8.63,8.63,0,0,1-.2-2.8,7.93,7.93,0,0,0,.4.9,12.49,12.49,0,0,1,.9,1.2,1.69,1.69,0,0,1,.3,1v.8c0,.1,0,.2-.1.2a3,3,0,0,0,.2-1.2l.3-1.2a6.11,6.11,0,0,1,.9-2c.2.5.2.9.4,1.5a3.3,3.3,0,0,1-1,3,5.71,5.71,0,0,1-1.4,1.3Zm.4-4.3h0c0-.1.1-.2.1-.3,0,.1-.1.1-.1.3a3.71,3.71,0,0,1-.2-.9,4.05,4.05,0,0,1-.5-.9,2.09,2.09,0,0,1-.4-.6,7.86,7.86,0,0,1-.8-2.6c.2.3.4.5.5.7a10,10,0,0,1,1,.9,1.38,1.38,0,0,1,.5.9,2.35,2.35,0,0,1,.2.8v-1a2.44,2.44,0,0,1,0-1.2,5.89,5.89,0,0,1,.5-2.1,5,5,0,0,1,.5,1.3A3.39,3.39,0,0,1,47,100a9.06,9.06,0,0,1-1.1,1.6Zm-.4-4.5h0a.37.37,0,0,0,.1-.3.37.37,0,0,1-.1.3c-.1-.2-.2-.5-.4-.6a4.62,4.62,0,0,0-.7-.7,1.76,1.76,0,0,0-.5-.4,6,6,0,0,1-1.4-2.1h0a4.23,4.23,0,0,1,.7.5c.4.2.8.3,1.2.5.2.2.5.4.6.6a6.13,6.13,0,0,1,.4.6v.2a6.21,6.21,0,0,0-.3-1,3.54,3.54,0,0,1-.3-1.1,13.66,13.66,0,0,1-.2-1.9,10,10,0,0,1,.9,1,3,3,0,0,1,.6,2.7c-.1.4-.2,1.4-.6,1.7Zm-1.5-4h0v0c-.2-.2-.3-.4-.5-.5a2.18,2.18,0,0,0-.8-.5,2.19,2.19,0,0,1-.5-.3A6.17,6.17,0,0,1,40.4,90a1.33,1.33,0,0,0,.8.3,10.34,10.34,0,0,0,1.2.3c.3.2.5.3.8.5s.3.4.5.5c0,.1,0,.2.1.2a5.76,5.76,0,0,0-.5-.9,3.13,3.13,0,0,1-.5-1,6.69,6.69,0,0,1-.5-1.9c.3.2.6.5,1,.8a3,3,0,0,1,1.1,2.6c-.2.5-.2,1.3-.4,1.7ZM22.6,116.2h0a3.51,3.51,0,0,1-.9-.7,4.81,4.81,0,0,1-.9-1.1c-.2-.3-.3-.5-.5-.8a10.93,10.93,0,0,0-3-2.3h0a3,3,0,0,1,.6,1.1,8.51,8.51,0,0,0,.6,1.7,3.13,3.13,0,0,0,.9,1.1c.3.2.6.5.9.5.1.1.2.1.3.2-.6-.2-1.2-.5-1.5-.6a7.58,7.58,0,0,0-1.6-.6,15.94,15.94,0,0,0-3-.6l1.4,1.4a4.51,4.51,0,0,0,4.1,1.3,8.17,8.17,0,0,0,2.6-.6Zm-5.1-2.4h0c-.2,0-.2-.1-.4-.2.2.2.2.2.4.2-.2-.3-.5-.6-.5-.9a11.22,11.22,0,0,1-.5-1.3,2.92,2.92,0,0,0-.2-.9,9.23,9.23,0,0,0-1.8-3,6,6,0,0,1,.2,1.2,9.63,9.63,0,0,0,0,1.7,2.14,2.14,0,0,0,.4,1.2c.2.3.4.5.6.8,0,.1.1.1.2.2a3,3,0,0,1-1-.9,13.07,13.07,0,0,0-1.2-1.1,14.17,14.17,0,0,0-2.3-1.4c.2.5.4,1.1.7,1.7a4.49,4.49,0,0,0,3.1,2.4,4.45,4.45,0,0,0,2.3.3ZM14.2,110h0c-.1,0-.2-.1-.3-.2,0,.1.1.1.3.2a1.49,1.49,0,0,1-.2-.9,2.4,2.4,0,0,1,0-1.2c0-.2.1-.5.1-.8a10.88,10.88,0,0,0-.7-3,4.4,4.4,0,0,0-.2,1,7.84,7.84,0,0,0-.5,1.4,2.44,2.44,0,0,0,0,1.2l.3.9a.35.35,0,0,0,.1.2c-.2-.5-.5-.9-.6-1.2l-.6-1.2a9.69,9.69,0,0,0-1.6-1.8c.1.5.1.9.2,1.6a3.74,3.74,0,0,0,1.9,2.9,3.42,3.42,0,0,0,1.8.9Zm-1.8-4.1h0l-.2-.2.2.2V105a3.58,3.58,0,0,1,.4-1.1,1.85,1.85,0,0,0,.2-.7,6.54,6.54,0,0,0,.2-2.8,7.26,7.26,0,0,1-.5.9,5,5,0,0,0-.8,1.2,1.69,1.69,0,0,0-.3,1,1.1,1.1,0,0,0,0,.8v.2a7.38,7.38,0,0,1-.2-1.2c0-.4-.2-.8-.2-1.2a6.11,6.11,0,0,0-.9-2c-.1.5-.2.9-.3,1.5a3.25,3.25,0,0,0,.9,3,4.71,4.71,0,0,0,1.5,1.3Zm-.5-4.3h0c-.1-.1-.1-.2-.2-.3a.77.77,0,0,1,.2.3,3.71,3.71,0,0,0,.2-.9c.2-.3.3-.6.5-.9a2.09,2.09,0,0,0,.4-.6,7.86,7.86,0,0,0,.8-2.6,4.35,4.35,0,0,1-.6.7,8.12,8.12,0,0,1-1,.9,4.05,4.05,0,0,0-.5.9,2.35,2.35,0,0,0-.2.8v.2a2.4,2.4,0,0,1,0-1.2V97.7a5.89,5.89,0,0,0-.5-2.1c-.2.4-.4.8-.6,1.3a3.13,3.13,0,0,0,.3,3.1,9.55,9.55,0,0,0,1.2,1.6Zm.3-4.5h0v0c.2-.2.3-.5.5-.6a2.34,2.34,0,0,1,.7-.7,1.76,1.76,0,0,1,.5-.4,7.43,7.43,0,0,0,1.3-2.1h0c-.2.2-.5.3-.6.5-.5.2-.8.3-1.2.5a4.35,4.35,0,0,0-.7.6c-.2.2-.2.5-.3.6s0,.2-.1.2a6.21,6.21,0,0,1,.3-1,3.54,3.54,0,0,0,.3-1.1,6.48,6.48,0,0,0,.2-1.9,4.5,4.5,0,0,0-.9,1,3,3,0,0,0-.5,2.7,8.45,8.45,0,0,0,.5,1.7Zm1.6-4h0a.35.35,0,0,1,.1-.2c-.1.1-.1.1-.1.2l.5-.5a2.62,2.62,0,0,1,.9-.5,2.19,2.19,0,0,0,.5-.3A4.9,4.9,0,0,0,17.4,90a1.33,1.33,0,0,1-.7.3,10.34,10.34,0,0,1-1.2.3c-.3.2-.5.3-.8.5l-.5.5a.35.35,0,0,1-.1.2c.2-.4.3-.8.5-.9a3.13,3.13,0,0,0,.5-1,6.69,6.69,0,0,0,.5-1.9,7,7,0,0,0-1,.8,3.37,3.37,0,0,0-1.2,2.6c.2.5.2,1.3.4,1.7Z"/><path class="cls-8" d="M14.2,75.6h1.9c-.2-.2-.2-.4-.4-.5l.3-.2c.3.1.4.3.6.5l-.3.2h2V76H14.6v1.2a3.19,3.19,0,0,1-.8,2.4l-.3-.3a2.92,2.92,0,0,0,.7-2.2V75.6Z"/><path class="cls-8" d="M18.8,76.2l.4.1c-.2.5-.2.9-.4,1.3-.2,0-.2-.1-.4-.1A5,5,0,0,0,18.8,76.2Zm.6-1.2h.4v1.9a3.42,3.42,0,0,1-.9,2.6c-.1-.1-.2-.2-.2-.3a3.39,3.39,0,0,0,.8-2.5V75Zm.5,1.4h0l.4-.2a5.64,5.64,0,0,1,.4,1.2l-.3.2c-.2-.5-.3-.8-.5-1.2Zm1-1.4h.4v4.4h-.4Zm.6,1.4h0l.3-.2c.2.4.3.8.5,1.2l-.3.2A10.41,10.41,0,0,1,21.5,76.4Zm1-1.5h.3v4.6h-.3V74.9Z"/><path class="cls-8" d="M23.4,79.1H24V77.8h3.5V79H28v.3H23.3l.1-.2Zm0-3.8h1.4v-.5h.4v.5h1.2v-.5h.3v.5h1.4v.3H26.7v.2h-.3v-.2H25.2v.2h-.4v-.2H23.4Zm.5.8h.4v1.5h-.4Zm.5,3h.7v-.9h-.7Zm.5-3.1h.4v1.6h-.4Zm.5,3.1h.7v-.9h-.7Zm0-1.7h0a5.23,5.23,0,0,0,.7-1.5l.3.1c0,.2-.1.2-.1.4h1.6v.3H26.1a2,2,0,0,1-.5.9C25.6,77.5,25.5,77.5,25.4,77.4Zm1.1-.3h0l.2-.3c.3.2.6.5.9.7l-.2.2A4.7,4.7,0,0,0,26.5,77.1Zm.7,1.1h-.8v.9h.8Z"/><path class="cls-8" d="M28.3,79.2a3.13,3.13,0,0,0,2.1-2.1h-2v-.4h2.1V75.5H28.6v-.3h4.1v.3H30.8a4.87,4.87,0,0,1-.1,1.2h2.2v.4H30.8a2.83,2.83,0,0,0,2.2,2c-.2.2-.2.3-.3.4a3.23,3.23,0,0,1-2.1-2,3.13,3.13,0,0,1-2.1,2.1A.76.76,0,0,0,28.3,79.2Z"/><path class="cls-8" d="M33.3,75.7h.9v-.8h.4v.9h1v.3h-1v1.7l.2-.2a8.18,8.18,0,0,0,.9.8l-.3.3a5.72,5.72,0,0,1-.7-.8V79c0,.4-.2.6-.5.6h-.6c0-.2-.1-.3-.1-.5a1.09,1.09,0,0,0,.5.1c.2,0,.3-.2.3-.4v-.9l-.8.8-.2-.3c.3-.3.6-.5.9-.8l.2.2V76.1h-.9v-.4Zm.1.8h0l.2-.2a3.51,3.51,0,0,1,.5.8l-.3.2a5.94,5.94,0,0,1-.4-.8Zm1.9-.1h0l.3.2a3.51,3.51,0,0,0-.5.8l-.3-.2A5.58,5.58,0,0,1,35.3,76.4Zm-.5-1.2h0L35,75a1,1,0,0,1,.5.4l-.2.2C35.2,75.4,35,75.4,34.8,75.2Zm.6,2.1h0a15.71,15.71,0,0,0,.9-2.3l.4.1a1.88,1.88,0,0,0-.2.8H38v.3h-.4a4.75,4.75,0,0,1-.6,2.2,2,2,0,0,0,1.1.9c-.2.2-.2.3-.2.4a2,2,0,0,1-1.1-.9,10.59,10.59,0,0,1-1.2,1c-.1-.1-.2-.2-.2-.3a4,4,0,0,0,1.2-1,4.33,4.33,0,0,1-.5-1.2.52.52,0,0,0-.2.4c-.2-.3-.4-.4-.5-.4Zm.8-.9h0a3.77,3.77,0,0,0,.5,1.6,3.56,3.56,0,0,0,.5-1.9h-.9a.44.44,0,0,1-.1.3Z"/><path class="cls-8" d="M38.1,77.4a1.69,1.69,0,0,1,.5-.2V76.1h-.5v-.4h.5v-.8H39v.9h.5v.3H39V77c.2,0,.3-.1.5-.2v.4c-.2.1-.3.2-.5.2V79a.46.46,0,0,1-.4.5h-.5c0-.2,0-.3-.1-.4h.4c.2,0,.2-.1.2-.2V77.5c-.2.1-.3.2-.5.2v-.3Zm1.6-.4h.7c0-.2,0-.3.1-.4h-.7v-.3h1.9a5.58,5.58,0,0,0,.5-.8l.3.2c-.2.2-.2.4-.4.6h.6v.3H40.8a.76.76,0,0,1-.1.4h2.1v.3H40.6c0,.1-.1.2-.2.3h1.9v.3a3.11,3.11,0,0,1-.7.9,4.22,4.22,0,0,0,1.2.3c-.1.2-.2.2-.2.4a3.33,3.33,0,0,1-1.5-.5,4.33,4.33,0,0,1-1.2.5c-.1-.1-.2-.2-.2-.3a3.37,3.37,0,0,0,1.2-.4,2.41,2.41,0,0,1-.6-.8,3.6,3.6,0,0,1-.8,1.2c-.1-.1-.2-.2-.3-.2a3.25,3.25,0,0,0,1-1.8h-.5V77Zm.2-1.5h0a.37.37,0,0,1-.1-.3,28.25,28.25,0,0,0,2.9-.2l.1.3A23.28,23.28,0,0,1,39.9,75.5Zm.1.2h0l.2-.2a1.33,1.33,0,0,1,.3.5l-.3.2A1.69,1.69,0,0,0,40,75.7Zm2,2.2H40.6a4.35,4.35,0,0,0,.6.7A1.39,1.39,0,0,0,42,77.9Zm-1.1-2.3h0l.3-.1c.1.2.2.3.2.5l-.2.2a3.33,3.33,0,0,1-.3-.6Z"/><path class="cls-8" d="M14.5,82.1h-.2l-.1-.1-.1.1h-.2c-.1,0-.2-.1-.3-.2s-.1-.2-.1-.5,0-.5.1-.5c.1-.2.2-.2.4-.2a.22.22,0,0,1,.2.2c.1.1.2.2.2.3h-.2V81a.35.35,0,0,1-.2-.1c-.2,0-.2.1-.2.2a2,2,0,0,0-.1.5c0,.2.1.3.1.4a.31.31,0,0,0,.2.1c.1,0,.1,0,.2-.1v-.3H14v-.2h.5Z"/><path class="cls-8" d="M15.4,81.7c0,.1-.1.2-.1.3s-.2.1-.4.1a.37.37,0,0,1-.3-.1c0-.1-.1-.2-.1-.3v-1h.2v1a.35.35,0,0,0,.1.2.31.31,0,0,0,.2.1c.1,0,.2,0,.2-.1V80.7h.2v1Z"/><path class="cls-8" d="M16.3,82.1h-.2l-.1-.4h-.4v.4h-.2l.5-1.4h.2Zm-.4-.6h0l-.1-.5h-.1l-.1.5Z"/><polygon class="cls-8" points="17.1 82.1 16.9 82.1 16.5 81 16.5 81 16.5 82.1 16.3 82.1 16.3 80.6 16.5 80.6 17 81.7 17 81.7 17 80.6 17.1 80.6 17.1 82.1"/><path class="cls-8" d="M18,82.1h-.2V82a.1.1,0,0,0-.1.1h-.2c-.2,0-.2-.1-.3-.2a.59.59,0,0,1-.2-.5c0-.2.1-.5.2-.5.1-.2.2-.2.3-.2s.2.1.3.2a.37.37,0,0,1,.1.3h-.2c0-.1,0-.2-.1-.2a.35.35,0,0,0-.2-.1.22.22,0,0,0-.2.2c-.1.1-.1.2-.1.5s0,.3.1.4.1.1.2.1.2,0,.2-.1.1-.1.1-.2v-.1h-.1v-.2H18v.6Z"/><polygon class="cls-8" points="18.8 82.1 18 82.1 18 81.9 18.7 80.8 18 80.8 18 80.6 18.8 80.6 18.8 80.8 18.2 81.9 18.8 81.9 18.8 82.1"/><polygon class="cls-8" points="19.7 82.1 19.5 82.1 19.5 81.4 19.1 81.4 19.1 82.1 18.9 82.1 18.9 80.6 19.1 80.6 19.1 81.3 19.5 81.3 19.5 80.6 19.7 80.6 19.7 82.1"/><path class="cls-8" d="M20.6,81.3c0,.2-.1.5-.2.5s-.2.2-.3.2-.2-.1-.3-.2a1.3,1.3,0,0,1,0-1c.1-.1.2-.2.3-.2s.2.1.3.2S20.6,81.1,20.6,81.3Zm-.1,0h0a4.33,4.33,0,0,0-.1-.5.35.35,0,0,1-.2-.1.35.35,0,0,1-.2.1c-.1.1-.1.2-.1.5a.75.75,0,0,0,.1.5c.1.1.1.1.2.1s.2,0,.2-.1A2,2,0,0,0,20.5,81.3Z"/><path class="cls-8" d="M21.5,81.7c0,.1-.1.2-.1.3s-.2.1-.4.1a.37.37,0,0,1-.3-.1c0-.1-.1-.2-.1-.3v-1h.2v1a.35.35,0,0,0,.1.2.31.31,0,0,0,.2.1c.1,0,.2,0,.2-.1V80.7h.2v1Z"/><path class="cls-8" d="M23.2,81.7c0,.2,0,.2-.1.3a.37.37,0,0,1-.3.1h-.5V80.7h.5c.1,0,.2.1.3.2a.35.35,0,0,0,.1.2c0,.1,0,.2-.1.2s-.1.1-.2.1c.1,0,.2,0,.2.1s.1.1.1.2ZM23,81h0a.35.35,0,0,0-.1-.2c-.1,0-.1-.1-.2-.1h-.1v.5h.2c.1,0,.1,0,.2-.2Zm0,.7h0c0-.1,0-.2-.1-.2h-.3V82h.2c.1,0,.2,0,.2-.1Z"/><polygon class="cls-8" points="24 82.1 23.3 82.1 23.3 80.6 23.4 80.6 23.4 81.9 24 81.9 24 82.1"/><path class="cls-8" d="M24.9,81.7a.4.4,0,1,1-.8,0v-1h.2v1c0,.1,0,.2.1.2s.1.1.2.1.2,0,.2-.1.1-.1.1-.2v-1h.2v1Z"/><polygon class="cls-8" points="25.8 82.1 25 82.1 25 80.6 25.8 80.6 25.8 80.8 25.2 80.8 25.2 81.3 25.7 81.3 25.7 81.4 25.2 81.4 25.2 81.9 25.8 81.9 25.8 82.1"/><path class="cls-8" d="M27.5,81.7c0,.2-.1.2-.2.3a.4.4,0,0,1-.7-.3v-.1h.2v.1a.35.35,0,0,0,.1.2.31.31,0,0,0,.2.1c.1,0,.2,0,.2-.1a.35.35,0,0,0,.1-.2.35.35,0,0,1-.1-.2.35.35,0,0,1-.2-.1c-.2-.1-.2-.2-.3-.2a.35.35,0,0,0-.1-.2s.1-.2.2-.2l.2-.2c.2,0,.2.1.3.2a.31.31,0,0,1,.1.2h-.2c0-.1,0-.1-.1-.2a.35.35,0,0,0-.2-.1.31.31,0,0,0-.2.1v.3c.1.1.2.1.2.2a.77.77,0,0,1,.3.2c.2,0,.2.1.2.2Z"/><polygon class="cls-8" points="28.5 82.1 28.3 82.1 27.9 81.3 27.8 81.5 27.8 82.1 27.5 82.1 27.5 80.6 27.8 80.6 27.8 81.3 28.2 80.6 28.4 80.6 28 81.2 28.5 82.1"/><polygon class="cls-8" points="29.3 80.6 29 81.4 29 82.1 28.8 82.1 28.8 81.4 28.4 80.6 28.6 80.6 28.9 81.3 28.9 81.3 29.1 80.6 29.3 80.6"/><path class="cls-8" d="M31,81.7c0,.2,0,.2-.1.3a.4.4,0,0,1-.7-.3v-.1h.2v.1c0,.1,0,.2.1.2s.1.1.2.1.2,0,.2-.1.1-.1.1-.2a.31.31,0,0,0-.1-.2.35.35,0,0,0-.2-.1c-.2-.1-.2-.2-.3-.2a.31.31,0,0,1-.1-.2s0-.2.1-.2.2-.2.3-.2.2.1.3.2a.31.31,0,0,1,.1.2h-.2c0-.1-.1-.1-.1-.2a.35.35,0,0,0-.2-.1c-.1,0-.2,0-.2.1a.35.35,0,0,0-.1.2.1.1,0,0,0,.1.1c0,.1.1.1.2.2s.2.1.2.2C31,81.5,31,81.6,31,81.7Z"/><polygon class="cls-8" points="31.9 82.1 31.1 82.1 31.1 80.6 31.8 80.6 31.8 80.8 31.3 80.8 31.3 81.3 31.8 81.3 31.8 81.4 31.3 81.4 31.3 81.9 31.9 81.9 31.9 82.1"/><path class="cls-8" d="M32.8,82.1h-.2l-.1-.4h-.4l-.1.4h-.2l.4-1.4h.2l.4,1.4Zm-.3-.6h0l-.2-.5h0l-.1.5Z"/><path class="cls-8" d="M33.6,82.1h-.2l-.3-.6h-.2v.6h-.2V80.7h.4c.2,0,.2.1.3.2s.2.2.2.2c0,.2-.1.2-.1.3a.35.35,0,0,0-.2.1l.3.6ZM33.4,81h0v-.2a.35.35,0,0,1-.2-.1H33v.5h.4V81Z"/><path class="cls-8" d="M34.5,81.5a.9.9,0,0,1-.1.5.37.37,0,0,1-.3.1c-.2,0-.2-.1-.3-.2a.59.59,0,0,1-.2-.5c0-.2.1-.5.2-.5.1-.2.2-.2.3-.2s.2.1.3.2.1.2.1.4h-.2c0-.2,0-.2-.1-.3a.35.35,0,0,0-.2-.1.22.22,0,0,0-.2.2c-.1.1-.1.2-.1.5s0,.3.1.4.1.1.2.1.1,0,.2-.1a.37.37,0,0,0,.1-.3l.2-.2Z"/><polygon class="cls-8" points="35.3 82.1 35.2 82.1 35.2 81.4 34.7 81.4 34.7 82.1 34.5 82.1 34.5 80.6 34.7 80.6 34.7 81.3 35.2 81.3 35.2 80.6 35.3 80.6 35.3 82.1"/><path class="cls-8" d="M37.1,81.9l-.1.2-.1-.1a.1.1,0,0,1-.1-.1c0,.1-.1.1-.2.2h-.2c-.1,0-.2,0-.2-.1s-.2-.2-.2-.3,0-.2.1-.2.1-.1.2-.2a.31.31,0,0,0-.1-.2v-.2c0-.1,0-.2.1-.2a.35.35,0,0,0,.2-.1.31.31,0,0,1,.2.1c.1.1.1.1.1.2s0,.2-.1.2-.2.1-.2.2l.2.2c0,.1.1.1.2.2v-.3h.2v.5Zm-.3-.1h0l-.2-.2a.35.35,0,0,1-.1-.2.1.1,0,0,0-.1.1c-.1.1-.1.1-.1.2a.35.35,0,0,0,.1.2h.2c.1,0,.1,0,.2-.1C36.7,81.9,36.7,81.8,36.8,81.8Zm-.1-.8h0v-.2h-.1c-.1,0-.1,0-.1.1s-.1,0-.1.1v.1c0,.1,0,.2.1.2l.1-.1.1-.2Z"/><path class="cls-8" d="M38.8,82.1h-.2l-.3-.6h-.2v.6h-.2V80.7h.4c.2,0,.2.1.3.2s.2.2.2.2c0,.2-.1.2-.1.3a.35.35,0,0,0-.2.1l.3.6ZM38.6,81h0c0-.1,0-.1-.1-.2a.35.35,0,0,0-.2-.1h-.2v.5h.4c.1,0,.1,0,.1-.2Z"/><polygon class="cls-8" points="39.7 82.1 38.8 82.1 38.8 80.6 39.6 80.6 39.6 80.8 39.1 80.8 39.1 81.3 39.6 81.3 39.6 81.4 39.1 81.4 39.1 81.9 39.7 81.9 39.7 82.1"/><path class="cls-8" d="M40.6,81.7c0,.2,0,.2-.1.3a.37.37,0,0,1-.3.1c-.2,0-.3,0-.3-.1s-.2-.2-.2-.3v-.1h.2v.1a.35.35,0,0,0,.1.2.25.25,0,0,0,.4,0,.35.35,0,0,0,.1-.2.35.35,0,0,0-.3-.3c-.2-.1-.2-.2-.2-.2l-.2-.2s.1-.2.2-.2.2-.2.3-.2a.22.22,0,0,1,.2.2l.2.2h-.2v-.2a.35.35,0,0,1-.2-.1c-.1,0-.2,0-.2.1s-.1.1-.1.2v.1c.1.1.2.1.2.2a.77.77,0,0,1,.3.2C40.6,81.5,40.6,81.6,40.6,81.7Z"/><path class="cls-8" d="M41.5,81.5c-.1.2-.1.3-.2.5a.37.37,0,0,1-.3.1c-.1,0-.2-.1-.3-.2a.59.59,0,0,1-.2-.5c0-.2.1-.5.2-.5.1-.2.2-.2.3-.2s.2.1.3.2.1.2.1.4h-.2c0-.2,0-.2-.1-.3a.35.35,0,0,0-.2-.1.22.22,0,0,0-.2.2c-.1.1-.1.2-.1.5s0,.3.1.4.1.1.2.1.2,0,.2-.1a.37.37,0,0,0,.1-.3l.3-.2Z"/><path class="cls-8" d="M42.3,81.7a.4.4,0,1,1-.8,0v-1h.2v1c0,.1,0,.2.1.2s.1.1.2.1.2,0,.2-.1.1-.1.1-.2v-1h.2v1Z"/><polygon class="cls-8" points="43.1 82.1 42.4 82.1 42.4 80.6 43.1 80.6 43.1 80.8 42.5 80.8 42.5 81.3 43.1 81.3 43.1 81.4 42.5 81.4 42.5 81.9 43.1 81.9 43.1 82.1"/></g><line class="cls-9" x1="57.5" y1="63.4" x2="0.1" y2="63.4"/></svg>