<?xml version="1.0" encoding="utf-8"?>
<!-- Generator: Adobe Illustrator 26.1.0, SVG Export Plug-In . SVG Version: 6.00 Build 0)  -->
<svg version="1.1" id="图层_1" xmlns="http://www.w3.org/2000/svg" xmlns:xlink="http://www.w3.org/1999/xlink" x="0px" y="0px"
	 viewBox="0 0 32 32" style="enable-background:new 0 0 32 32;" xml:space="preserve">
<style type="text/css">
	.st0{fill:#040000;}
</style>
<path class="st0" d="M16,0.5C7.44,0.5,0.5,7.44,0.5,16S7.44,31.5,16,31.5S31.5,24.56,31.5,16S24.56,0.5,16,0.5z M16,29.67
	c-0.68,0-1.36-0.05-2.01-0.15c0-0.08-0.02-0.16-0.05-0.24l-3.43-9.47c0.49-0.65,2.1-2.31,5.43-2.04c5.06,0.4,6.88-2.45,6.96-2.57
	c0.13-0.22,0.15-0.48,0.06-0.72l-3.11-7.75c-0.11-0.26-0.35-0.46-0.64-0.49c-0.29-0.04-0.57,0.08-0.73,0.32
	c-0.06,0.07-1.46,1.83-5.53,1.51c-4.98-0.39-7.28,2.24-7.38,2.35c-0.19,0.22-0.24,0.54-0.13,0.81l3.09,7.75l3.67,10.16
	C6.5,27.49,2.33,22.23,2.33,16C2.33,8.45,8.45,2.33,16,2.33S29.67,8.45,29.67,16S23.55,29.67,16,29.67z M9.9,18.12l-0.21-0.5
	l-2.58-6.48c0.7-0.58,2.53-1.74,5.72-1.49c3.07,0.24,4.95-0.58,5.96-1.28l2.53,6.28c-0.55,0.57-2.09,1.78-5.26,1.54
	C12.89,15.93,10.94,17.14,9.9,18.12z" fill="param(fill)" fill-opacity="param(fill-opacity)" stroke="param(outline)" stroke-opacity="param(outline-opacity)" stroke-width="param(outline-width)"/>
<g>
	<path class="st0" d="M16.81,25.13h-0.57v-3.49h-0.06l-0.69,3.49h-0.46l-0.69-3.49H14.3v3.49h-0.57v-4.89h0.89l0.63,3.23h0.06
		l0.63-3.23h0.89V25.13z" fill="param(fill)" fill-opacity="param(fill-opacity)" stroke="param(outline)" stroke-opacity="param(outline-opacity)" stroke-width="param(outline-width)"/>
	<path class="st0" d="M21.12,23.19c-0.02,0.72-0.17,1.24-0.46,1.54c-0.29,0.31-0.63,0.46-1.03,0.46c-0.46,0-0.85-0.19-1.17-0.56
		c-0.32-0.37-0.49-0.97-0.49-1.79c0-0.9,0.16-1.56,0.47-2c0.31-0.44,0.72-0.66,1.22-0.66c0.42,0,0.77,0.16,1.04,0.47
		c0.28,0.31,0.4,0.76,0.39,1.33h-0.63c0-0.42-0.07-0.73-0.2-0.94c-0.13-0.21-0.33-0.31-0.6-0.31c-0.31,0-0.55,0.16-0.73,0.47
		c-0.18,0.31-0.27,0.84-0.27,1.59c0,0.69,0.09,1.17,0.27,1.44c0.18,0.28,0.41,0.41,0.7,0.41c0.21,0,0.4-0.1,0.57-0.3
		s0.26-0.59,0.26-1.16H21.12z" fill="param(fill)" fill-opacity="param(fill-opacity)" stroke="param(outline)" stroke-opacity="param(outline-opacity)" stroke-width="param(outline-width)"/>
	<path class="st0" d="M25.25,23.7c0,0.46-0.12,0.82-0.36,1.09c-0.24,0.27-0.62,0.4-1.13,0.4s-0.89-0.13-1.13-0.4
		c-0.24-0.27-0.36-0.63-0.36-1.09v-3.46h0.66v3.46c0,0.32,0.08,0.56,0.23,0.72c0.15,0.15,0.35,0.23,0.6,0.23
		c0.25,0,0.45-0.08,0.6-0.23c0.15-0.15,0.23-0.39,0.23-0.72v-3.46h0.66V23.7z" fill="param(fill)" fill-opacity="param(fill-opacity)" stroke="param(outline)" stroke-opacity="param(outline-opacity)" stroke-width="param(outline-width)"/>
</g>
</svg>
