<?xml version="1.0" encoding="utf-8"?>
<!-- Generator: Adobe Illustrator 26.1.0, SVG Export Plug-In . SVG Version: 6.00 Build 0)  -->
<svg version="1.1" id="图层_1" xmlns="http://www.w3.org/2000/svg" xmlns:xlink="http://www.w3.org/1999/xlink" x="0px" y="0px"
	 viewBox="0 0 32 32" style="enable-background:new 0 0 32 32;" xml:space="preserve">
<g>
	<path d="M15.75,0.12c-8.56,0-15.5,6.94-15.5,15.5c0,8.57,6.94,15.5,15.5,15.5s15.5-6.93,15.5-15.5
		C31.25,7.06,24.31,0.12,15.75,0.12z M16.85,29.24v-9.77c1.4-0.47,2.38-1.83,2.31-3.38c-0.08-1.89-1.67-3.35-3.56-3.27
		c-1.88,0.08-3.35,1.68-3.26,3.56c0.06,1.41,0.96,2.57,2.19,3.04v9.81C7.55,28.62,2.08,22.76,2.08,15.62
		c0-7.54,6.12-13.66,13.67-13.66s13.67,6.12,13.67,13.66C29.42,22.8,23.89,28.69,16.85,29.24z" fill="param(fill)" fill-opacity="param(fill-opacity)" stroke="param(outline)" stroke-opacity="param(outline-opacity)" stroke-width="param(outline-width)"/>
</g>
<path d="M15.35,7.03c4.25-0.19,7.95,2.54,9.18,6.4l1.46-0.45c-1.43-4.51-5.75-7.69-10.7-7.47c-4.61,0.2-8.42,3.28-9.75,7.43
	l1.46,0.45C8.14,9.84,11.4,7.2,15.35,7.03z" fill="param(fill)" fill-opacity="param(fill-opacity)" stroke="param(outline)" stroke-opacity="param(outline-opacity)" stroke-width="param(outline-width)"/>
<path d="M15.45,9.47c3.12-0.14,5.83,1.86,6.74,4.69l1.46-0.45c-1.11-3.48-4.44-5.93-8.27-5.76c-3.55,0.16-6.49,2.52-7.53,5.72
	l1.46,0.45C10.17,11.52,12.56,9.59,15.45,9.47z" fill="param(fill)" fill-opacity="param(fill-opacity)" stroke="param(outline)" stroke-opacity="param(outline-opacity)" stroke-width="param(outline-width)"/>
<path d="M15.56,11.91c1.99-0.09,3.72,1.18,4.31,2.98l1.46-0.45c-0.79-2.45-3.14-4.17-5.83-4.05c-2.5,0.11-4.56,1.76-5.3,4l1.46,0.45
	C12.21,13.2,13.73,11.99,15.56,11.91z" fill="param(fill)" fill-opacity="param(fill-opacity)" stroke="param(outline)" stroke-opacity="param(outline-opacity)" stroke-width="param(outline-width)"/>
</svg>
