<?xml version="1.0" encoding="utf-8"?>
<!-- Generator: Adobe Illustrator 26.1.0, SVG Export Plug-In . SVG Version: 6.00 Build 0)  -->
<svg version="1.1" id="图层_1" xmlns="http://www.w3.org/2000/svg" xmlns:xlink="http://www.w3.org/1999/xlink" x="0px" y="0px"
	 viewBox="0 0 32 32" style="enable-background:new 0 0 32 32;" xml:space="preserve">
<style type="text/css">
	.st0{fill:#040000;}
</style>
<g>
	<path class="st0" d="M16,0.5C7.44,0.5,0.5,7.44,0.5,16c0,3.08,0.9,5.94,2.44,8.35c0.61,0.96,1.33,1.84,2.13,2.64
		c0.93,0.92,1.96,1.72,3.09,2.39c1.12,0.65,2.33,1.17,3.61,1.54c1.35,0.38,2.76,0.58,4.23,0.58s2.88-0.2,4.23-0.58
		c1.28-0.37,2.49-0.89,3.61-1.54c1.13-0.67,2.16-1.47,3.09-2.39c0.8-0.8,1.52-1.68,2.13-2.64c1.54-2.41,2.44-5.27,2.44-8.35
		C31.5,7.44,24.56,0.5,16,0.5z M2.33,16C2.33,8.45,8.45,2.33,16,2.33S29.67,8.45,29.67,16c0,1.59-0.27,3.11-0.77,4.53
		c-0.56,0.44-1.45,0.72-2.45,0.72c-1.11,0-2.08-0.34-2.61-0.86c-0.54,0.52-1.51,0.86-2.62,0.86c-1.1,0-2.07-0.34-2.61-0.86
		c-0.53,0.52-1.5,0.86-2.61,0.86s-2.08-0.34-2.61-0.86c-0.54,0.52-1.51,0.86-2.61,0.86c-1.11,0-2.08-0.34-2.62-0.86
		c-0.53,0.52-1.5,0.86-2.61,0.86c-1,0-1.89-0.28-2.45-0.72C2.6,19.11,2.33,17.59,2.33,16z M26.13,25.17
		c-0.97-0.05-1.81-0.38-2.29-0.84c-0.54,0.51-1.51,0.85-2.62,0.85c-1.1,0-2.07-0.34-2.61-0.85c-0.53,0.51-1.5,0.85-2.61,0.85
		s-2.08-0.34-2.61-0.85c-0.54,0.51-1.51,0.85-2.61,0.85c-1.11,0-2.08-0.34-2.62-0.85c-0.48,0.46-1.32,0.79-2.29,0.84
		c-0.64-0.69-1.2-1.46-1.67-2.28c0.4,0.12,0.86,0.19,1.35,0.19c1.11,0,2.08-0.34,2.61-0.86c0.54,0.52,1.51,0.86,2.62,0.86
		c1.1,0,2.07-0.34,2.61-0.86c0.53,0.52,1.5,0.86,2.61,0.86s2.08-0.34,2.61-0.86c0.54,0.52,1.51,0.86,2.61,0.86
		c1.11,0,2.08-0.34,2.62-0.86c0.53,0.52,1.5,0.86,2.61,0.86c0.49,0,0.95-0.07,1.35-0.19C27.33,23.71,26.77,24.48,26.13,25.17z
		 M20.08,29.05c-0.62-0.14-1.13-0.4-1.47-0.72c-0.53,0.51-1.5,0.85-2.61,0.85s-2.08-0.34-2.61-0.85c-0.34,0.32-0.85,0.58-1.47,0.72
		c-1.65-0.52-3.18-1.34-4.5-2.41c0.3-0.13,0.55-0.29,0.74-0.48c0.54,0.51,1.51,0.85,2.62,0.85c1.1,0,2.07-0.34,2.61-0.85
		c0.53,0.51,1.5,0.85,2.61,0.85s2.08-0.34,2.61-0.85c0.54,0.51,1.51,0.85,2.61,0.85c1.11,0,2.08-0.34,2.62-0.85
		c0.19,0.19,0.44,0.35,0.74,0.48C23.26,27.71,21.73,28.53,20.08,29.05z" fill="param(fill)" fill-opacity="param(fill-opacity)" stroke="param(outline)" stroke-opacity="param(outline-opacity)" stroke-width="param(outline-width)"/>
</g>
<path class="st0" d="M13.15,12.08c0.06-0.13,0.13-0.26,0.2-0.37L13.15,12.08z"/>
<path class="st0" d="M18.85,12.08l-0.2-0.37C18.72,11.83,18.79,11.95,18.85,12.08z"/>
<polygon class="st0" points="13.15,12.1 13.15,12.08 13.15,12.1 "/>
<polygon class="st0" points="18.85,12.1 18.85,12.1 18.85,12.08 "/>
<path class="st0" d="M19.29,12.42L19.29,12.42c0,0,0-0.01-0.01-0.01l-0.23-0.43L16,6.29l-3.05,5.68l-0.23,0.43
	c0,0-0.01,0.01-0.01,0.01h0c-0.2,0.45-0.32,0.95-0.32,1.48c0,1.99,1.62,3.61,3.61,3.61s3.61-1.62,3.61-3.61
	C19.61,13.37,19.5,12.87,19.29,12.42z M17.77,14.93c-0.49,0-0.88-0.4-0.88-0.88c0-0.49,0.4-0.88,0.88-0.88
	c0.49,0,0.88,0.4,0.88,0.88C18.65,14.53,18.26,14.93,17.77,14.93z" fill="param(fill)" fill-opacity="param(fill-opacity)" stroke="param(outline)" stroke-opacity="param(outline-opacity)" stroke-width="param(outline-width)"/>
</svg>
