<?xml version="1.0" encoding="utf-8"?>
<!-- Generator: Adobe Illustrator 26.1.0, SVG Export Plug-In . SVG Version: 6.00 Build 0)  -->
<svg version="1.1" id="图层_1" xmlns="http://www.w3.org/2000/svg" xmlns:xlink="http://www.w3.org/1999/xlink" x="0px" y="0px"
	 viewBox="0 0 32 32" style="enable-background:new 0 0 32 32;" xml:space="preserve">
<path d="M23.8,9.8c-6.9-0.1-7.7-4.5-7.7-4.5s-0.7,4.4-7.6,4.5c0,0-0.7,14.4,7.6,17.3C24.3,24.3,23.8,9.8,23.8,9.8z M18.1,16.5
	l1.1,3.6l-3.1-2.1L13.1,20l1.1-3.6l-3-2.2l3.7-0.1l1.2-3.5l1.2,3.5l3.7,0.1L18.1,16.5z" fill="param(fill)" fill-opacity="param(fill-opacity)" stroke="param(outline)" stroke-opacity="param(outline-opacity)" stroke-width="param(outline-width)"/>
<g>
	<path d="M16,0.8C7.4,0.8,0.5,7.7,0.5,16.2S7.4,31.8,16,31.8s15.5-6.9,15.5-15.5S24.6,0.8,16,0.8z M16,29.9
		c-7.6,0-13.7-6.1-13.7-13.7S8.4,2.6,16,2.6s13.7,6.1,13.7,13.7S23.5,29.9,16,29.9z" fill="param(fill)" fill-opacity="param(fill-opacity)" stroke="param(outline)" stroke-opacity="param(outline-opacity)" stroke-width="param(outline-width)"/>
</g>
</svg>
