<?xml version="1.0" encoding="utf-8"?>
<!-- Generator: Adobe Illustrator 26.1.0, SVG Export Plug-In . SVG Version: 6.00 Build 0)  -->
<svg version="1.1" id="图层_1" xmlns="http://www.w3.org/2000/svg" xmlns:xlink="http://www.w3.org/1999/xlink" x="0px" y="0px"
	 viewBox="0 0 32 32" style="enable-background:new 0 0 32 32;" xml:space="preserve">
<style type="text/css">
	.st0{fill:#040000;}
</style>
<g>
	<path class="st0" d="M16,0.5C7.44,0.5,0.5,7.44,0.5,16S7.44,31.5,16,31.5S31.5,24.56,31.5,16S24.56,0.5,16,0.5z M16,2.33
		c7.55,0,13.67,6.12,13.67,13.67c0,3.18-1.08,6.1-2.9,8.42h-2.15L16.43,8.05l1.16-2.28c0.11-0.21,0.04-0.47-0.16-0.58
		c-0.2-0.11-0.45-0.03-0.56,0.17l-0.9,1.78l-0.95-1.89c-0.1-0.21-0.35-0.3-0.55-0.19c-0.2,0.11-0.28,0.37-0.17,0.58l1.2,2.41
		L7.16,24.42H5.3c-0.02,0-0.04,0-0.06,0.01C3.42,22.11,2.33,19.18,2.33,16C2.33,8.45,8.45,2.33,16,2.33z M18.17,24.42H9.53
		l5.95-10.19L18.17,24.42z M16,29.67c-3.97,0-7.54-1.69-10.04-4.39h20.08C23.54,27.98,19.97,29.67,16,29.67z" fill="param(fill)" fill-opacity="param(fill-opacity)" stroke="param(outline)" stroke-opacity="param(outline-opacity)" stroke-width="param(outline-width)"/>
</g>
</svg>
